<?xml version="1.0" standalone="no"?>
<!DOCTYPE svg PUBLIC "-//W3C//DTD SVG 20010904//EN"
 "http://www.w3.org/TR/2001/REC-SVG-20010904/DTD/svg10.dtd">
<svg version="1.0" xmlns="http://www.w3.org/2000/svg"
 width="70.000000pt" height="70.000000pt" viewBox="0 0 70.000000 70.000000"
 preserveAspectRatio="xMidYMid meet">
<metadata>
Created by potrace 1.14, written by Peter Selinger 2001-2017
</metadata>
<g transform="translate(0.000000,70.000000) scale(0.100000,-0.100000)"
fill="#000000" stroke="none">
<path d="M252 616 c-95 -31 -161 -101 -186 -199 -13 -50 -12 -120 2 -142 4 -5
7 -12 7 -15 1 -8 35 -70 39 -70 2 0 2 12 0 28 -2 15 -5 63 -6 107 -1 86 12
130 54 176 25 27 98 75 98 64 0 -4 6 -3 13 3 35 29 180 -7 238 -60 39 -35 71
-112 71 -167 0 -50 -20 -121 -34 -121 -4 0 -8 -5 -8 -11 0 -28 -85 -80 -139
-86 -53 -6 -73 -20 -60 -42 10 -15 19 -16 62 -10 28 5 54 14 59 21 4 7 8 10 8
5 0 -15 55 21 91 60 58 63 85 159 66 239 -9 36 -45 102 -78 138 -65 75 -202
112 -297 82z"/>
<path d="M265 534 c-81 -30 -128 -102 -126 -193 5 -188 5 -185 32 -208 35 -29
36 -29 32 10 -10 118 -11 251 -2 270 13 26 67 77 83 78 6 0 27 2 46 4 72 8
152 -52 166 -124 16 -79 -33 -156 -107 -167 -65 -11 -79 -54 -18 -54 64 0 146
57 171 120 27 69 -5 177 -69 229 -54 45 -143 60 -208 35z"/>
<path d="M304 459 c-16 -5 -41 -20 -55 -35 -22 -23 -24 -33 -23 -112 3 -125 9
-206 18 -220 4 -6 16 -12 26 -12 17 0 19 6 15 58 -4 62 -8 220 -6 239 0 7 15
20 32 29 25 13 36 13 59 4 61 -25 59 -109 -3 -126 -22 -7 -32 -16 -32 -29 0
-41 91 -21 115 25 53 99 -37 210 -146 179z"/>
</g>
</svg>
