<svg xmlns="http://www.w3.org/2000/svg">
<defs>
<font id="GTAmerica-Regular" horiz-adv-x="620" >
  <font-face 
    font-family="GT America"
    font-weight="400"
    font-stretch="normal"
    units-per-em="1000"
    panose-1="0 0 5 0 0 0 0 0 0 0"
    ascent="800"
    descent="-200"
    x-height="500"
    cap-height="710"
    bbox="-416 -239 1149 942"
    underline-thickness="50"
    underline-position="-50"
    unicode-range="U+000D-U+FB02"
  />
<missing-glyph horiz-adv-x="1018" 
d="M998 663h-552v-47h552v-48h-552v-47h552v-48h-552v-47h552v-47h-552v-48h552v-47h-978v426h978v-47zM67 667l13 9h-16l-5 15l-4 -15h-16l13 -9l-5 -15l12 9l13 -9zM142 676h-16l13 -9l-5 -15l12 10l13 -10l-5 15l12 9h-15l-5 15zM229 676h-16l13 -9l-5 -15l12 10l13 -10
l-5 15l12 9h-15l-5 15zM315 676h-15l13 -9l-5 -15l12 10l13 -10l-5 15l12 9h-15l-5 15zM415 667l12 9h-15l-5 15l-5 -15h-15l12 -9l-4 -15l12 10l13 -10zM98 632h-15l12 -9l-4 -14l12 9l12 -9l-4 14l12 9h-15l-5 15zM371 623l13 9h-16l-4 15l-5 -15h-15l12 -9l-5 -14l13 9
l12 -9zM273 364v93h94v80h-94v94h-80v-94h-93v-80h93v-93h80zM67 580l13 9h-16l-5 14l-4 -14h-16l13 -9l-5 -15l12 9l13 -9zM142 589h-16l13 -9l-5 -15l12 9l13 -9l-5 15l12 9h-15l-5 14zM315 589h-15l13 -9l-5 -15l12 9l13 -9l-5 15l12 9h-15l-5 14zM415 580l12 9h-15
l-5 14l-5 -14h-15l12 -9l-4 -15l12 9l13 -9zM67 492l13 10h-16l-5 14l-4 -14h-16l13 -10l-5 -14l12 9l13 -9zM415 492l12 10h-15l-5 14l-5 -14h-15l12 -10l-4 -14l12 9l13 -9zM67 405l13 9h-16l-5 15l-4 -15h-16l13 -9l-5 -14l12 9l13 -9zM154 405l12 9h-15l-5 15l-4 -15
h-16l13 -9l-5 -14l12 9l13 -9zM328 405l12 9h-15l-5 15l-5 -15h-15l13 -9l-5 -14l12 9l13 -9zM415 405l12 9h-15l-5 15l-5 -15h-15l12 -9l-4 -14l12 9l13 -9zM115 347l-4 15l12 9h-15l-5 14l-5 -14h-15l12 -9l-4 -15l12 9zM376 347l-5 15l13 9h-16l-4 14l-5 -14h-15l12 -9
l-5 -15l13 9zM72 303l-5 15l13 9h-16l-5 15l-4 -15h-16l13 -9l-5 -15l12 9zM159 303l-5 15l12 9h-15l-5 15l-4 -15h-16l13 -9l-5 -15l12 9zM246 303l-5 15l12 9h-15l-5 15l-4 -15h-16l13 -9l-5 -15l12 9zM333 303l-5 15l12 9h-15l-5 15l-5 -15h-15l13 -9l-5 -15l12 9z

<glyph glyph-name="fi" unicode="fi" horiz-adv-x="612" 
d="M322 500l-0.000976562 -70h-125v-430h-85v430h-92v70h92v79c0 46 13.333 82.833 40 110.5s62 41.5 106 41.5c24.667 0 46 -2.33301 64 -7v-73c-20 3.33301 -37.667 5 -53 5c-25.333 0 -43.666 -7.16699 -54.999 -21.5s-17 -36.833 -17 -67.5v-67h125zM430.999 593v107h97
v-107h-97zM436.999 0v500h85v-500h-85z" />
    <glyph glyph-name="fl" unicode="fl" horiz-adv-x="622" 
d="M322 500l-0.000976562 -70h-125v-430h-85v430h-92v70h92v79c0 46 13.333 82.833 40 110.5s62 41.5 106 41.5c24.667 0 46 -2.33301 64 -7v-73c-20 3.33301 -37.667 5 -53 5c-25.333 0 -43.666 -7.16699 -54.999 -21.5s-17 -36.833 -17 -67.5v-67h125zM526.999 725v-725
h-85v725h85z" />
    <glyph glyph-name="g_g.liga" unicode="gg" horiz-adv-x="1008" 
d="M355 491c16.667 60.667 55.335 91 116.002 91c12.667 0 24 -1.33301 34 -4v-73c-20 2.66699 -33.333 4 -40 4c-32.667 0 -55.334 -15.667 -68.001 -47c31.333 -30 47 -69.667 47 -119c0 -51.333 -17.167 -92.5 -51.5 -123.5s-78.833 -46.5 -133.5 -46.5
c-36.667 0 -68.334 7 -95.001 21c-25.333 -12 -38 -28 -38 -48c0 -35.333 28 -53 84 -53h89c112.667 0 169 -46.333 169 -139c0 -46.667 -18.5 -85.167 -55.5 -115.5s-92.833 -45.5 -167.5 -45.5c-60.667 0 -111.667 10.667 -153 32s-62 53.666 -62 96.999
c0 26 8.33301 48.5 25 67.5s38.667 32.5 66 40.5c-46.667 16.667 -70 47.334 -70 92.001c0 22 6.33301 41.833 19 59.5s31 30.5 55 38.5c-34 32 -51 73 -51 123c0 51.333 17.167 92.333 51.5 123s78.833 46 133.5 46c36 0 68 -7 96 -21zM948.001 512
c-31.333 0 -54.001 -16.6689 -68.001 -50.002c31.333 -31.333 47 -71.333 47 -120c0 -51.333 -17.167 -92.5 -51.5 -123.5s-78.833 -46.5 -133.5 -46.5c-33.333 0 -63.666 6.33301 -90.999 19c-22.667 -12 -34 -27.333 -34 -46c0 -35.333 31.333 -53 94 -53h99
c112.667 0 169 -46.333 169 -139c0 -45.333 -20 -83.333 -60 -114s-97.667 -46 -173 -46c-60.667 0 -111.667 10.5 -153 31.5s-62 53.167 -62 96.5c0 25.333 8 47.333 24 66s37.333 32.334 64 41.001c-51.333 16 -77 47 -77 93c0 20.667 5.83301 39.667 17.5 57
s28.5 30.333 50.5 39c-35.333 32 -53 73.667 -53 125s17.167 92.5 51.5 123.5s78.833 46.5 133.5 46.5c36 0 68 -7 96 -21c7.33301 26.667 20.5 48.334 39.5 65.001s44.5 25 76.5 25c12.667 0 24 -1.33301 34 -4v-69c-20 2.66699 -33.333 4 -40 4zM259 237.998
c30.667 0 55.8301 9.5 75.4971 28.5s29.5 44.5 29.5 76.5s-9.66699 57.333 -29 76s-44.666 28 -75.999 28s-56.666 -9.33301 -75.999 -28s-29 -44 -29 -76s9.83301 -57.5 29.5 -76.5s44.834 -28.5 75.501 -28.5zM741.996 236.998c30.667 0 55.834 9.5 75.501 28.5
s29.5 44.5 29.5 76.5s-9.83301 57.5 -29.5 76.5s-44.834 28.5 -75.501 28.5s-55.834 -9.5 -75.501 -28.5s-29.5 -44.5 -29.5 -76.5s9.83301 -57.5 29.5 -76.5s44.834 -28.5 75.501 -28.5zM285.996 17.998l-78 0.00195312c-10.667 0 -24.667 0.666992 -42 2
c-35.333 -14.667 -53 -38.334 -53 -71.001c0 -30.667 12.5 -52.667 37.5 -66s62.167 -20 111.5 -20c44 0 75.333 7 94 21s28 34.667 28 62c0 25.333 -7.83301 43.666 -23.5 54.999s-40.5 17 -74.5 17zM894.996 -55c0 25.333 -7.83301 43.667 -23.5 55s-40.5 17 -74.5 17h-88
c-10 0 -23 0.666992 -39 2c-37.333 -15.333 -56 -39 -56 -71c0 -30.667 12.5 -52.5 37.5 -65.5s62.167 -19.5 111.5 -19.5c88 0 132 27.333 132 82z" />
    <glyph glyph-name=".notdef" horiz-adv-x="1018" 
d="M998 663h-552v-47h552v-48h-552v-47h552v-48h-552v-47h552v-47h-552v-48h552v-47h-978v426h978v-47zM67 667l13 9h-16l-5 15l-4 -15h-16l13 -9l-5 -15l12 9l13 -9zM142 676h-16l13 -9l-5 -15l12 10l13 -10l-5 15l12 9h-15l-5 15zM229 676h-16l13 -9l-5 -15l12 10l13 -10
l-5 15l12 9h-15l-5 15zM315 676h-15l13 -9l-5 -15l12 10l13 -10l-5 15l12 9h-15l-5 15zM415 667l12 9h-15l-5 15l-5 -15h-15l12 -9l-4 -15l12 10l13 -10zM98 632h-15l12 -9l-4 -14l12 9l12 -9l-4 14l12 9h-15l-5 15zM371 623l13 9h-16l-4 15l-5 -15h-15l12 -9l-5 -14l13 9
l12 -9zM273 364v93h94v80h-94v94h-80v-94h-93v-80h93v-93h80zM67 580l13 9h-16l-5 14l-4 -14h-16l13 -9l-5 -15l12 9l13 -9zM142 589h-16l13 -9l-5 -15l12 9l13 -9l-5 15l12 9h-15l-5 14zM315 589h-15l13 -9l-5 -15l12 9l13 -9l-5 15l12 9h-15l-5 14zM415 580l12 9h-15
l-5 14l-5 -14h-15l12 -9l-4 -15l12 9l13 -9zM67 492l13 10h-16l-5 14l-4 -14h-16l13 -10l-5 -14l12 9l13 -9zM415 492l12 10h-15l-5 14l-5 -14h-15l12 -10l-4 -14l12 9l13 -9zM67 405l13 9h-16l-5 15l-4 -15h-16l13 -9l-5 -14l12 9l13 -9zM154 405l12 9h-15l-5 15l-4 -15
h-16l13 -9l-5 -14l12 9l13 -9zM328 405l12 9h-15l-5 15l-5 -15h-15l13 -9l-5 -14l12 9l13 -9zM415 405l12 9h-15l-5 15l-5 -15h-15l12 -9l-4 -14l12 9l13 -9zM115 347l-4 15l12 9h-15l-5 14l-5 -14h-15l12 -9l-4 -15l12 9zM376 347l-5 15l13 9h-16l-4 14l-5 -14h-15l12 -9
l-5 -15l13 9zM72 303l-5 15l13 9h-16l-5 15l-4 -15h-16l13 -9l-5 -15l12 9zM159 303l-5 15l12 9h-15l-5 15l-4 -15h-16l13 -9l-5 -15l12 9zM246 303l-5 15l12 9h-15l-5 15l-4 -15h-16l13 -9l-5 -15l12 9zM333 303l-5 15l12 9h-15l-5 15l-5 -15h-15l13 -9l-5 -15l12 9z
M420 303l-5 15l12 9h-15l-5 15l-5 -15h-15l12 -9l-4 -15l12 9zM20 189v48h977v-48h-977zM20 95v47h978v-47h-978zM20 0v47h978v-47h-978z" />
    <glyph glyph-name=".null" horiz-adv-x="0" 
 />
    <glyph glyph-name=".null" horiz-adv-x="0" 
 />
    <glyph glyph-name="CR" unicode="&#xd;" horiz-adv-x="0" 
 />
    <glyph glyph-name="space" unicode=" " horiz-adv-x="260" 
 />
    <glyph glyph-name="exclam" unicode="!" horiz-adv-x="310" 
d="M125 182l-25 543h110l-25 -543h-60zM208 106v-106h-106v106h106z" />
    <glyph glyph-name="quotedbl" unicode="&#x22;" horiz-adv-x="404" 
d="M88 447l-18 263h95l-18 -263h-59zM257 447l-18 263h95l-18 -263h-59z" />
    <glyph glyph-name="numbersign" unicode="#" horiz-adv-x="560" 
d="M550 422h-115l-27 -149h108v-69h-121l-38 -204h-79l38 204h-127l-38 -204h-79l38 204h-100v69h113l27 149h-100v69h113l38 204h79l-38 -204h127l38 204h79l-38 -204h102v-69zM329 273l27 149h-127l-27 -149h127z" />
    <glyph glyph-name="dollar" unicode="$" horiz-adv-x="609" 
d="M569 183c0 -55.333 -20.8311 -101.171 -62.498 -137.504s-97.834 -56.833 -168.501 -61.5v-91h-60v91c-66 4.66699 -120.667 24.334 -164 59.001s-71.333 83.334 -84 146.001l92 18c26.667 -86 78.667 -134 156 -144v263l-17 4
c-69.333 14.667 -119.666 37.834 -150.999 69.501s-47 74.5 -47 128.5c0 50 19.667 91.5 59 124.5s91.333 51.833 156 56.5v91h60v-91c57.333 -5.33301 104.833 -23.166 142.5 -53.499s62.167 -71.833 73.5 -124.5l-91 -26c-18.667 72.667 -60.334 114.667 -125.001 126
v-228l9 -2c77.333 -16.667 133.666 -41.667 168.999 -75s53 -81 53 -143zM157.002 527.995c0 -28.667 9.33301 -51.832 28 -69.499s49.667 -31.834 93 -42.501v218c-37.333 -2.66699 -66.833 -13 -88.5 -31s-32.5 -43 -32.5 -75zM338.002 61.9971
c43.333 3.33301 77 15.334 101 36.001s36 49 36 85c0 35.333 -10.333 62.666 -31 81.999s-56 35.333 -106 48v-251z" />
    <glyph glyph-name="percent" unicode="%" horiz-adv-x="777" 
d="M191 359c-52 0 -93.5 16.333 -124.5 49s-46.5 77 -46.5 133c0 54 15.5 97.333 46.5 130s72.167 49 123.5 49c50 0 90.833 -16.667 122.5 -50s47.5 -77.333 47.5 -132c0 -54 -15.667 -97.333 -47 -130s-72 -49 -122 -49zM127 -15l437 725h83l-437 -725h-83zM191 423
c28.667 0 51.665 10.333 68.998 31s26 48.667 26 84c0 36 -8.66699 64.667 -26 86s-40.666 32 -69.999 32c-30 0 -53.833 -10.333 -71.5 -31s-26.5 -48.667 -26.5 -84c0 -37.333 8.83301 -66.333 26.5 -87s41.834 -31 72.501 -31zM587.998 -16c-52 0 -93.5 16.333 -124.5 49
s-46.5 77 -46.5 133c0 54 15.5 97.333 46.5 130s72.167 49 123.5 49c50 0 90.833 -16.667 122.5 -50s47.5 -77.333 47.5 -132c0 -54 -15.667 -97.333 -47 -130s-72 -49 -122 -49zM587.998 48c28.667 0 51.665 10.333 68.998 31s26 48.667 26 84c0 36 -8.66699 64.667 -26 86
s-40.666 32 -69.999 32c-30 0 -53.833 -10.333 -71.5 -31s-26.5 -48.667 -26.5 -84c0 -37.333 8.83301 -66.333 26.5 -87s41.834 -31 72.501 -31z" />
    <glyph glyph-name="ampersand" unicode="&#x26;" horiz-adv-x="644" 
d="M591 75c17.333 0 30.001 0.996094 38.001 2.99609v-77c-17.333 -2.66699 -31.666 -4 -42.999 -4c-52.667 0 -97.667 19 -135 57c-54.667 -47.333 -117.667 -71 -189 -71s-128.666 17.333 -171.999 52s-65 81 -65 139c0 40.667 10 75.834 30 105.501s54 59.834 102 90.501
l13 8c-60 72.667 -90 135.334 -90 188.001c0 51.333 16.167 92.666 48.5 123.999s75.166 47 128.499 47s95.666 -14.5 126.999 -43.5s47 -68.167 47 -117.5c0 -32.667 -8.33301 -64.167 -25 -94.5s-39.334 -55.166 -68.001 -74.499l-54 -36l170 -196
c31.333 56.667 49 126.334 53 209.001l77 -11c-2.66699 -101.333 -28.667 -187 -78 -257c26 -27.333 54.333 -41 85 -41zM169.001 570.996c0 -42.667 23.666 -92.333 70.999 -149l39 25c44.667 27.333 67 69.333 67 126c0 30 -7.66699 53.167 -23 69.5
s-37.333 24.5 -66 24.5c-57.333 0 -86.666 -32 -87.999 -96zM115 179.997c0 -34.667 14.668 -63.5 44.001 -86.5s65.666 -34.5 108.999 -34.5c51.333 0 96 17 134 51l-185 215l-7 -5c-38 -26 -63.333 -48.333 -76 -67s-19 -43 -19 -73z" />
    <glyph glyph-name="quotesingle" unicode="'" horiz-adv-x="235" 
d="M88 447l-18 263h95l-18 -263h-59z" />
    <glyph glyph-name="parenleft" unicode="(" horiz-adv-x="306" 
d="M234 -140c-54.667 65.333 -97.333 138.666 -128 219.999s-46 164.333 -46 249c0 84 15.667 165.333 47 244s74.333 148.334 129 209.001l60 -36c-52.667 -68.667 -90.834 -136.167 -114.501 -202.5s-35.5 -138.833 -35.5 -217.5s11.833 -152.167 35.5 -220.5
s61.834 -137.5 114.501 -207.5z" />
    <glyph glyph-name="parenright" unicode=")" horiz-adv-x="306" 
d="M72 -140l-61.999 38c52.667 70 90.834 139.167 114.501 207.5s35.5 141.833 35.5 220.5s-11.833 151.167 -35.5 217.5s-61.834 133.833 -114.501 202.5l60 36c54.667 -60.667 97.667 -130.334 129 -209.001s47 -160 47 -244c0 -84.667 -15.333 -167.667 -46 -249
s-73.334 -154.666 -128.001 -219.999z" />
    <glyph glyph-name="asterisk" unicode="*" horiz-adv-x="327" 
d="M307 595l-106 -21l75 -78l-60 -45l-52 97l-53 -97l-60 45l75 78l-106 21l24 71l97 -48l-15 107h75l-15 -107l97 48z" />
    <glyph glyph-name="plus" unicode="+" horiz-adv-x="570" 
d="M520 366v-73h-193v-202h-85v202h-192v73h192v190h85v-190h193z" />
    <glyph glyph-name="comma" unicode="," horiz-adv-x="257" 
d="M97 -140l-23 44.001c24 10.667 40 22.5 48 35.5s12 32.167 12 57.5v3h-64v118h117v-111c0 -40.667 -6.5 -71.834 -19.5 -93.501s-36.5 -39.5 -70.5 -53.5z" />
    <glyph glyph-name="hyphen" unicode="-" horiz-adv-x="389" 
d="M50 318h289v-80h-289v80z" />
    <glyph glyph-name="period" unicode="." horiz-adv-x="257" 
d="M187 118v-118h-117v118h117z" />
    <glyph glyph-name="slash" unicode="/" horiz-adv-x="451" 
d="M124 -117h-79l282 877h79z" />
    <glyph glyph-name="zero" unicode="0" horiz-adv-x="636" 
d="M318 -15c-86.667 0 -153 32.167 -199 96.5s-69 152.833 -69 265.5c0 113.333 23 202.166 69 266.499s112.333 96.5 199 96.5s153 -32.167 199 -96.5s69 -153.166 69 -266.499c0 -112.667 -23 -201.167 -69 -265.5s-112.333 -96.5 -199 -96.5zM318 60
c58.667 0 103 25.333 133 76s45 121 45 211c0 90.667 -15 161.334 -45 212.001s-74.333 76 -133 76s-103 -25.333 -133 -76s-45 -121.334 -45 -212.001c0 -90 15 -160.333 45 -211s74.333 -76 133 -76z" />
    <glyph glyph-name="one" unicode="1" horiz-adv-x="399" 
d="M189 0l-0.000976562 545c-10 -13.333 -26.167 -24 -48.5 -32s-43.833 -12 -64.5 -12h-36v81h22c34.667 0 64.834 9.83301 90.501 29.5s42.5 47.5 50.5 83.5h76v-695h-90z" />
    <glyph glyph-name="two" unicode="2" horiz-adv-x="541" 
d="M35 0l-0.000976562 74.001c80.667 59.333 159.334 125.666 236.001 198.999c44 42.667 74.667 80.667 92 114s26 70.666 26 111.999c0 42.667 -11.167 75.5 -33.5 98.5s-53.5 34.5 -93.5 34.5s-71.667 -11.333 -95 -34s-35 -53 -35 -91c0 -16 2.66699 -37.333 8 -64
l-90 9c-4.66699 18.667 -7 37.334 -7 56.001c0 62 20 111.167 60 147.5s94.667 54.5 164 54.5c68 0 121 -18.167 159 -54.5s57 -88.166 57 -155.499c0 -48.667 -12.5 -95.334 -37.5 -140.001s-64.5 -92 -118.5 -142c-53.333 -49.333 -110.333 -95 -171 -137h335v-81h-456z
" />
    <glyph glyph-name="three" unicode="3" horiz-adv-x="567" 
d="M281 -15c-72.667 0 -131.333 19.3291 -176 57.9961s-68 90.334 -70 155.001l88 11c2 -46.667 17.333 -83.167 46 -109.5s67 -39.5 115 -39.5c95.333 0 143 45 143 135c0 86 -52 129 -156 129h-39v74h35c45.333 0 79.333 10.5 102 31.5s34 50.5 34 88.5
c0 36.667 -11.333 65.334 -34 86.001s-54.667 31 -96 31c-45.333 0 -80.166 -13.667 -104.499 -41s-36.5 -66.666 -36.5 -117.999l-84 18c0 66.667 20.5 119.334 61.5 158.001s97.167 58 168.5 58c68 0 120.833 -16.167 158.5 -48.5s56.5 -76.833 56.5 -133.5
c0 -40 -11.333 -74.333 -34 -103s-53.334 -47.667 -92.001 -57c100 -17.333 150 -74.333 150 -171c0 -66 -21.167 -117.833 -63.5 -155.5s-99.833 -56.5 -172.5 -56.5z" />
    <glyph glyph-name="four" unicode="4" horiz-adv-x="585" 
d="M550 176h-114v-176h-85v176h-326v61l311 458h100v-449h114v-70zM351 501c0 46.667 0.666992 81.999 2 105.999h-2c-10 -26 -26.667 -56.333 -50 -91l-119 -179c-26 -39.333 -48 -69.666 -66 -90.999h235v255z" />
    <glyph glyph-name="five" unicode="5" horiz-adv-x="565" 
d="M279 -15c-61.333 0 -112.499 16.665 -153.499 49.998s-66.167 78.333 -75.5 135l93 11c7.33301 -36 23 -64.833 47 -86.5s55.333 -32.5 94 -32.5c46 0 81.833 14.5 107.5 43.5s38.5 69.167 38.5 120.5c0 53.333 -12.333 95.5 -37 126.5s-60.334 46.5 -107.001 46.5
c-72.667 0 -119 -38.667 -139 -116l-86 9l41 403h384v-78h-316l-26 -236c33.333 62 88 93 164 93c66 0 117.833 -21.667 155.5 -65s56.5 -102.666 56.5 -177.999c0 -73.333 -21.833 -132.666 -65.5 -177.999s-102.167 -68 -175.5 -68z" />
    <glyph glyph-name="six" unicode="6" horiz-adv-x="569" 
d="M314 464c65.333 0 117.5 -21.499 156.5 -64.499s58.5 -100.5 58.5 -172.5s-21 -130.333 -63 -175s-97.333 -67 -166 -67c-166.667 0 -250 115.667 -250 347c0 121.333 22.333 214.666 67 279.999s108.667 98 192 98c58 0 105.167 -14.833 141.5 -44.5
s59.833 -72.167 70.5 -127.5l-90 -20c-16 78 -57 117 -123 117c-109.333 0 -166 -90.667 -170 -272c16 32 39.333 56.833 70 74.5s66 26.5 106 26.5zM301 60.001c42 0 75.5 14.999 100.5 44.999s37.5 70.333 37.5 121c0 50 -12.833 89.667 -38.5 119s-60.167 44 -103.5 44
c-38 0 -70.5 -12.167 -97.5 -36.5s-46.5 -59.166 -58.5 -104.499c5.33301 -57.333 22.333 -103 51 -137s65 -51 109 -51z" />
    <glyph glyph-name="seven" unicode="7" horiz-adv-x="490" 
d="M130 0l0.000976562 10c0 199.333 81 400 243 602h-348v83h450v-70c-80.667 -90 -141.834 -187.5 -183.501 -292.5s-62.5 -210.167 -62.5 -315.5v-17h-99z" />
    <glyph glyph-name="eight" unicode="8" horiz-adv-x="578" 
d="M392 373c51.333 -18.667 88.502 -42.834 111.502 -72.501s34.5 -67.834 34.5 -114.501c0 -60.667 -22.333 -109.334 -67 -146.001s-104.334 -55 -179.001 -55c-76 0 -137 17.833 -183 53.5s-69 82.834 -69 141.501c0 94.667 47 156.334 141 185.001
c-40 18 -69.167 40.333 -87.5 67s-27.5 59.667 -27.5 99c0 53.333 20.667 96.5 62 129.5s95.333 49.5 162 49.5c67.333 0 121.166 -16 161.499 -48s60.5 -75 60.5 -129c0 -81.333 -40 -134.666 -120 -159.999zM287.002 642c-40.667 0 -72.666 -9.83203 -95.999 -29.499
s-35 -46.834 -35 -81.501c0 -30 9.33301 -54.5 28 -73.5s48.667 -34.833 90 -47.5l35 -11c42 16 71.333 33.667 88 53s25 45 25 77c0 35.333 -11.833 63 -35.5 83s-56.834 30 -99.501 30zM292.003 57.001c48.667 0 86.832 11.332 114.499 33.999s41.5 54.334 41.5 95.001
c0 32 -9.66699 58.333 -29 79s-50.666 38 -93.999 52l-66 21c-46 -16 -78.833 -35.333 -98.5 -58s-29.5 -51.667 -29.5 -87c0 -40.667 14.667 -73.5 44 -98.5s68.333 -37.5 117 -37.5z" />
    <glyph glyph-name="nine" unicode="9" horiz-adv-x="571" 
d="M272 710c166 0 249 -116.334 249 -349.001c0 -74 -8 -138.167 -24 -192.5s-42.833 -98.5 -80.5 -132.5s-85.167 -51 -142.5 -51c-63.333 0 -114 15.667 -152 47s-62.667 76.333 -74 135l90 20c15.333 -84.667 61 -127 137 -127c102 0 154 96 156 288
c-34.667 -59.333 -90.667 -89 -168 -89c-66 0 -119.667 19.5 -161 58.5s-62 93.833 -62 164.5c0 66.667 21.333 121.334 64 164.001s98.667 64 168 64zM272 333.999c37.333 0 70.835 12.5 100.502 37.5s48.5 56.167 56.5 93.5c-5.33301 48.667 -20.333 89.167 -45 121.5
s-62.334 48.5 -113.001 48.5c-42.667 0 -76.834 -14 -102.501 -42s-38.5 -64.667 -38.5 -110c0 -46 13.167 -82.333 39.5 -109s60.5 -40 102.5 -40z" />
    <glyph glyph-name="colon" unicode=":" horiz-adv-x="257" 
d="M187 500v-118h-117v118h117zM187 118v-118h-117v118h117z" />
    <glyph glyph-name="semicolon" unicode=";" horiz-adv-x="257" 
d="M187 500v-118h-117v118h117zM97 -140l-23 44.001c24 10.667 40 22.5 48 35.5s12 32.167 12 57.5v3h-64v118h117v-111c0 -40.667 -6.5 -71.834 -19.5 -93.501s-36.5 -39.5 -70.5 -53.5z" />
    <glyph glyph-name="less" unicode="&#x3c;" 
d="M522 85l-465 205v72l465 205v-79l-371 -161l371 -161v-81z" />
    <glyph glyph-name="equal" unicode="=" horiz-adv-x="570" 
d="M50 384v80h470v-80h-470zM50 194v80h470v-80h-470z" />
    <glyph glyph-name="greater" unicode="&#x3e;" 
d="M98 85v81l371 161l-371 161v79l465 -205v-72z" />
    <glyph glyph-name="question" unicode="?" horiz-adv-x="468" 
d="M183 186v42.001c0 14.667 0.833008 27.167 2.5 37.5s7 24 16 41s21.833 33.5 38.5 49.5l49 46c46 43.333 69 88.333 69 135c0 34.667 -11 62 -33 82s-52.667 30 -92 30c-40 0 -72.167 -11.833 -96.5 -35.5s-36.5 -56.5 -36.5 -98.5c0 -16.667 2 -34.334 6 -53.001l-91 11
c-3.33301 17.333 -5 35.333 -5 54c0 60 19.667 108.333 59 145s95 55 167 55c68.667 0 122 -16.5 160 -49.5s57 -79.833 57 -140.5c0 -58 -31.333 -116.333 -94 -175l-50 -47c-15.333 -14 -26 -28.333 -32 -43s-9 -34 -9 -58v-28h-85zM174 0.000976562v106h105v-106h-105z
" />
    <glyph glyph-name="at" unicode="@" horiz-adv-x="828" 
d="M424 -102c-114.667 0 -206.498 34.5 -275.498 103.5s-103.5 160.5 -103.5 274.5c0 113.333 34.5 205.666 103.5 276.999s161.833 107 278.5 107c112 0 199.333 -33.167 262 -99.5s94 -154.5 94 -264.5c0 -68 -13.833 -122.333 -41.5 -163s-64.834 -61 -111.501 -61
c-55.333 0 -90.666 25.667 -105.999 77c-12.667 -25.333 -31.5 -45.5 -56.5 -60.5s-52.5 -22.5 -82.5 -22.5c-42 0 -76.5 11 -103.5 33s-40.5 50.333 -40.5 85c0 36.667 13.5 65.334 40.5 86.001s69.5 35.334 127.5 44.001l107 15v7c0 37.333 -6.33301 63.333 -19 78
s-35.334 22 -68.001 22c-58 0 -89.667 -25.333 -95 -76h-77c3.33301 42 20.666 75.5 51.999 100.5s72 37.5 122 37.5c55.333 0 95.166 -13.333 119.499 -40s36.5 -70.334 36.5 -131.001v-112c0 -30.667 3.83301 -52.667 11.5 -66s20.5 -20 38.5 -20
c23.333 0 42.166 15 56.499 45s21.5 70 21.5 120c0 95.333 -24.167 170.333 -72.5 225s-119.166 82 -212.499 82c-99.333 0 -176.666 -29.667 -231.999 -89s-83 -138 -83 -236c0 -94.667 29.167 -171.167 87.5 -229.5s134.833 -87.5 229.5 -87.5c66 0 128 13 186 39l28 -53
c-62.667 -31.333 -136.667 -47 -222 -47zM395.002 127c36 0 65.167 11.668 87.5 35.001s33.5 53.666 33.5 90.999v22l-90 -13c-38 -5.33301 -65 -13.833 -81 -25.5s-24 -28.5 -24 -50.5c0 -17.333 7 -31.5 21 -42.5s31.667 -16.5 53 -16.5z" />
    <glyph glyph-name="A" unicode="A" horiz-adv-x="672" 
d="M554 0l-73 205h-290l-73 -205h-98l269 710h94l269 -710h-98zM219 285h234l-99 277c-7.33301 20 -13 38 -17 54h-2c-4 -16 -9.66699 -34 -17 -54z" />
    <glyph glyph-name="B" unicode="B" horiz-adv-x="658" 
d="M464 367c43.333 -7.33301 77.333 -26.1641 102 -56.4971s37 -68.833 37 -115.5c0 -24.667 -4 -47.834 -12 -69.501s-20.5 -42.167 -37.5 -61.5s-41.5 -34.833 -73.5 -46.5s-69.333 -17.5 -112 -17.5h-268v710h247c44.667 0 83.167 -5.66699 115.5 -17
s56.833 -26.833 73.5 -46.5s28.667 -39.834 36 -60.501s11 -42.334 11 -65.001c0 -35.333 -10.167 -67 -30.5 -95s-49.833 -47.667 -88.5 -59zM347 630.002h-152v-228h152c94.667 0 142 37.333 142 112c0 77.333 -47.333 116 -142 116zM363 80.002
c51.333 0 88.5 11.667 111.5 35s34.5 53 34.5 89c0 35.333 -11.167 63.833 -33.5 85.5s-56.5 32.5 -102.5 32.5h-178v-242h168z" />
    <glyph glyph-name="C" unicode="C" horiz-adv-x="694" 
d="M365 -17c-104.667 0 -184.166 35 -238.499 105s-81.5 159.667 -81.5 269c0 112 28 201.667 84 269s135.667 101 239 101c83.333 0 148.666 -22.333 195.999 -67s75.666 -105.334 84.999 -182.001l-97 -10c-7.33301 54.667 -27.166 98 -59.499 130s-75.5 48 -129.5 48
c-68.667 0 -122.167 -26.167 -160.5 -78.5s-57.5 -122.166 -57.5 -209.499c0 -86 19.167 -156.167 57.5 -210.5s92.5 -81.5 162.5 -81.5c50 0 92 15.5 126 46.5s56 73.167 66 126.5l92 -16c-14.667 -72 -45.5 -130 -92.5 -174s-110.833 -66 -191.5 -66z" />
    <glyph glyph-name="D" unicode="D" horiz-adv-x="715" 
d="M100 0l0.000976562 710h233c101.333 0 182.833 -32.5 244.5 -97.5s92.5 -150.5 92.5 -256.5c0 -104.667 -30.833 -190.167 -92.5 -256.5s-143.834 -99.5 -246.501 -99.5h-231zM195.001 80l134 -0.000976562c74 0 132.5 26.333 175.5 79s64.5 118.334 64.5 197.001
c0 81.333 -21 147.333 -63 198s-100.333 76 -175 76h-136v-550z" />
    <glyph glyph-name="E" unicode="E" horiz-adv-x="612" 
d="M195 80h352v-80h-447v710h440v-80h-345v-226h328v-80h-328v-244z" />
    <glyph glyph-name="F" unicode="F" horiz-adv-x="580" 
d="M540 630h-345v-226h328v-80h-328v-324h-95v710h440v-80z" />
    <glyph glyph-name="G" unicode="G" horiz-adv-x="721" 
d="M356 -17c-95.333 0 -171.002 34.668 -227.002 104.001s-84 158.666 -84 267.999c0 111.333 28.833 201.166 86.5 269.499s137.834 102.5 240.501 102.5c37.333 0 71.333 -5 102 -15s55.667 -22.5 75 -37.5s36 -32.667 50 -53s24.167 -39.333 30.5 -57
s10.833 -35.167 13.5 -52.5l-94 -13c-6.66699 38.667 -24.167 73 -52.5 103s-70.833 45 -127.5 45c-71.333 0 -127 -26.833 -167 -80.5s-60 -124.5 -60 -212.5c0 -85.333 19.5 -155 58.5 -209s95.5 -81 169.5 -81c33.333 0 62.666 5.33301 87.999 16
s44.833 23.834 58.5 39.501s24.834 34 33.501 55s14.334 39.667 17.001 56s4 32.5 4 48.5v12h-208v80h293v-371h-69l-13 114c-16 -39.333 -43.333 -71 -82 -95s-84 -36 -136 -36z" />
    <glyph glyph-name="H" unicode="H" horiz-adv-x="748" 
d="M648 710v-710h-95v323h-358v-323h-95v710h95v-307h358v307h95z" />
    <glyph glyph-name="I" unicode="I" horiz-adv-x="295" 
d="M195 0h-95v710h95v-710z" />
    <glyph glyph-name="J" unicode="J" horiz-adv-x="394" 
d="M309 186c0 -73.333 -19.167 -125.499 -57.5 -156.499s-87.833 -46.5 -148.5 -46.5c-39.333 0 -67 2.33301 -83 7v88c18.667 -3.33301 46.667 -5 84 -5c33.333 0 60 8.66699 80 26s30 48.666 30 93.999v517h95v-524z" />
    <glyph glyph-name="K" unicode="K" horiz-adv-x="668" 
d="M537 0l-237 358l-105 -116v-242h-95v710h95v-352l312 352h119l-255 -278l-6 -6l283 -426h-111z" />
    <glyph glyph-name="L" unicode="L" horiz-adv-x="543" 
d="M100 0v710h95v-630h328v-80h-423z" />
    <glyph glyph-name="M" unicode="M" horiz-adv-x="884" 
d="M100 0v710h135l188 -546c9.33301 -27.333 15.333 -49.666 18 -66.999h2c2.66699 17.333 8.66699 39.666 18 66.999l188 546h135v-710h-87v548c0 30 1.33301 55.333 4 76h-4c-4 -26.667 -11 -53.667 -21 -81l-188 -543h-92l-188 543c-10 27.333 -17 54.333 -21 81h-4
c2.66699 -20.667 4 -46 4 -76v-548h-87z" />
    <glyph glyph-name="N" unicode="N" horiz-adv-x="744" 
d="M100 0v710h115l301 -517c20 -34.667 34.667 -65 44 -91h2c-2 24.667 -3 56 -3 94v514h85v-710h-115l-301 517c-21.333 37.333 -36 67.666 -44 90.999h-2c2 -25.333 3 -56.666 3 -93.999v-514h-85z" />
    <glyph glyph-name="O" unicode="O" horiz-adv-x="739" 
d="M370 -17c-98.667 0 -177.5 33.6689 -236.5 101.002s-88.5 157.666 -88.5 270.999c0 115.333 29.333 206.166 88 272.499s137.667 99.5 237 99.5c98.667 0 177.334 -33.167 236.001 -99.5s88 -157.166 88 -272.499c0 -114.667 -29.333 -205.334 -88 -272.001
s-137.334 -100 -236.001 -100zM370 63.002c70.667 0 125.667 25.833 165 77.5s59 123.167 59 214.5s-19.667 162.833 -59 214.5s-94.333 77.5 -165 77.5s-125.834 -25.833 -165.501 -77.5s-59.5 -123.167 -59.5 -214.5c0 -90 19.833 -161.167 59.5 -213.5
s94.834 -78.5 165.501 -78.5z" />
    <glyph glyph-name="P" unicode="P" horiz-adv-x="613" 
d="M352 710c73.333 0 131.833 -19 175.5 -57s65.5 -89 65.5 -153s-21.833 -115 -65.5 -153s-102.167 -57 -175.5 -57h-157v-290h-95v710h252zM342 370c46 0 82.667 11.833 110 35.5s41 55.167 41 94.5s-13.667 70.833 -41 94.5s-64 35.5 -110 35.5h-147v-260h147z" />
    <glyph glyph-name="Q" unicode="Q" horiz-adv-x="739" 
d="M492 4c30.667 -34.667 71.332 -51.999 121.999 -51.999c14 0 31 2.33301 51 7v-83c-32 -4 -54.667 -6 -68 -6c-44.667 0 -83.167 10.167 -115.5 30.5s-56.833 48.5 -73.5 84.5c-16 -1.33301 -28.667 -2 -38 -2c-98.667 0 -177.5 33.667 -236.5 101
s-88.5 157.666 -88.5 270.999c0 115.333 29.333 206.166 88 272.499s137.667 99.5 237 99.5c98.667 0 177.334 -33.167 236.001 -99.5s88 -157.166 88 -272.499c0 -88 -17.833 -162.5 -53.5 -223.5s-85.167 -103.5 -148.5 -127.5zM144.998 355.001
c0 -90 19.833 -161.167 59.5 -213.5s94.834 -78.5 165.501 -78.5s125.667 25.833 165 77.5s59 123.167 59 214.5s-19.667 162.833 -59 214.5s-94.333 77.5 -165 77.5s-125.834 -25.833 -165.501 -77.5s-59.5 -123.167 -59.5 -214.5z" />
    <glyph glyph-name="R" unicode="R" horiz-adv-x="665" 
d="M513 0l-174 294.999h-144v-295h-95v710h263c44.667 0 83 -5.83301 115 -17.5s56.333 -27.667 73 -48s28.667 -42.166 36 -65.499s11 -49 11 -77c0 -44.667 -12.833 -85 -38.5 -121s-66.167 -60.333 -121.5 -73l182 -308h-107zM195 629.999v-255h157
c97.333 0 146 42.333 146 127c0 85.333 -48.667 128 -146 128h-157z" />
    <glyph glyph-name="S" unicode="S" horiz-adv-x="614" 
d="M315 -17c-86.667 0 -154.332 20.835 -202.999 62.502s-76 96.834 -82 165.501l96 14c7.33301 -48 26.5 -87.333 57.5 -118s75.833 -46 134.5 -46c44 0 81.333 10 112 30s46 50.667 46 92c0 39.333 -11 68.166 -33 86.499s-56 32.166 -102 41.499l-103 21
c-118.667 24.667 -178 90 -178 196c0 60 22.333 108.167 67 144.5s104.667 54.5 180 54.5c74 0 134.667 -17 182 -51s74.333 -84.333 81 -151l-95 -20c-12.667 98 -69.334 147 -170.001 147c-44 0 -79.5 -10.333 -106.5 -31s-40.5 -48.667 -40.5 -84
c0 -34 9.33301 -60.667 28 -80s48 -33.333 88 -42l104 -22c62 -12.667 110.167 -34.334 144.5 -65.001s51.5 -76 51.5 -136c0 -59.333 -22.167 -109 -66.5 -149s-108.5 -60 -192.5 -60z" />
    <glyph glyph-name="T" unicode="T" horiz-adv-x="561" 
d="M551 710v-80h-223v-630h-95v630h-223v80h541z" />
    <glyph glyph-name="U" unicode="U" horiz-adv-x="716" 
d="M85 710h95.002v-456c0 -58 15.5 -103.667 46.5 -137s74.833 -50 131.5 -50s100.5 16.667 131.5 50s46.5 79 46.5 137v456h95v-462c0 -80.667 -23.833 -145 -71.5 -193s-114.834 -72 -201.501 -72s-153.834 24 -201.501 72s-71.5 112.333 -71.5 193v462z" />
    <glyph glyph-name="V" unicode="V" horiz-adv-x="606" 
d="M251 0l-246 710h100l170 -522c12 -35.333 20.667 -67.333 26 -96h4c5.33301 28.667 14 60.667 26 96l170 522h100l-246 -710h-104z" />
    <glyph glyph-name="W" unicode="W" horiz-adv-x="912" 
d="M194 0l-169.002 710h97l123 -572c2.66699 -14 4.66699 -27 6 -39h3c0.666992 8 3.33398 21 8.00098 39l146 572h96l146 -572c4.66699 -18 7.33398 -31 8.00098 -39h3c1.33301 12 3.33301 25 6 39l123 572h97l-169 -710h-116l-138 554
c-3.33301 13.333 -5.33301 24.333 -6 33h-4c-0.666992 -8.66699 -2.66699 -19.667 -6 -33l-138 -554h-116z" />
    <glyph glyph-name="X" unicode="X" horiz-adv-x="640" 
d="M15 0l248 375.001l-225 335h111l149 -233c12 -19.333 19.667 -33.333 23 -42h2c3.33301 8 11 21.667 23 41l148 234h105l-223 -343l249 -367h-112l-162 252c-18 28 -29 46.667 -33 56h-2c-5.33301 -12.667 -16.333 -31.334 -33 -56.001l-161 -252h-107z" />
    <glyph glyph-name="Y" unicode="Y" horiz-adv-x="578" 
d="M241 0v283l-241 427h106l163 -301c10 -18.667 16.333 -32.334 19 -41.001h2c2.66699 8.66699 9 22.334 19 41.001l163 301h106l-241 -427v-283h-96z" />
    <glyph glyph-name="Z" unicode="Z" horiz-adv-x="569" 
d="M35 88l399 542h-386v80h487v-88l-400 -542h414v-80h-514v88z" />
    <glyph glyph-name="bracketleft" unicode="[" horiz-adv-x="333" 
d="M100 -114v871h193v-70h-117v-731h117v-70h-193z" />
    <glyph glyph-name="backslash" unicode="\" horiz-adv-x="451" 
d="M327 -117l-282 877h79l282 -877h-79z" />
    <glyph glyph-name="bracketright" unicode="]" horiz-adv-x="333" 
d="M233 -114h-193v70h117v731h-117v70h193v-871z" />
    <glyph glyph-name="asciicircum" unicode="^" horiz-adv-x="400" 
d="M164 709h72l144 -262h-82l-98 190l-98 -190h-82z" />
    <glyph glyph-name="underscore" unicode="_" horiz-adv-x="427" 
d="M0 -97h427v-60h-427v60z" />
    <glyph glyph-name="grave" unicode="`" horiz-adv-x="600" 
d="M244 580h-78l-118 143h104z" />
    <glyph glyph-name="a" unicode="a" horiz-adv-x="539" 
d="M214 -12c-51.333 0 -92.333 13.3311 -123 39.998s-46 62.334 -46 107.001c0 52.667 23.333 92 70 118c36 18 92 31.667 168 41l93 11v8c0 46 -8.66699 79 -26 99s-45.333 30 -84 30c-34 0 -61 -8.66699 -81 -26s-31 -41.666 -33 -72.999h-91
c3.33301 51.333 23.5 92.333 60.5 123s84.833 46 143.5 46c68.667 0 118.667 -16.5 150 -49.5s47 -85.833 47 -158.5v-135c0 -76 5.66699 -132.333 17 -169h-89c-4 28 -6.66699 58.333 -8 91c-11.333 -32 -32 -57.167 -62 -75.5s-65.333 -27.5 -106 -27.5zM233 57.998
c43.333 0 78.167 14.501 104.5 43.501s39.5 67.833 39.5 116.5v25l-136 -20c-36.667 -5.33301 -63.5 -14.833 -80.5 -28.5s-25.5 -32.834 -25.5 -57.501s8.66699 -44 26 -58s41.333 -21 72 -21z" />
    <glyph glyph-name="b" unicode="b" horiz-adv-x="585" 
d="M334 -12c-37.333 0 -69.833 8.83398 -97.5 26.501s-48.167 41.5 -61.5 71.5l-15 -86h-65v725h85v-312c14 29.333 34.667 53.166 62 71.499s59.666 27.5 96.999 27.5c60.667 0 109.334 -24.333 146.001 -73s55 -111.667 55 -189c0 -78.667 -18.833 -142 -56.5 -190
s-87.5 -72 -149.5 -72zM311 63.001c43.333 0 77.333 16.833 102 50.5s37 79.167 37 136.5s-12 102.833 -36 136.5s-58 50.5 -102 50.5c-42 0 -74.833 -15.667 -98.5 -47s-35.5 -74.333 -35.5 -129v-26c0 -52.667 11.833 -94.5 35.5 -125.5s56.167 -46.5 97.5 -46.5z" />
    <glyph glyph-name="c" unicode="c" horiz-adv-x="526" 
d="M275 -12c-70 0 -125.835 23.666 -167.502 70.999s-62.5 111 -62.5 191c0 81.333 20.5 145.333 61.5 192s97.167 70 168.5 70c58.667 0 106 -16 142 -48s57.333 -76.667 64 -134l-87 -10c-4.66699 38 -17.5 67.167 -38.5 87.5s-48.5 30.5 -82.5 30.5
c-43.333 0 -77.166 -16.5 -101.499 -49.5s-36.5 -78.833 -36.5 -137.5c0 -60 12.333 -106.5 37 -139.5s59.334 -49.5 104.001 -49.5c68.667 0 109.667 39.667 123 119l81 -13c-9.33301 -57.333 -31.833 -101.666 -67.5 -132.999s-81.5 -47 -137.5 -47z" />
    <glyph glyph-name="d" unicode="d" horiz-adv-x="585" 
d="M248 -12c-60.667 0 -109.668 24 -147.001 72s-56 111.333 -56 190c0 76.667 19.833 139.5 59.5 188.5s90.834 73.5 153.501 73.5c66.667 0 115.667 -28.667 147 -86v299h85v-725h-80v93c-31.333 -70 -85.333 -105 -162 -105zM270.999 63c41.333 0 74.333 15.833 99 47.5
s37 74.167 37 127.5v23c0 54.667 -12.167 97.667 -36.5 129s-57.5 47 -99.5 47c-42.667 0 -76 -16.5 -100 -49.5s-36 -78.833 -36 -137.5s12 -104.5 36 -137.5s57.333 -49.5 100 -49.5z" />
    <glyph glyph-name="e" unicode="e" horiz-adv-x="535" 
d="M485 285v-59.999h-355c0.666992 -48.667 14.5 -87.834 41.5 -117.501s62.833 -44.5 107.5 -44.5c66 0 110.333 31.667 133 95l70 -31c-35.333 -92.667 -105 -139 -209 -139c-72 0 -128 22.167 -168 66.5s-60 107.5 -60 189.5c0 84 20 149.667 60 197s95.667 71 167 71
c68 0 120.5 -19.333 157.5 -58s55.5 -95 55.5 -169zM399 294.001l-0.00292969 11c0 45.333 -11.167 80 -33.5 104s-54.166 36 -95.499 36c-43.333 0 -77.166 -13.333 -101.499 -40s-37.166 -63.667 -38.499 -111h269z" />
    <glyph glyph-name="f" unicode="f" horiz-adv-x="347" 
d="M322 500l-0.000976562 -70h-125v-430h-85v430h-92v70h92v79c0 46 13.333 82.833 40 110.5s62 41.5 106 41.5c24.667 0 46 -2.33301 64 -7v-73c-20 3.33301 -37.667 5 -53 5c-25.333 0 -43.666 -7.16699 -54.999 -21.5s-17 -36.833 -17 -67.5v-67h125z" />
    <glyph glyph-name="g" unicode="g" horiz-adv-x="530" 
d="M474 508c-38 0 -63 -15.6689 -75 -47.002c30.667 -30.667 46 -70 46 -118c0 -50 -16.667 -91 -50 -123s-78.333 -48 -135 -48c-34.667 0 -66.667 7 -96 21c-24 -10 -36 -26.333 -36 -49c0 -34 27.667 -51 83 -51h122c56 0 98.333 -12.167 127 -36.5
s43 -59.166 43 -104.499c0 -49.333 -20.333 -88.166 -61 -116.499s-103 -42.5 -187 -42.5c-150 0 -225 45.667 -225 137c0 24 7 45.167 21 63.5s34 31.833 60 40.5c-38.667 17.333 -58 46.333 -58 87c0 48.667 23.667 82 71 100c-32.667 31.333 -49 72 -49 122
c0 49.333 16.667 89.833 50 121.5s78.333 47.5 135 47.5c35.333 0 68 -7 98 -21c18 60.667 57.667 91 119 91c12 0 23 -1.33301 33 -4v-74c-13.333 2.66699 -25.333 4 -36 4zM260 236.998c31.333 0 56.667 9.83105 76 29.498s29 44.834 29 75.501
s-9.66699 55.834 -29 75.501s-44.666 29.5 -75.999 29.5c-32 0 -57.5 -9.66699 -76.5 -29s-28.5 -44.333 -28.5 -75s9.66699 -56 29 -76s44.666 -30 75.999 -30zM314.001 17.9961h-106c-10.667 0 -24.667 0.666992 -42 2c-35.333 -16 -53 -41 -53 -75
c0 -54.667 50.667 -82 152 -82c102 0 153 27.667 153 83c0 48 -34.667 72 -104 72z" />
    <glyph glyph-name="h" unicode="h" horiz-adv-x="584" 
d="M95 0v725h85v-319c30.667 72 85.334 108 164.001 108c54 0 95 -17.167 123 -51.5s42 -84.833 42 -151.5v-311h-85v305c0 89.333 -36.333 134 -109 134c-42.667 0 -75.834 -15.5 -99.501 -46.5s-35.5 -74.833 -35.5 -131.5v-261h-85z" />
    <glyph glyph-name="i" unicode="i" horiz-adv-x="265" 
d="M84 593v107h97v-107h-97zM90 0v500h85v-500h-85z" />
    <glyph glyph-name="j" unicode="j" horiz-adv-x="263" 
d="M82 593v107h97v-107h-97zM46 -202c-26 0 -46.3311 1.99902 -60.998 5.99902v73c19.333 -1.33301 35.666 -2 48.999 -2c19.333 0 33.166 5.83301 41.499 17.5s12.5 33.834 12.5 66.501v541h85v-550c0 -101.333 -42.333 -152 -127 -152z" />
    <glyph glyph-name="k" unicode="k" horiz-adv-x="542" 
d="M422 0l-151 245l-91 -92v-153h-85v725h85v-471l224 246h111l-183 -193l195 -307h-105z" />
    <glyph glyph-name="l" unicode="l" horiz-adv-x="275" 
d="M180 725v-725h-85v725h85z" />
    <glyph glyph-name="m" unicode="m" horiz-adv-x="834" 
d="M90 500l79.999 -0.000976562v-87c28 67.333 75.667 101 143 101c70.667 0 118 -34 142 -102c32.667 68 83.334 102 152.001 102c48 0 85.333 -16.333 112 -49s40 -78.334 40 -137.001v-328h-85v321c0 78.667 -31.667 118 -95 118c-35.333 0 -62.833 -12.5 -82.5 -37.5
s-29.5 -60.167 -29.5 -105.5v-296h-85v325c0 36.667 -8.16699 64.834 -24.5 84.501s-39.5 29.5 -69.5 29.5c-34.667 0 -62.167 -13.167 -82.5 -39.5s-30.5 -62.166 -30.5 -107.499v-292h-85v500z" />
    <glyph glyph-name="n" unicode="n" horiz-adv-x="579" 
d="M90 0l-0.000976562 500h80v-99c32.667 75.333 88.334 113 167.001 113c111.333 0 167 -67.667 167 -203v-311h-85v306c0 88.667 -36.667 133 -110 133c-41.333 0 -74 -15.833 -98 -47.5s-36 -75.167 -36 -130.5v-261h-85z" />
    <glyph glyph-name="o" unicode="o" horiz-adv-x="556" 
d="M278 -12c-70.667 0 -127.167 23.5 -169.5 70.5s-63.5 110.833 -63.5 191.5s21.167 144.5 63.5 191.5s98.833 70.5 169.5 70.5s127.167 -23.5 169.5 -70.5s63.5 -110.833 63.5 -191.5s-21.167 -144.5 -63.5 -191.5s-98.833 -70.5 -169.5 -70.5zM278 62
c45.333 0 80.5 16 105.5 48s37.5 78.667 37.5 140s-12.5 108 -37.5 140s-60.167 48 -105.5 48s-80.5 -16 -105.5 -48s-37.5 -78.667 -37.5 -140s12.5 -108 37.5 -140s60.167 -48 105.5 -48z" />
    <glyph glyph-name="p" unicode="p" horiz-adv-x="580" 
d="M90 -195v695h80v-93c32.667 70 87 105 163 105c60.667 0 109.5 -24 146.5 -72s55.5 -111.333 55.5 -190c0 -79.333 -19.167 -142.833 -57.5 -190.5s-88.166 -71.5 -149.499 -71.5c-36.667 0 -68.334 8.66699 -95.001 26s-46 39 -58 65v-274h-85zM308 63
c42.667 0 76.168 16.5 100.501 49.5s36.5 78.833 36.5 137.5s-11.833 104.5 -35.5 137.5s-56.5 49.5 -98.5 49.5s-75.5 -15.5 -100.5 -46.5s-37.5 -73.5 -37.5 -127.5v-24c0 -54 12.167 -96.833 36.5 -128.5s57.166 -47.5 98.499 -47.5z" />
    <glyph glyph-name="q" unicode="q" horiz-adv-x="580" 
d="M405 -195l0.000976562 281c-14 -30.667 -34.333 -54.667 -61 -72s-58 -26 -94 -26c-61.333 0 -110.833 23.833 -148.5 71.5s-56.5 111.167 -56.5 190.5c0 78.667 20 142 60 190s91 72 153 72c69.333 0 119.666 -30.333 150.999 -91l19 79h62v-695h-85zM271.001 63
c41.333 0 74.333 15.332 99 45.999s37 72.667 37 126v28c0 52.667 -12.167 94.834 -36.5 126.501s-57.5 47.5 -99.5 47.5s-75.167 -16.333 -99.5 -49s-36.5 -78.667 -36.5 -138c0 -58 12 -103.667 36 -137s57.333 -50 100 -50z" />
    <glyph glyph-name="r" unicode="r" horiz-adv-x="359" 
d="M169 386c12.667 37.333 32.167 67.667 58.5 91s57.5 35 93.5 35c8 0 14 -0.333008 18 -1v-83h-4c-47.333 0 -84 -13 -110 -39c-14.667 -14.667 -26 -33 -34 -55s-12.667 -41 -14 -57s-2 -37 -2 -63v-214h-85v500h79v-114z" />
    <glyph glyph-name="s" unicode="s" horiz-adv-x="494" 
d="M256 -12c-59.333 0 -107.834 13.3311 -145.501 39.998s-60.834 64.667 -69.501 114l86 15c6 -31.333 20.333 -55.666 43 -72.999s52.334 -26 89.001 -26c32.667 0 58.167 7.16699 76.5 21.5s27.5 32.5 27.5 54.5c0 21.333 -6 37.333 -18 48s-30 18 -54 22l-98 18
c-88.667 16.667 -133 63.334 -133 140.001c0 44 17.167 80 51.5 108s80.5 42 138.5 42c56 0 101.833 -12 137.5 -36s55.834 -57 60.501 -99l-84 -19c-6 26 -19 46.667 -39 62s-46.333 23 -79 23c-32 0 -57.167 -6.66699 -75.5 -20s-27.5 -32.333 -27.5 -57
c0 -38 25.667 -61.667 77 -71l97 -18c86.667 -16.667 130 -62 130 -136c0 -46 -16.833 -83 -50.5 -111s-80.5 -42 -140.5 -42z" />
    <glyph glyph-name="t" unicode="t" horiz-adv-x="353" 
d="M15 430v70.001h93v131l85 36v-167h125v-70h-125v-277c0 -28.667 5.83301 -49.5 17.5 -62.5s30.167 -19.5 55.5 -19.5c14.667 0 32 2.33301 52 7v-78c-22 -6 -46.667 -9 -74 -9c-50.667 0 -86 13.667 -106 41s-30 66.666 -30 117.999v280h-93z" />
    <glyph glyph-name="u" unicode="u" horiz-adv-x="571" 
d="M246 -12c-114 0 -171 64.333 -171 193v319h85v-309c0 -42 8.83301 -74.167 26.5 -96.5s42.834 -33.5 75.501 -33.5c40 0 72.333 15.667 97 47s37 72.333 37 123v269h85v-500h-80v94c-11.333 -30.667 -31.333 -56 -60 -76s-60.334 -30 -95.001 -30z" />
    <glyph glyph-name="v" unicode="v" horiz-adv-x="473" 
d="M191 0l-181 500h92l112 -337c8.66699 -26 15.667 -51.333 21 -76h3c5.33301 24.667 12.333 50 21 76l112 337h92l-181 -500h-91z" />
    <glyph glyph-name="w" unicode="w" horiz-adv-x="732" 
d="M166 0l-141.002 500h88l90 -357c4.66699 -20 8.33398 -39.667 11.001 -59h2c0 1.33301 4.33301 21 13 59l91 357h92l91 -357c8.66699 -38 13 -57.667 13 -59h2c2.66699 19.333 6.33398 39 11.001 59l90 357h88l-141 -500h-93l-95 360c-5.33301 20 -9 38.667 -11 56h-2
c-2 -17.333 -5.66699 -36 -11 -56l-95 -360h-93z" />
    <glyph glyph-name="x" unicode="x" horiz-adv-x="495" 
d="M15 0l181 258l-168 242h100l91 -141c16.667 -26 26.334 -43.333 29.001 -52h1c4 10.667 13.333 28 28 52l86 141h104l-165 -248l178 -252h-101l-103 154c-16 24.667 -25.333 41.667 -28 51h-1c-2.66699 -8.66699 -12.334 -25.667 -29.001 -51l-102 -154h-101z" />
    <glyph glyph-name="y" unicode="y" horiz-adv-x="487" 
d="M92 -201c-16.667 0 -32 1.33398 -46 4.00098v75c17.333 -1.33301 29.333 -2 36 -2c30 0 53.667 7.16699 71 21.5s31.666 38.166 42.999 71.499l13 37l-199 494h95l128 -348c7.33301 -20 13 -39.667 17 -59h2c2.66699 12 8.33398 31.667 17.001 59l116 348h92l-195 -532
c-22 -61.333 -48.167 -104.833 -78.5 -130.5s-67.5 -38.5 -111.5 -38.5z" />
    <glyph glyph-name="z" unicode="z" horiz-adv-x="455" 
d="M35 65l273 363h-263v72h365v-63l-270 -364h285v-73h-390v65z" />
    <glyph glyph-name="braceleft" unicode="{" horiz-adv-x="354" 
d="M269 -116c-42.667 0 -76.5 13 -101.5 39s-37.5 60 -37.5 102v160c0 18.667 -0.666992 33.334 -2 44.001s-4.16602 21.667 -8.49902 33s-11.333 19.5 -21 24.5s-22.5 7.83301 -38.5 8.5v68c21.333 0.666992 37.166 5.66699 47.499 15s16.5 20.333 18.5 33s3 32 3 58v160
c0 42 13.833 76.167 41.5 102.5s65.834 39.5 114.501 39.5h26v-61h-16c-28 0 -49.333 -8.5 -64 -25.5s-22 -39.167 -22 -66.5v-139c0 -82.667 -24 -132.334 -72 -149.001c47.333 -20 71 -72 71 -156v-138c0 -28 7.16699 -50.167 21.5 -66.5s34.166 -24.5 59.499 -24.5h25
v-61h-45z" />
    <glyph glyph-name="bar" unicode="|" horiz-adv-x="262" 
d="M95 -117v877h72v-877h-72z" />
    <glyph glyph-name="braceright" unicode="}" horiz-adv-x="354" 
d="M85 -116h-44.999v61h25c25.333 0 45.166 8.16699 59.499 24.5s21.5 38.5 21.5 66.5v138c0 84 23.667 136 71 156c-48 16.667 -72 66.334 -72 149.001v139c0 27.333 -7.33301 49.5 -22 66.5s-36 25.5 -64 25.5h-16v61h26c48.667 0 86.834 -13.167 114.501 -39.5
s41.5 -60.5 41.5 -102.5v-160c0 -26 1 -45.333 3 -58s8.16699 -23.667 18.5 -33s26.166 -14.333 47.499 -15v-68c-30 -0.666992 -49.167 -9.83398 -57.5 -27.501s-12.5 -45.167 -12.5 -82.5v-160c0 -42 -12.5 -76 -37.5 -102s-58.833 -39 -101.5 -39z" />
    <glyph glyph-name="asciitilde" unicode="~" 
d="M407 237c-20.667 0 -40.834 4.16699 -60.501 12.5s-35.834 17.333 -48.501 27s-26.834 18.667 -42.501 27s-30.167 12.5 -43.5 12.5c-37.333 0 -62.666 -22.667 -75.999 -68l-70 12c9.33301 40.667 26.833 72.334 52.5 95.001s57.167 34 94.5 34
c20.667 0 40.834 -4.16699 60.501 -12.5s35.834 -17.333 48.501 -27s26.834 -18.667 42.501 -27s30.167 -12.5 43.5 -12.5c37.333 0 62.666 22.667 75.999 68l70 -12c-9.33301 -40.667 -26.833 -72.334 -52.5 -95.001s-57.167 -34 -94.5 -34z" />
    <glyph glyph-name="uni00A0" unicode="&#xa0;" horiz-adv-x="260" 
 />
    <glyph glyph-name="exclamdown" unicode="&#xa1;" horiz-adv-x="310" 
d="M208 474h-106v106h106v-106zM125 398h60l25 -543h-110z" />
    <glyph glyph-name="cent" unicode="&#xa2;" horiz-adv-x="549" 
d="M312 60c31.333 3.33301 56.668 14.3311 76.001 32.998s31.333 43.667 36 75l79 -15c-9.33301 -48.667 -30.5 -87.167 -63.5 -115.5s-75.5 -44.5 -127.5 -48.5v-78h-60v79c-64.667 7.33301 -115.334 34 -152.001 80s-55 106.333 -55 181c0 75.333 18 135.5 54 180.5
s87 71.167 153 78.5v84h60v-83c54 -3.33301 98 -20.166 132 -50.499s54 -70.166 60 -119.499l-82 -11c-11.333 64.667 -48 101 -110 109v-379zM131.002 251.998c0 -54 10.5 -97.5 31.5 -130.5s50.833 -53.167 89.5 -60.5v377c-38.667 -7.33301 -68.5 -27 -89.5 -59
s-31.5 -74.333 -31.5 -127z" />
    <glyph glyph-name="sterling" unicode="&#xa3;" horiz-adv-x="607" 
d="M517 171l79.998 -16c-7.33301 -53.333 -26.666 -95 -57.999 -125s-71 -45 -119 -45c-28.667 0 -65.167 4.33301 -109.5 13s-83.833 13 -118.5 13c-48 0 -99 -6.33301 -153 -19l-19 63c94.667 32 142 94 142 186c0 29.333 -2.33301 59.666 -7 90.999h-110v63h97
c-8.66699 42 -13 77.333 -13 106c0 64 18.833 114.833 56.5 152.5s89.5 56.5 155.5 56.5c112 0 180.667 -50.333 206 -151l-88 -22c-16 65.333 -55.667 98 -119 98c-77.333 0 -116 -43.667 -116 -131c0 -30.667 4.33301 -67 13 -109h191v-63h-180c4 -22 6 -46.333 6 -73
c0 -84 -33.333 -144 -100 -180c18.667 4.66699 43.334 7 74.001 7c24 0 55.667 -2.83301 95 -8.5s71.333 -8.5 96 -8.5c27.333 0 49.5 8.83301 66.5 26.5s27.5 42.834 31.5 75.501z" />
    <glyph glyph-name="currency" unicode="&#xa4;" horiz-adv-x="548" 
d="M499 303c0 -58.667 -16.332 -108.001 -48.999 -148.001l53 -59l-40 -36l-53 57c-38.667 -26.667 -82.667 -40 -132 -40c-52 0 -97.667 14.333 -137 43l-56 -61l-40 36l58 63c-31.333 40.667 -47 89 -47 145c0 56.667 15.667 105.334 47 146.001l-58 63l40 36l58 -61
c37.333 28 82.333 42 135 42c49.333 0 92.666 -13 129.999 -39l55 59l40 -36l-55 -60c34 -41.333 51 -91.333 51 -150zM278.001 147.999c42 0 76.333 14.5 103 43.5s40 66.167 40 111.5s-13.333 82.5 -40 111.5s-61 43.5 -103 43.5s-76.5 -14.5 -103.5 -43.5
s-40.5 -66.167 -40.5 -111.5s13.5 -82.5 40.5 -111.5s61.5 -43.5 103.5 -43.5z" />
    <glyph glyph-name="yen" unicode="&#xa5;" horiz-adv-x="525" 
d="M525 695l-213 -354h171v-60h-175v-48h175v-60h-175v-173h-91v173h-175v60h175v48h-175v60h171l-213 354h101l112 -195c22 -37.333 38 -69 48 -95h3c10 26 26 57.667 48 95l112 195h101z" />
    <glyph glyph-name="brokenbar" unicode="&#xa6;" horiz-adv-x="261" 
d="M166 760v-378h-71v378h71zM166 261v-378h-71v378h71z" />
    <glyph glyph-name="section" unicode="&#xa7;" horiz-adv-x="502" 
d="M462 281c0 -46 -17.6689 -82.998 -53.002 -110.998c22 -26 33 -57 33 -93c0 -49.333 -17.667 -88 -53 -116s-84 -42 -146 -42c-61.333 0 -110.333 13.5 -147 40.5s-58.667 65.833 -66 116.5l78 15c14 -67.333 60.667 -101 140 -101c34.667 0 61.5 7 80.5 21
s28.5 34 28.5 60c0 20.667 -5.83301 37.167 -17.5 49.5s-33.167 24.833 -64.5 37.5l-112 45c-45.333 18.667 -78.166 40 -98.499 64s-30.5 53.667 -30.5 89c0 45.333 19.667 79.666 59 102.999c-28 26 -42 60 -42 102c0 46.667 17.5 84 52.5 112s81.5 42 139.5 42
c54.667 0 99.167 -12.833 133.5 -38.5s54.833 -61.167 61.5 -106.5l-84 -20c-7.33301 64 -45.666 96 -114.999 96c-32 0 -57.333 -6.83301 -76 -20.5s-28 -32.167 -28 -55.5s6.83301 -41.333 20.5 -54s41.167 -27 82.5 -43l105 -40c79.333 -30.667 119 -81.334 119 -152.001
zM249.998 256.002l72 -29c16 -6.66699 29 -13 39 -19c12.667 17.333 19 36.333 19 57c0 25.333 -8 45.5 -24 60.5s-47.667 32.167 -95 51.5l-96 39c-5.33301 2 -13.333 5.66699 -24 11c-16 -16 -24 -35 -24 -57c0 -25.333 8 -44.833 24 -58.5s52.333 -32.167 109 -55.5z" />
    <glyph glyph-name="dieresis" unicode="&#xa8;" horiz-adv-x="600" 
d="M50 596v103h97v-103h-97zM253 596v103h97v-103h-97z" />
    <glyph glyph-name="copyright" unicode="&#xa9;" horiz-adv-x="836" 
d="M418 -17c-104 0 -192.167 34.167 -264.5 102.5s-108.5 158.166 -108.5 269.499c0 112 36 202 108 270s160.333 102 265 102s193 -34 265 -102s108 -158 108 -270c0 -111.333 -36.167 -201.166 -108.5 -269.499s-160.5 -102.5 -264.5 -102.5zM418 30
c90 0 166 29.833 228 89.5s93 138.167 93 235.5c0 98 -31 176.667 -93 236s-138 89 -228 89s-166 -29.667 -228 -89s-93 -138 -93 -236c0 -97.333 31 -175.833 93 -235.5s138 -89.5 228 -89.5zM420 142c-57.333 0 -102.832 19 -136.499 57s-50.5 89.667 -50.5 155
c0 64.667 16.833 116.5 50.5 155.5s79.167 58.5 136.5 58.5c45.333 0 82.666 -12.5 111.999 -37.5s45 -57.5 47 -97.5l-69 -8c-3.33301 25.333 -12.833 45.5 -28.5 60.5s-36.834 22.5 -63.501 22.5c-36 0 -64.167 -14 -84.5 -42s-30.5 -65.333 -30.5 -112
s10.5 -83.667 31.5 -111s49.5 -41 85.5 -41c24.667 0 45.334 7.5 62.001 22.5s26.667 34.833 30 59.5l69 -10c-6.66699 -40 -24.667 -72 -54 -96s-65 -36 -107 -36z" />
    <glyph glyph-name="ordfeminine" unicode="&#xaa;" horiz-adv-x="437" 
d="M169 301c-38 0 -68.502 9.83398 -91.502 29.501s-34.5 45.167 -34.5 76.5c0 36 13.333 62.167 40 78.5s66 27.833 118 34.5l93 12v9c0 32 -6.16699 54.833 -18.5 68.5s-32.5 20.5 -60.5 20.5c-53.333 0 -81 -24 -83 -72h-78c2.66699 39.333 18.334 70.166 47.001 92.499
s66.667 33.5 114 33.5c54 0 93.333 -12 118 -36s37 -62.333 37 -115v-105c0 -50.667 3.66699 -90 11 -118h-76c-3.33301 20 -5.33301 43.333 -6 70c-8.66699 -24.667 -24.667 -44 -48 -58s-50.666 -21 -81.999 -21zM192.998 354.001c31.333 0 56.333 9.66797 75 29.001
s28 44.666 28 75.999v31l-90 -13c-56.667 -8 -85 -29.667 -85 -65c0 -17.333 6.5 -31.333 19.5 -42s30.5 -16 52.5 -16z" />
    <glyph glyph-name="guillemotleft" unicode="&#xab;" horiz-adv-x="503" 
d="M201 67l-171 208l171 208h90l-165 -208l165 -208h-90zM393 67l-171 208l171 208h90l-165 -208l165 -208h-90z" />
    <glyph glyph-name="logicalnot" unicode="&#xac;" 
d="M67 374h465v-243h-80v163h-385v80z" />
    <glyph glyph-name="registered" unicode="&#xae;" horiz-adv-x="836" 
d="M418 727c104.667 0 193 -34 265 -102s108 -158 108 -270c0 -111.333 -36.167 -201.166 -108.5 -269.499s-160.5 -102.5 -264.5 -102.5s-192.167 34.167 -264.5 102.5s-108.5 158.166 -108.5 269.499c0 112 36 202 108 270s160.333 102 265 102zM418 30
c90 0 166 29.833 228 89.5s93 138.167 93 235.5c0 98 -31 176.667 -93 236s-138 89 -228 89s-166 -29.667 -228 -89s-93 -138 -93 -236c0 -97.333 31 -175.833 93 -235.5s138 -89.5 228 -89.5zM569 445c0 -56 -28.666 -93.668 -85.999 -113.001l102 -176h-76l-92 171h-65
v-171h-66v406h142c45.333 0 80.166 -10.167 104.499 -30.5s36.5 -49.166 36.5 -86.499zM352.001 505.999v-122h76c50.667 0 76 20.333 76 61s-25.333 61 -76 61h-76z" />
    <glyph glyph-name="macron" unicode="&#xaf;" horiz-adv-x="600" 
d="M50 613v68h298v-68h-298z" />
    <glyph glyph-name="degree" unicode="&#xb0;" horiz-adv-x="410" 
d="M205 367c-50.667 0 -92.667 16 -126 48s-50 74.333 -50 127s16.667 95 50 127s75.333 48 126 48s92.667 -16 126 -48s50 -74.333 50 -127s-16.667 -95 -50 -127s-75.333 -48 -126 -48zM205 441c28 0 51.167 9.33301 69.5 28s27.5 43 27.5 73s-9.16699 54.333 -27.5 73
s-41.5 28 -69.5 28s-51.167 -9.33301 -69.5 -28s-27.5 -43 -27.5 -73s9.16699 -54.333 27.5 -73s41.5 -28 69.5 -28z" />
    <glyph glyph-name="plusminus" unicode="&#xb1;" 
d="M351 365h194v-73h-194v-160h-85v160h-191v73h191v161h85v-161zM75 0v80h470v-80h-470z" />
    <glyph glyph-name="acute" unicode="&#xb4;" horiz-adv-x="600" 
d="M48 580l92 143h104l-118 -143h-78z" />
    <glyph glyph-name="uni00B5" unicode="&#xb5;" horiz-adv-x="586" 
d="M411 500h85v-500h-80v94c-11.333 -30.667 -31.333 -56 -60 -76s-60.334 -30 -95.001 -30c-37.333 0 -69.333 7 -96 21v-204h-75v695h85v-309c0 -42 8.83301 -74.167 26.5 -96.5s42.834 -33.5 75.501 -33.5c40 0 72.333 15.667 97 47s37 72.333 37 123v269z" />
    <glyph glyph-name="paragraph" unicode="&#xb6;" horiz-adv-x="657" 
d="M276 361c-154 0 -231 59.333 -231 178c0 43.333 11.5 79 34.5 107s51.333 47.333 85 58s72.5 16 116.5 16h316v-57h-99v-763h-65v763h-92v-763h-65v461z" />
    <glyph glyph-name="periodcentered" unicode="&#xb7;" horiz-adv-x="257" 
d="M187 399v-118h-117v118h117z" />
    <glyph glyph-name="cedilla" unicode="&#xb8;" horiz-adv-x="600" 
d="M121 7h53.001l-35 -56c9.33301 8 23.666 12 42.999 12c22.667 0 40.667 -7 54 -21s20 -32.667 20 -56c0 -25.333 -9.66699 -45.833 -29 -61.5s-44.666 -23.5 -75.999 -23.5c-54.667 0 -88.334 21 -101.001 63l57 10c6.66699 -18.667 20.667 -28 42 -28
c12.667 0 23 3.83301 31 11.5s12 17.5 12 29.5c0 12.667 -3.66699 22.667 -11 30s-17.333 11 -30 11c-14 0 -25.333 -5 -34 -15l-39 12z" />
    <glyph glyph-name="ordmasculine" unicode="&#xba;" horiz-adv-x="445" 
d="M223 301c-54.667 0 -98.334 17 -131.001 51s-49 81 -49 141s16.333 106.833 49 140.5s76.334 50.5 131.001 50.5c54 0 97.333 -16.833 130 -50.5s49 -80.5 49 -140.5s-16.333 -107 -49 -141s-76 -51 -130 -51zM223 358c32.667 0 58 11.5 76 34.5s27 56.5 27 100.5
c0 43.333 -9 76.5 -27 99.5s-43.333 34.5 -76 34.5s-58.167 -11.5 -76.5 -34.5s-27.5 -56.167 -27.5 -99.5c0 -44 9.16699 -77.5 27.5 -100.5s43.833 -34.5 76.5 -34.5z" />
    <glyph glyph-name="guillemotright" unicode="&#xbb;" horiz-adv-x="503" 
d="M110 67h-90l165 208l-165 208h90l171 -208zM302 67h-90l165 208l-165 208h90l171 -208z" />
    <glyph glyph-name="onequarter" unicode="&#xbc;" horiz-adv-x="778" 
d="M106 -17l431 744h74l-430 -744h-75zM119 330l0.000976562 284c-20 -23.333 -47 -35 -81 -35h-11v65h8c49.333 0 81.666 22.333 96.999 67h57v-381h-70zM748.001 89h-62v-89h-69v89h-194v51l187 241h76v-240h62v-52zM617.001 315l-135 -174h135v174z" />
    <glyph glyph-name="onehalf" unicode="&#xbd;" horiz-adv-x="816" 
d="M106 -17l431 744h74l-430 -744h-75zM119 330l0.000976562 284c-20 -23.333 -47 -35 -81 -35h-11v65h8c49.333 0 81.666 22.333 96.999 67h57v-381h-70zM484.001 0l0.000976562 52.002c37.333 22 65.833 39.667 85.5 53s41.167 29.5 64.5 48.5s40.166 37.667 50.499 56
s15.5 37.166 15.5 56.499c0 45.333 -22.667 68 -68 68c-23.333 0 -41.5 -5.83301 -54.5 -17.5s-19.5 -28.5 -19.5 -50.5c0 -7.33301 1.66699 -17 5 -29l-74 6c-2 8.66699 -3 19 -3 31c0 36 13.167 64.333 39.5 85s62.833 31 109.5 31c44 0 78.333 -10.333 103 -31
s37 -49.334 37 -86.001c0 -42.667 -18.833 -83 -56.5 -121s-83.5 -70.667 -137.5 -98h202v-54h-299z" />
    <glyph glyph-name="threequarters" unicode="&#xbe;" horiz-adv-x="882" 
d="M210 -17l431 744h74l-430 -744h-75zM183 322c-46.667 0 -83.499 10.998 -110.499 32.998s-40.833 52 -41.5 90l72 6c0.666992 -23.333 8 -41.666 22 -54.999s33.333 -20 58 -20c51.333 0 77 21.667 77 65c0 37.333 -26.667 56 -80 56h-38v51h35
c22.667 0 40.667 5.16699 54 15.5s20 24.166 20 41.499c0 41.333 -23.333 62 -70 62c-23.333 0 -42 -6.66699 -56 -20s-21 -31.666 -21 -54.999l-71 6c0 37.333 13.667 67 41 89s64.333 33 111 33c44 0 78.167 -9.5 102.5 -28.5s36.5 -45.167 36.5 -78.5
c0 -22 -7.83301 -41.167 -23.5 -57.5s-35.834 -25.833 -60.501 -28.5c29.333 -3.33301 52.666 -13.166 69.999 -29.499s26 -37.5 26 -63.5c0 -34.667 -13.667 -62 -41 -82s-64.666 -30 -111.999 -30zM852.001 88.998h-62v-89h-69v89h-194v51l187 241h76v-240h62v-52z
M721.001 314.998l-135 -174h135v174z" />
    <glyph glyph-name="questiondown" unicode="&#xbf;" horiz-adv-x="468" 
d="M294 580v-106h-105v106h105zM285 394v-42.001c0 -14.667 -0.833008 -27.167 -2.5 -37.5s-7 -24 -16 -41s-21.833 -33.5 -38.5 -49.5l-49 -46c-46 -43.333 -69 -88.333 -69 -135c0 -34.667 11 -62 33 -82s52.667 -30 92 -30c40 0 72.167 11.833 96.5 35.5
s36.5 56.5 36.5 98.5c0 16.667 -2 34.334 -6 53.001l91 -11c3.33301 -17.333 5 -35.333 5 -54c0 -60 -19.667 -108.333 -59 -145s-95 -55 -167 -55c-68.667 0 -122 16.5 -160 49.5s-57 79.833 -57 140.5c0 58 31.333 116.333 94 175l50 47c15.333 14 26 28.333 32 43
s9 34 9 58v28h85z" />
    <glyph glyph-name="Agrave" unicode="&#xc0;" horiz-adv-x="672" 
d="M376 753h-80l-104 108h94zM554 0l-73 205h-290l-73 -205h-98l269 710h94l269 -710h-98zM219 285h234l-99 277c-7.33301 20 -13 38 -17 54h-2c-4 -16 -9.66699 -34 -17 -54z" />
    <glyph glyph-name="Aacute" unicode="&#xc1;" horiz-adv-x="672" 
d="M480 861l-104 -108h-80l90 108h94zM554 0l-73 205h-290l-73 -205h-98l269 710h94l269 -710h-98zM219 285h234l-99 277c-7.33301 20 -13 38 -17 54h-2c-4 -16 -9.66699 -34 -17 -54z" />
    <glyph glyph-name="Acircumflex" unicode="&#xc2;" horiz-adv-x="672" 
d="M336 825l-64 -72h-86l97 108h106l97 -108h-86zM554 0l-73 205h-290l-73 -205h-98l269 710h94l269 -710h-98zM219 285h234l-99 277c-7.33301 20 -13 38 -17 54h-2c-4 -16 -9.66699 -34 -17 -54z" />
    <glyph glyph-name="Atilde" unicode="&#xc3;" horiz-adv-x="672" 
d="M272 797c-22.667 0 -38.334 -15.333 -47.001 -46l-58 11c4.66699 32 16.5 56.667 35.5 74s43.167 26 72.5 26c23.333 0 47 -8.16699 71 -24.5s42 -24.5 54 -24.5c22.667 0 38.334 15.333 47.001 46l58 -11c-4.66699 -32 -16.5 -56.667 -35.5 -74s-43.167 -26 -72.5 -26
c-23.333 0 -47 8.16699 -71 24.5s-42 24.5 -54 24.5zM554 0l-73 205h-290l-73 -205h-98l269 710h94l269 -710h-98zM219 285h234l-99 277c-7.33301 20 -13 38 -17 54h-2c-4 -16 -9.66699 -34 -17 -54z" />
    <glyph glyph-name="Adieresis" unicode="&#xc4;" horiz-adv-x="672" 
d="M273 851v-98h-97v98h97zM496 851v-98h-97v98h97zM554 0l-73 205h-290l-73 -205h-98l269 710h94l269 -710h-98zM219 285h234l-99 277c-7.33301 20 -13 38 -17 54h-2c-4 -16 -9.66699 -34 -17 -54z" />
    <glyph glyph-name="Aring" unicode="&#xc5;" horiz-adv-x="672" 
d="M336 738c-32.667 0 -59 9.5 -79 28.5s-30 43.5 -30 73.5s10 54.5 30 73.5s46.333 28.5 79 28.5s59 -9.5 79 -28.5s30 -43.5 30 -73.5s-10 -54.5 -30 -73.5s-46.333 -28.5 -79 -28.5zM336 894c-15.333 0 -27.833 -5 -37.5 -15s-14.5 -23 -14.5 -39s4.83301 -29 14.5 -39
s22.167 -15 37.5 -15s27.833 5 37.5 15s14.5 23 14.5 39s-4.83301 29 -14.5 39s-22.167 15 -37.5 15zM554 0l-73 205h-290l-73 -205h-98l269 710h94l269 -710h-98zM219 285h234l-99 277c-7.33301 20 -13 38 -17 54h-2c-4 -16 -9.66699 -34 -17 -54z" />
    <glyph glyph-name="AE" unicode="&#xc6;" horiz-adv-x="926" 
d="M533 80h328v-80h-423v174h-250l-97 -174h-101l415 710h449v-80h-321v-226h304v-80h-304v-244zM232 254h206v371z" />
    <glyph glyph-name="Ccedilla" unicode="&#xc7;" horiz-adv-x="694" 
d="M365 66c50 0 92.0029 15.5 126.003 46.5s56 73.167 66 126.5l92 -16c-14 -69.333 -42.833 -125.5 -86.5 -168.5s-102.834 -66.5 -177.501 -70.5l-20 -33c9.33301 8 23.666 12 42.999 12c22.667 0 40.667 -7 54 -21s20 -32.667 20 -56
c0 -25.333 -9.66699 -45.833 -29 -61.5s-44.666 -23.5 -75.999 -23.5c-54.667 0 -88.334 21 -101.001 63l57 10c6.66699 -18.667 20.667 -28 42 -28c12.667 0 23 3.83301 31 11.5s12 17.5 12 29.5c0 12.667 -3.66699 22.667 -11 30s-17.333 11 -30 11
c-14 0 -25.333 -5 -34 -15l-39 12l31 59c-95.333 7.33301 -167.5 45.333 -216.5 114s-73.5 155 -73.5 259c0 112 28 201.667 84 269s135.667 101 239 101c83.333 0 148.666 -22.333 195.999 -67s75.666 -105.334 84.999 -182.001l-97 -10
c-7.33301 54.667 -27.166 98 -59.499 130s-75.5 48 -129.5 48c-68.667 0 -122.167 -26.167 -160.5 -78.5s-57.5 -122.166 -57.5 -209.499c0 -86 19.167 -156.167 57.5 -210.5s92.5 -81.5 162.5 -81.5z" />
    <glyph glyph-name="Egrave" unicode="&#xc8;" horiz-adv-x="612" 
d="M366 753h-80l-104 108h94zM195 80h352v-80h-447v710h440v-80h-345v-226h328v-80h-328v-244z" />
    <glyph glyph-name="Eacute" unicode="&#xc9;" horiz-adv-x="612" 
d="M470 861l-104 -108h-80l90 108h94zM195 80h352v-80h-447v710h440v-80h-345v-226h328v-80h-328v-244z" />
    <glyph glyph-name="Ecircumflex" unicode="&#xca;" horiz-adv-x="612" 
d="M326 825l-64 -72h-86l97 108h106l97 -108h-86zM195 80h352v-80h-447v710h440v-80h-345v-226h328v-80h-328v-244z" />
    <glyph glyph-name="Edieresis" unicode="&#xcb;" horiz-adv-x="612" 
d="M263 851v-98h-97v98h97zM486 851v-98h-97v98h97zM195 80h352v-80h-447v710h440v-80h-345v-226h328v-80h-328v-244z" />
    <glyph glyph-name="Igrave" unicode="&#xcc;" horiz-adv-x="295" 
d="M185 753h-74l-74 108h88zM195 0h-95v710h95v-710z" />
    <glyph glyph-name="Iacute" unicode="&#xcd;" horiz-adv-x="295" 
d="M111 753l60 108h88l-74 -108h-74zM195 0h-95v710h95v-710z" />
    <glyph glyph-name="Icircumflex" unicode="&#xce;" horiz-adv-x="295" 
d="M274 753h-82l-44 72l-44 -72h-82l73 108h106zM195 0h-95v710h95v-710z" />
    <glyph glyph-name="Idieresis" unicode="&#xcf;" horiz-adv-x="295" 
d="M23 753v98h97v-98h-97zM176 753v98h97v-98h-97zM195 0h-95v710h95v-710z" />
    <glyph glyph-name="Eth" unicode="&#xd0;" horiz-adv-x="715" 
d="M333 710c101.333 0 182.834 -32.5 244.501 -97.5s92.5 -150.5 92.5 -256.5c0 -104.667 -30.833 -190.167 -92.5 -256.5s-143.834 -99.5 -246.501 -99.5h-231v335h-86v72h86v303h233zM329.001 80c74 0 132.5 26.332 175.5 78.999s64.5 118.334 64.5 197.001
c0 81.333 -21 147.333 -63 198s-100.333 76 -175 76h-136v-223h175v-72h-175v-255h134z" />
    <glyph glyph-name="Ntilde" unicode="&#xd1;" horiz-adv-x="744" 
d="M433 748c-23.333 0 -47 8.16699 -71 24.5s-42 24.5 -54 24.5c-22.667 0 -38.334 -15.333 -47.001 -46l-58 11c4.66699 32 16.5 56.667 35.5 74s43.167 26 72.5 26c23.333 0 47 -8.16699 71 -24.5s42 -24.5 54 -24.5c22.667 0 38.334 15.333 47.001 46l58 -11
c-4.66699 -32 -16.5 -56.667 -35.5 -74s-43.167 -26 -72.5 -26zM100 0v710h115l301 -517c20 -34.667 34.667 -65 44 -91h2c-2 24.667 -3 56 -3 94v514h85v-710h-115l-301 517c-21.333 37.333 -36 67.666 -44 90.999h-2c2 -25.333 3 -56.666 3 -93.999v-514h-85z" />
    <glyph glyph-name="Ograve" unicode="&#xd2;" horiz-adv-x="739" 
d="M410 753h-80l-104 108h94zM370 -17c-98.667 0 -177.5 33.6689 -236.5 101.002s-88.5 157.666 -88.5 270.999c0 115.333 29.333 206.166 88 272.499s137.667 99.5 237 99.5c98.667 0 177.334 -33.167 236.001 -99.5s88 -157.166 88 -272.499
c0 -114.667 -29.333 -205.334 -88 -272.001s-137.334 -100 -236.001 -100zM370 63.002c70.667 0 125.667 25.833 165 77.5s59 123.167 59 214.5s-19.667 162.833 -59 214.5s-94.333 77.5 -165 77.5s-125.834 -25.833 -165.501 -77.5s-59.5 -123.167 -59.5 -214.5
c0 -90 19.833 -161.167 59.5 -213.5s94.834 -78.5 165.501 -78.5z" />
    <glyph glyph-name="Oacute" unicode="&#xd3;" horiz-adv-x="739" 
d="M330 753l90 108h94l-104 -108h-80zM370 -17c-98.667 0 -177.5 33.6689 -236.5 101.002s-88.5 157.666 -88.5 270.999c0 115.333 29.333 206.166 88 272.499s137.667 99.5 237 99.5c98.667 0 177.334 -33.167 236.001 -99.5s88 -157.166 88 -272.499
c0 -114.667 -29.333 -205.334 -88 -272.001s-137.334 -100 -236.001 -100zM370 63.002c70.667 0 125.667 25.833 165 77.5s59 123.167 59 214.5s-19.667 162.833 -59 214.5s-94.333 77.5 -165 77.5s-125.834 -25.833 -165.501 -77.5s-59.5 -123.167 -59.5 -214.5
c0 -90 19.833 -161.167 59.5 -213.5s94.834 -78.5 165.501 -78.5z" />
    <glyph glyph-name="Ocircumflex" unicode="&#xd4;" horiz-adv-x="739" 
d="M520 753h-86l-64 72l-64 -72h-86l97 108h106zM370 -17c-98.667 0 -177.5 33.6689 -236.5 101.002s-88.5 157.666 -88.5 270.999c0 115.333 29.333 206.166 88 272.499s137.667 99.5 237 99.5c98.667 0 177.334 -33.167 236.001 -99.5s88 -157.166 88 -272.499
c0 -114.667 -29.333 -205.334 -88 -272.001s-137.334 -100 -236.001 -100zM370 63.002c70.667 0 125.667 25.833 165 77.5s59 123.167 59 214.5s-19.667 162.833 -59 214.5s-94.333 77.5 -165 77.5s-125.834 -25.833 -165.501 -77.5s-59.5 -123.167 -59.5 -214.5
c0 -90 19.833 -161.167 59.5 -213.5s94.834 -78.5 165.501 -78.5z" />
    <glyph glyph-name="Otilde" unicode="&#xd5;" horiz-adv-x="739" 
d="M431 748c-23.333 0 -47 8.16699 -71 24.5s-42 24.5 -54 24.5c-22.667 0 -38.334 -15.333 -47.001 -46l-58 11c4.66699 32 16.5 56.667 35.5 74s43.167 26 72.5 26c23.333 0 47 -8.16699 71 -24.5s42 -24.5 54 -24.5c22.667 0 38.334 15.333 47.001 46l58 -11
c-4.66699 -32 -16.5 -56.667 -35.5 -74s-43.167 -26 -72.5 -26zM370 -17c-98.667 0 -177.5 33.6689 -236.5 101.002s-88.5 157.666 -88.5 270.999c0 115.333 29.333 206.166 88 272.499s137.667 99.5 237 99.5c98.667 0 177.334 -33.167 236.001 -99.5
s88 -157.166 88 -272.499c0 -114.667 -29.333 -205.334 -88 -272.001s-137.334 -100 -236.001 -100zM370 63.002c70.667 0 125.667 25.833 165 77.5s59 123.167 59 214.5s-19.667 162.833 -59 214.5s-94.333 77.5 -165 77.5s-125.834 -25.833 -165.501 -77.5
s-59.5 -123.167 -59.5 -214.5c0 -90 19.833 -161.167 59.5 -213.5s94.834 -78.5 165.501 -78.5z" />
    <glyph glyph-name="Odieresis" unicode="&#xd6;" horiz-adv-x="739" 
d="M210 753v98h97v-98h-97zM433 753v98h97v-98h-97zM370 -17c-98.667 0 -177.5 33.6689 -236.5 101.002s-88.5 157.666 -88.5 270.999c0 115.333 29.333 206.166 88 272.499s137.667 99.5 237 99.5c98.667 0 177.334 -33.167 236.001 -99.5s88 -157.166 88 -272.499
c0 -114.667 -29.333 -205.334 -88 -272.001s-137.334 -100 -236.001 -100zM370 63.002c70.667 0 125.667 25.833 165 77.5s59 123.167 59 214.5s-19.667 162.833 -59 214.5s-94.333 77.5 -165 77.5s-125.834 -25.833 -165.501 -77.5s-59.5 -123.167 -59.5 -214.5
c0 -90 19.833 -161.167 59.5 -213.5s94.834 -78.5 165.501 -78.5z" />
    <glyph glyph-name="multiply" unicode="&#xd7;" 
d="M553 513l-186 -186l186 -185l-57 -58l-186 186l-186 -186l-57 57l186 186l-186 186l57 57l186 -185l185 185z" />
    <glyph glyph-name="Oslash" unicode="&#xd8;" horiz-adv-x="739" 
d="M616 616c52 -65.333 78.001 -152.331 78.001 -260.998c0 -114.667 -29.333 -205.334 -88 -272.001s-137.334 -100 -236.001 -100c-77.333 0 -143 21.333 -197 64l-46 -59l-54 39l52 67c-53.333 66.667 -80 153.667 -80 261c0 115.333 29.333 206.166 88 272.499
s137.667 99.5 237 99.5c78 0 144 -21.333 198 -64l45 58l54 -39zM145.001 355.002c0 -72.667 13.334 -134 40.001 -184l329 422c-38 36 -86 54 -144 54c-70.667 0 -125.834 -25.833 -165.501 -77.5s-59.5 -123.167 -59.5 -214.5zM370.002 63.002
c70.667 0 125.667 25.833 165 77.5s59 123.167 59 214.5c0 74.667 -13 135.667 -39 183l-328 -421c38 -36 85.667 -54 143 -54z" />
    <glyph glyph-name="Ugrave" unicode="&#xd9;" horiz-adv-x="716" 
d="M398 753h-80l-104 108h94zM85 710h95.002v-456c0 -58 15.5 -103.667 46.5 -137s74.833 -50 131.5 -50s100.5 16.667 131.5 50s46.5 79 46.5 137v456h95v-462c0 -80.667 -23.833 -145 -71.5 -193s-114.834 -72 -201.501 -72s-153.834 24 -201.501 72
s-71.5 112.333 -71.5 193v462z" />
    <glyph glyph-name="Uacute" unicode="&#xda;" horiz-adv-x="716" 
d="M318 753l90 108h94l-104 -108h-80zM85 710h95.002v-456c0 -58 15.5 -103.667 46.5 -137s74.833 -50 131.5 -50s100.5 16.667 131.5 50s46.5 79 46.5 137v456h95v-462c0 -80.667 -23.833 -145 -71.5 -193s-114.834 -72 -201.501 -72s-153.834 24 -201.501 72
s-71.5 112.333 -71.5 193v462z" />
    <glyph glyph-name="Ucircumflex" unicode="&#xdb;" horiz-adv-x="716" 
d="M508 753h-86l-64 72l-64 -72h-86l97 108h106zM85 710h95.002v-456c0 -58 15.5 -103.667 46.5 -137s74.833 -50 131.5 -50s100.5 16.667 131.5 50s46.5 79 46.5 137v456h95v-462c0 -80.667 -23.833 -145 -71.5 -193s-114.834 -72 -201.501 -72s-153.834 24 -201.501 72
s-71.5 112.333 -71.5 193v462z" />
    <glyph glyph-name="Udieresis" unicode="&#xdc;" horiz-adv-x="716" 
d="M198 753v98h97v-98h-97zM421 753v98h97v-98h-97zM85 710h95.002v-456c0 -58 15.5 -103.667 46.5 -137s74.833 -50 131.5 -50s100.5 16.667 131.5 50s46.5 79 46.5 137v456h95v-462c0 -80.667 -23.833 -145 -71.5 -193s-114.834 -72 -201.501 -72s-153.834 24 -201.501 72
s-71.5 112.333 -71.5 193v462z" />
    <glyph glyph-name="Yacute" unicode="&#xdd;" horiz-adv-x="578" 
d="M249 753l90 108h94l-104 -108h-80zM241 0v283l-241 427h106l163 -301c10 -18.667 16.333 -32.334 19 -41.001h2c2.66699 8.66699 9 22.334 19 41.001l163 301h106l-241 -427v-283h-96z" />
    <glyph glyph-name="Thorn" unicode="&#xde;" horiz-adv-x="574" 
d="M333 568c68 0 121.833 -17.5 161.5 -52.5s59.5 -82.5 59.5 -142.5c0 -58 -20.333 -105 -61 -141s-94 -54 -160 -54h-138v-178h-95v710h95v-142h138zM327 258c37.333 0 67.668 10.5 91.001 31.5s35 48.833 35 83.5c0 35.333 -11.333 63.333 -34 84s-53.334 31 -92.001 31
h-132v-230h132z" />
    <glyph glyph-name="germandbls" unicode="&#xdf;" horiz-adv-x="564" 
d="M85 527c0 66.667 18 118.333 54 155s86.333 55 151 55c60 0 107.167 -14.167 141.5 -42.5s51.5 -69.166 51.5 -122.499c0 -46.667 -12.333 -84.834 -37 -114.501s-59 -47.167 -103 -52.5c61.333 -6 107.666 -25.333 138.999 -58s47 -77.334 47 -134.001
c0 -70 -20.833 -123.833 -62.5 -161.5s-101.5 -56.5 -179.5 -56.5c-19.333 0 -37.666 1 -54.999 3v71c16.667 -2 34 -3 52 -3c50.667 0 89.167 12.5 115.5 37.5s39.5 61.5 39.5 109.5c0 96 -59.333 146.333 -178 151h-40v72h40c88 5.33301 132 48.333 132 129
c0 32.667 -9.66699 58.334 -29 77.001s-46 28 -80 28c-76 0 -114 -48.333 -114 -145v-525h-85v527z" />
    <glyph glyph-name="agrave" unicode="&#xe0;" horiz-adv-x="539" 
d="M304 580h-78l-118 143h104zM214 -12c-51.333 0 -92.333 13.3311 -123 39.998s-46 62.334 -46 107.001c0 52.667 23.333 92 70 118c36 18 92 31.667 168 41l93 11v8c0 46 -8.66699 79 -26 99s-45.333 30 -84 30c-34 0 -61 -8.66699 -81 -26s-31 -41.666 -33 -72.999h-91
c3.33301 51.333 23.5 92.333 60.5 123s84.833 46 143.5 46c68.667 0 118.667 -16.5 150 -49.5s47 -85.833 47 -158.5v-135c0 -76 5.66699 -132.333 17 -169h-89c-4 28 -6.66699 58.333 -8 91c-11.333 -32 -32 -57.167 -62 -75.5s-65.333 -27.5 -106 -27.5zM233 57.998
c43.333 0 78.167 14.501 104.5 43.501s39.5 67.833 39.5 116.5v25l-136 -20c-36.667 -5.33301 -63.5 -14.833 -80.5 -28.5s-25.5 -32.834 -25.5 -57.501s8.66699 -44 26 -58s41.333 -21 72 -21z" />
    <glyph glyph-name="aacute" unicode="&#xe1;" horiz-adv-x="539" 
d="M230 580l92 143h104l-118 -143h-78zM214 -12c-51.333 0 -92.333 13.3311 -123 39.998s-46 62.334 -46 107.001c0 52.667 23.333 92 70 118c36 18 92 31.667 168 41l93 11v8c0 46 -8.66699 79 -26 99s-45.333 30 -84 30c-34 0 -61 -8.66699 -81 -26
s-31 -41.666 -33 -72.999h-91c3.33301 51.333 23.5 92.333 60.5 123s84.833 46 143.5 46c68.667 0 118.667 -16.5 150 -49.5s47 -85.833 47 -158.5v-135c0 -76 5.66699 -132.333 17 -169h-89c-4 28 -6.66699 58.333 -8 91c-11.333 -32 -32 -57.167 -62 -75.5
s-65.333 -27.5 -106 -27.5zM233 57.998c43.333 0 78.167 14.501 104.5 43.501s39.5 67.833 39.5 116.5v25l-136 -20c-36.667 -5.33301 -63.5 -14.833 -80.5 -28.5s-25.5 -32.834 -25.5 -57.501s8.66699 -44 26 -58s41.333 -21 72 -21z" />
    <glyph glyph-name="acircumflex" unicode="&#xe2;" horiz-adv-x="539" 
d="M419 580h-79l-73 100l-73 -100h-79l108 143h88zM214 -12c-51.333 0 -92.333 13.3311 -123 39.998s-46 62.334 -46 107.001c0 52.667 23.333 92 70 118c36 18 92 31.667 168 41l93 11v8c0 46 -8.66699 79 -26 99s-45.333 30 -84 30c-34 0 -61 -8.66699 -81 -26
s-31 -41.666 -33 -72.999h-91c3.33301 51.333 23.5 92.333 60.5 123s84.833 46 143.5 46c68.667 0 118.667 -16.5 150 -49.5s47 -85.833 47 -158.5v-135c0 -76 5.66699 -132.333 17 -169h-89c-4 28 -6.66699 58.333 -8 91c-11.333 -32 -32 -57.167 -62 -75.5
s-65.333 -27.5 -106 -27.5zM233 57.998c43.333 0 78.167 14.501 104.5 43.501s39.5 67.833 39.5 116.5v25l-136 -20c-36.667 -5.33301 -63.5 -14.833 -80.5 -28.5s-25.5 -32.834 -25.5 -57.501s8.66699 -44 26 -58s41.333 -21 72 -21z" />
    <glyph glyph-name="atilde" unicode="&#xe3;" horiz-adv-x="539" 
d="M338 587c-21.333 0 -40.499 5.5 -57.499 16.5s-32.5 22 -46.5 33s-27.667 16.5 -41 16.5c-12.667 0 -22.834 -4.5 -30.501 -13.5s-14.167 -23.5 -19.5 -43.5l-58 11c5.33301 36 17.666 64 36.999 84s44 30 74 30c21.333 0 40.5 -5.5 57.5 -16.5s32.5 -22 46.5 -33
s27.667 -16.5 41 -16.5c24 0 40.667 19 50 57l58 -11c-5.33301 -36 -17.666 -64 -36.999 -84s-44 -30 -74 -30zM214.001 -12c-51.333 0 -92.333 13.3311 -123 39.998s-46 62.334 -46 107.001c0 52.667 23.333 92 70 118c36 18 92 31.667 168 41l93 11v8
c0 46 -8.66699 79 -26 99s-45.333 30 -84 30c-34 0 -61 -8.66699 -81 -26s-31 -41.666 -33 -72.999h-91c3.33301 51.333 23.5 92.333 60.5 123s84.833 46 143.5 46c68.667 0 118.667 -16.5 150 -49.5s47 -85.833 47 -158.5v-135c0 -76 5.66699 -132.333 17 -169h-89
c-4 28 -6.66699 58.333 -8 91c-11.333 -32 -32 -57.167 -62 -75.5s-65.333 -27.5 -106 -27.5zM233.001 57.998c43.333 0 78.167 14.501 104.5 43.501s39.5 67.833 39.5 116.5v25l-136 -20c-36.667 -5.33301 -63.5 -14.833 -80.5 -28.5s-25.5 -32.834 -25.5 -57.501
s8.66699 -44 26 -58s41.333 -21 72 -21z" />
    <glyph glyph-name="adieresis" unicode="&#xe4;" horiz-adv-x="539" 
d="M117 596v103h97v-103h-97zM320 596v103h97v-103h-97zM214 -12c-51.333 0 -92.333 13.3311 -123 39.998s-46 62.334 -46 107.001c0 52.667 23.333 92 70 118c36 18 92 31.667 168 41l93 11v8c0 46 -8.66699 79 -26 99s-45.333 30 -84 30c-34 0 -61 -8.66699 -81 -26
s-31 -41.666 -33 -72.999h-91c3.33301 51.333 23.5 92.333 60.5 123s84.833 46 143.5 46c68.667 0 118.667 -16.5 150 -49.5s47 -85.833 47 -158.5v-135c0 -76 5.66699 -132.333 17 -169h-89c-4 28 -6.66699 58.333 -8 91c-11.333 -32 -32 -57.167 -62 -75.5
s-65.333 -27.5 -106 -27.5zM233 57.998c43.333 0 78.167 14.501 104.5 43.501s39.5 67.833 39.5 116.5v25l-136 -20c-36.667 -5.33301 -63.5 -14.833 -80.5 -28.5s-25.5 -32.834 -25.5 -57.501s8.66699 -44 26 -58s41.333 -21 72 -21z" />
    <glyph glyph-name="aring" unicode="&#xe5;" horiz-adv-x="539" 
d="M267 556c-32.667 0 -59 9.5 -79 28.5s-30 43.5 -30 73.5s10 54.5 30 73.5s46.333 28.5 79 28.5s59 -9.5 79 -28.5s30 -43.5 30 -73.5s-10 -54.5 -30 -73.5s-46.333 -28.5 -79 -28.5zM267 604c15.333 0 27.833 5 37.5 15s14.5 23 14.5 39s-4.83301 29 -14.5 39
s-22.167 15 -37.5 15s-27.833 -5 -37.5 -15s-14.5 -23 -14.5 -39s4.83301 -29 14.5 -39s22.167 -15 37.5 -15zM214 -12c-51.333 0 -92.333 13.3311 -123 39.998s-46 62.334 -46 107.001c0 52.667 23.333 92 70 118c36 18 92 31.667 168 41l93 11v8c0 46 -8.66699 79 -26 99
s-45.333 30 -84 30c-34 0 -61 -8.66699 -81 -26s-31 -41.666 -33 -72.999h-91c3.33301 51.333 23.5 92.333 60.5 123s84.833 46 143.5 46c68.667 0 118.667 -16.5 150 -49.5s47 -85.833 47 -158.5v-135c0 -76 5.66699 -132.333 17 -169h-89c-4 28 -6.66699 58.333 -8 91
c-11.333 -32 -32 -57.167 -62 -75.5s-65.333 -27.5 -106 -27.5zM233 57.998c43.333 0 78.167 14.501 104.5 43.501s39.5 67.833 39.5 116.5v25l-136 -20c-36.667 -5.33301 -63.5 -14.833 -80.5 -28.5s-25.5 -32.834 -25.5 -57.501s8.66699 -44 26 -58s41.333 -21 72 -21z
" />
    <glyph glyph-name="ae" unicode="&#xe6;" horiz-adv-x="841" 
d="M791 271l0.000976562 -45h-335c0.666992 -49.333 13.667 -88.833 39 -118.5s58.666 -44.5 99.999 -44.5c61.333 0 102.333 31.667 123 95l70 -31c-33.333 -92.667 -99.666 -139 -198.999 -139c-90 0 -151.667 39 -185 117c-16 -38 -41 -67 -75 -87s-73.333 -30 -118 -30
c-50.667 0 -91 12.833 -121 38.5s-45 60.5 -45 104.5c0 42 14.833 76 44.5 102s74.167 42.333 133.5 49l147 15v16c0 85.333 -37.667 128 -113 128c-34 0 -60.5 -8.5 -79.5 -25.5s-29.167 -41.167 -30.5 -72.5h-87c4 53.333 23.167 94.833 57.5 124.5
s81.166 44.5 140.499 44.5c78.667 0 133 -27.667 163 -83c36 55.333 91.667 83 167 83c64.667 0 114.667 -21.167 150 -63.5s53 -101.5 53 -177.5zM703.001 295c1.33301 46 -8.33301 82.5 -29 109.5s-49.334 40.5 -86.001 40.5c-38 0 -69.167 -13.5 -93.5 -40.5
s-37.166 -63.5 -38.499 -109.5h247zM371.002 218l-0.000976562 15.999l-123 -14c-40.667 -4.66699 -69.667 -14.167 -87 -28.5s-26 -34.833 -26 -61.5c0 -21.333 8.66699 -38.666 26 -51.999s39.333 -20 66 -20c38.667 0 72.334 12.833 101.001 38.5s43 66.167 43 121.5z
" />
    <glyph glyph-name="ccedilla" unicode="&#xe7;" horiz-adv-x="526" 
d="M276 62c68.667 0 109.666 39.666 122.999 118.999l81 -13c-8.66699 -52.667 -28.667 -94.5 -60 -125.5s-71.333 -48.833 -120 -53.5l-24 -38c9.33301 8 23.666 12 42.999 12c22.667 0 40.667 -7 54 -21s20 -32.667 20 -56c0 -25.333 -9.66699 -45.833 -29 -61.5
s-44.666 -23.5 -75.999 -23.5c-54.667 0 -88.334 21 -101.001 63l57 10c6.66699 -18.667 20.667 -28 42 -28c12.667 0 23 3.83301 31 11.5s12 17.5 12 29.5c0 12.667 -3.66699 22.667 -11 30s-17.333 11 -30 11c-13.333 0 -24.666 -5 -33.999 -15l-39 12l34 64
c-62.667 6 -112.334 32.333 -149.001 79s-55 107.334 -55 182.001c0 81.333 20.5 145.333 61.5 192s97.167 70 168.5 70c58.667 0 106 -16 142 -48s57.333 -76.667 64 -134l-87 -10c-4.66699 38 -17.5 67.167 -38.5 87.5s-48.5 30.5 -82.5 30.5
c-43.333 0 -77.166 -16.5 -101.499 -49.5s-36.5 -78.833 -36.5 -137.5c0 -60 12.333 -106.5 37 -139.5s59.334 -49.5 104.001 -49.5z" />
    <glyph glyph-name="egrave" unicode="&#xe8;" horiz-adv-x="535" 
d="M302 580h-78l-118 143h104zM485 285v-59.999h-355c0.666992 -48.667 14.5 -87.834 41.5 -117.501s62.833 -44.5 107.5 -44.5c66 0 110.333 31.667 133 95l70 -31c-35.333 -92.667 -105 -139 -209 -139c-72 0 -128 22.167 -168 66.5s-60 107.5 -60 189.5
c0 84 20 149.667 60 197s95.667 71 167 71c68 0 120.5 -19.333 157.5 -58s55.5 -95 55.5 -169zM399 294.001l-0.00292969 11c0 45.333 -11.167 80 -33.5 104s-54.166 36 -95.499 36c-43.333 0 -77.166 -13.333 -101.499 -40s-37.166 -63.667 -38.499 -111h269z" />
    <glyph glyph-name="eacute" unicode="&#xe9;" horiz-adv-x="535" 
d="M424 723l-118 -143h-78l92 143h104zM485 285v-59.999h-355c0.666992 -48.667 14.5 -87.834 41.5 -117.501s62.833 -44.5 107.5 -44.5c66 0 110.333 31.667 133 95l70 -31c-35.333 -92.667 -105 -139 -209 -139c-72 0 -128 22.167 -168 66.5s-60 107.5 -60 189.5
c0 84 20 149.667 60 197s95.667 71 167 71c68 0 120.5 -19.333 157.5 -58s55.5 -95 55.5 -169zM399 294.001l-0.00292969 11c0 45.333 -11.167 80 -33.5 104s-54.166 36 -95.499 36c-43.333 0 -77.166 -13.333 -101.499 -40s-37.166 -63.667 -38.499 -111h269z" />
    <glyph glyph-name="ecircumflex" unicode="&#xea;" horiz-adv-x="535" 
d="M265 680l-73 -100h-79l108 143h88l108 -143h-79zM485 285v-59.999h-355c0.666992 -48.667 14.5 -87.834 41.5 -117.501s62.833 -44.5 107.5 -44.5c66 0 110.333 31.667 133 95l70 -31c-35.333 -92.667 -105 -139 -209 -139c-72 0 -128 22.167 -168 66.5
s-60 107.5 -60 189.5c0 84 20 149.667 60 197s95.667 71 167 71c68 0 120.5 -19.333 157.5 -58s55.5 -95 55.5 -169zM399 294.001l-0.00292969 11c0 45.333 -11.167 80 -33.5 104s-54.166 36 -95.499 36c-43.333 0 -77.166 -13.333 -101.499 -40
s-37.166 -63.667 -38.499 -111h269z" />
    <glyph glyph-name="edieresis" unicode="&#xeb;" horiz-adv-x="535" 
d="M212 699v-103h-97v103h97zM415 699v-103h-97v103h97zM485 285v-59.999h-355c0.666992 -48.667 14.5 -87.834 41.5 -117.501s62.833 -44.5 107.5 -44.5c66 0 110.333 31.667 133 95l70 -31c-35.333 -92.667 -105 -139 -209 -139c-72 0 -128 22.167 -168 66.5
s-60 107.5 -60 189.5c0 84 20 149.667 60 197s95.667 71 167 71c68 0 120.5 -19.333 157.5 -58s55.5 -95 55.5 -169zM399 294.001l-0.00292969 11c0 45.333 -11.167 80 -33.5 104s-54.166 36 -95.499 36c-43.333 0 -77.166 -13.333 -101.499 -40
s-37.166 -63.667 -38.499 -111h269z" />
    <glyph glyph-name="igrave" unicode="&#xec;" horiz-adv-x="265" 
d="M170 580h-78l-78 143h94zM90 0v500h85v-500h-85z" />
    <glyph glyph-name="iacute" unicode="&#xed;" horiz-adv-x="265" 
d="M96 580l62 143h94l-78 -143h-78zM90 0v500h85v-500h-85z" />
    <glyph glyph-name="icircumflex" unicode="&#xee;" horiz-adv-x="265" 
d="M255 580h-74l-48 101l-48 -101h-74l78 143h88zM90 0v500h85v-500h-85z" />
    <glyph glyph-name="idieresis" unicode="&#xef;" horiz-adv-x="265" 
d="M13 596v103h97v-103h-97zM156 596v103h97v-103h-97zM90 0v500h85v-500h-85z" />
    <glyph glyph-name="eth" unicode="&#xf0;" horiz-adv-x="531" 
d="M375 623c84 -100 126 -221.666 126 -364.999c0 -79.333 -21.667 -144.166 -65 -194.499s-99.333 -75.5 -168 -75.5s-123 23.667 -163 71s-60 111.666 -60 192.999c0 80 19.5 143.333 58.5 190s91.5 70 157.5 70c56 0 97.667 -23.667 125 -71h2
c-15.333 54 -45 104.667 -89 152l-125 -49l-20 44l107 42c-32 25.333 -64.333 44.333 -97 57l56 53c44 -18.667 83.667 -45.334 119 -80.001l81 32l19 -44zM272 63.001c45.333 0 80.5 16.6689 105.5 50.002s37.5 79.666 37.5 138.999c0 60.667 -12.5 107.334 -37.5 140.001
s-60.167 49 -105.5 49c-42 0 -75.333 -16.833 -100 -50.5s-37 -79.834 -37 -138.501s12.167 -104.834 36.5 -138.501s57.833 -50.5 100.5 -50.5z" />
    <glyph glyph-name="ntilde" unicode="&#xf1;" horiz-adv-x="579" 
d="M384 587c-21.333 0 -40.499 5.5 -57.499 16.5s-32.5 22 -46.5 33s-27.667 16.5 -41 16.5c-12.667 0 -22.834 -4.5 -30.501 -13.5s-14.167 -23.5 -19.5 -43.5l-58 11c5.33301 36 17.666 64 36.999 84s44 30 74 30c21.333 0 40.5 -5.5 57.5 -16.5s32.5 -22 46.5 -33
s27.667 -16.5 41 -16.5c24 0 40.667 19 50 57l58 -11c-5.33301 -36 -17.666 -64 -36.999 -84s-44 -30 -74 -30zM90.001 0l-0.000976562 500h80v-99c32.667 75.333 88.334 113 167.001 113c111.333 0 167 -67.667 167 -203v-311h-85v306c0 88.667 -36.667 133 -110 133
c-41.333 0 -74 -15.833 -98 -47.5s-36 -75.167 -36 -130.5v-261h-85z" />
    <glyph glyph-name="ograve" unicode="&#xf2;" horiz-adv-x="556" 
d="M315 580h-78l-118 143h104zM278 -12c-70.667 0 -127.167 23.5 -169.5 70.5s-63.5 110.833 -63.5 191.5s21.167 144.5 63.5 191.5s98.833 70.5 169.5 70.5s127.167 -23.5 169.5 -70.5s63.5 -110.833 63.5 -191.5s-21.167 -144.5 -63.5 -191.5s-98.833 -70.5 -169.5 -70.5z
M278 62c45.333 0 80.5 16 105.5 48s37.5 78.667 37.5 140s-12.5 108 -37.5 140s-60.167 48 -105.5 48s-80.5 -16 -105.5 -48s-37.5 -78.667 -37.5 -140s12.5 -108 37.5 -140s60.167 -48 105.5 -48z" />
    <glyph glyph-name="oacute" unicode="&#xf3;" horiz-adv-x="556" 
d="M241 580l92 143h104l-118 -143h-78zM278 -12c-70.667 0 -127.167 23.5 -169.5 70.5s-63.5 110.833 -63.5 191.5s21.167 144.5 63.5 191.5s98.833 70.5 169.5 70.5s127.167 -23.5 169.5 -70.5s63.5 -110.833 63.5 -191.5s-21.167 -144.5 -63.5 -191.5
s-98.833 -70.5 -169.5 -70.5zM278 62c45.333 0 80.5 16 105.5 48s37.5 78.667 37.5 140s-12.5 108 -37.5 140s-60.167 48 -105.5 48s-80.5 -16 -105.5 -48s-37.5 -78.667 -37.5 -140s12.5 -108 37.5 -140s60.167 -48 105.5 -48z" />
    <glyph glyph-name="ocircumflex" unicode="&#xf4;" horiz-adv-x="556" 
d="M430 580h-79l-73 100l-73 -100h-79l108 143h88zM278 -12c-70.667 0 -127.167 23.5 -169.5 70.5s-63.5 110.833 -63.5 191.5s21.167 144.5 63.5 191.5s98.833 70.5 169.5 70.5s127.167 -23.5 169.5 -70.5s63.5 -110.833 63.5 -191.5s-21.167 -144.5 -63.5 -191.5
s-98.833 -70.5 -169.5 -70.5zM278 62c45.333 0 80.5 16 105.5 48s37.5 78.667 37.5 140s-12.5 108 -37.5 140s-60.167 48 -105.5 48s-80.5 -16 -105.5 -48s-37.5 -78.667 -37.5 -140s12.5 -108 37.5 -140s60.167 -48 105.5 -48z" />
    <glyph glyph-name="otilde" unicode="&#xf5;" horiz-adv-x="556" 
d="M349 587c-21.333 0 -40.499 5.5 -57.499 16.5s-32.5 22 -46.5 33s-27.667 16.5 -41 16.5c-12.667 0 -22.834 -4.5 -30.501 -13.5s-14.167 -23.5 -19.5 -43.5l-58 11c5.33301 36 17.666 64 36.999 84s44 30 74 30c21.333 0 40.5 -5.5 57.5 -16.5s32.5 -22 46.5 -33
s27.667 -16.5 41 -16.5c24 0 40.667 19 50 57l58 -11c-5.33301 -36 -17.666 -64 -36.999 -84s-44 -30 -74 -30zM278.001 -12c-70.667 0 -127.167 23.5 -169.5 70.5s-63.5 110.833 -63.5 191.5s21.167 144.5 63.5 191.5s98.833 70.5 169.5 70.5s127.167 -23.5 169.5 -70.5
s63.5 -110.833 63.5 -191.5s-21.167 -144.5 -63.5 -191.5s-98.833 -70.5 -169.5 -70.5zM278.001 62c45.333 0 80.5 16 105.5 48s37.5 78.667 37.5 140s-12.5 108 -37.5 140s-60.167 48 -105.5 48s-80.5 -16 -105.5 -48s-37.5 -78.667 -37.5 -140s12.5 -108 37.5 -140
s60.167 -48 105.5 -48z" />
    <glyph glyph-name="odieresis" unicode="&#xf6;" horiz-adv-x="556" 
d="M128 596v103h97v-103h-97zM331 596v103h97v-103h-97zM278 -12c-70.667 0 -127.167 23.5 -169.5 70.5s-63.5 110.833 -63.5 191.5s21.167 144.5 63.5 191.5s98.833 70.5 169.5 70.5s127.167 -23.5 169.5 -70.5s63.5 -110.833 63.5 -191.5s-21.167 -144.5 -63.5 -191.5
s-98.833 -70.5 -169.5 -70.5zM278 62c45.333 0 80.5 16 105.5 48s37.5 78.667 37.5 140s-12.5 108 -37.5 140s-60.167 48 -105.5 48s-80.5 -16 -105.5 -48s-37.5 -78.667 -37.5 -140s12.5 -108 37.5 -140s60.167 -48 105.5 -48z" />
    <glyph glyph-name="divide" unicode="&#xf7;" horiz-adv-x="570" 
d="M283 462c-15.333 0 -27.833 4.83301 -37.5 14.5s-14.5 22.167 -14.5 37.5s4.83301 27.833 14.5 37.5s22.167 14.5 37.5 14.5s27.833 -4.66699 37.5 -14s14.5 -22 14.5 -38c0 -15.333 -4.83301 -27.833 -14.5 -37.5s-22.167 -14.5 -37.5 -14.5zM50 288v76h470v-76h-470z
M283 86c-15.333 0 -27.833 4.83301 -37.5 14.5s-14.5 22.167 -14.5 37.5s4.83301 27.833 14.5 37.5s22.167 14.5 37.5 14.5s27.833 -4.66699 37.5 -14s14.5 -22 14.5 -38c0 -15.333 -4.83301 -27.833 -14.5 -37.5s-22.167 -14.5 -37.5 -14.5z" />
    <glyph glyph-name="oslash" unicode="&#xf8;" horiz-adv-x="556" 
d="M456 432c36.667 -47.333 55 -108 55 -182c0 -80.667 -21.167 -144.5 -63.5 -191.5s-98.833 -70.5 -169.5 -70.5c-55.333 0 -102.333 14.667 -141 44l-36 -46l-43 31l41 52c-36 46.667 -54 107 -54 181c0 80.667 21.167 144.5 63.5 191.5s98.833 70.5 169.5 70.5
c54.667 0 101 -14.333 139 -43l36 45l44 -31zM135 250c0 -44 6.66699 -81 20 -111l213 268c-22.667 20.667 -52.667 31 -90 31c-45.333 0 -80.5 -16 -105.5 -48s-37.5 -78.667 -37.5 -140zM278 62c45.333 0 80.501 16.001 105.501 48.001s37.5 78.667 37.5 140
c0 45.333 -7 82.666 -21 111.999l-213 -268c23.333 -21.333 53.666 -32 90.999 -32z" />
    <glyph glyph-name="ugrave" unicode="&#xf9;" horiz-adv-x="571" 
d="M315 580h-78l-118 143h104zM246 -12c-114 0 -171 64.333 -171 193v319h85v-309c0 -42 8.83301 -74.167 26.5 -96.5s42.834 -33.5 75.501 -33.5c40 0 72.333 15.667 97 47s37 72.333 37 123v269h85v-500h-80v94c-11.333 -30.667 -31.333 -56 -60 -76
s-60.334 -30 -95.001 -30z" />
    <glyph glyph-name="uacute" unicode="&#xfa;" horiz-adv-x="571" 
d="M241 580l92 143h104l-118 -143h-78zM246 -12c-114 0 -171 64.333 -171 193v319h85v-309c0 -42 8.83301 -74.167 26.5 -96.5s42.834 -33.5 75.501 -33.5c40 0 72.333 15.667 97 47s37 72.333 37 123v269h85v-500h-80v94c-11.333 -30.667 -31.333 -56 -60 -76
s-60.334 -30 -95.001 -30z" />
    <glyph glyph-name="ucircumflex" unicode="&#xfb;" horiz-adv-x="571" 
d="M430 580h-79l-73 100l-73 -100h-79l108 143h88zM246 -12c-114 0 -171 64.333 -171 193v319h85v-309c0 -42 8.83301 -74.167 26.5 -96.5s42.834 -33.5 75.501 -33.5c40 0 72.333 15.667 97 47s37 72.333 37 123v269h85v-500h-80v94c-11.333 -30.667 -31.333 -56 -60 -76
s-60.334 -30 -95.001 -30z" />
    <glyph glyph-name="udieresis" unicode="&#xfc;" horiz-adv-x="571" 
d="M128 596v103h97v-103h-97zM331 596v103h97v-103h-97zM246 -12c-114 0 -171 64.333 -171 193v319h85v-309c0 -42 8.83301 -74.167 26.5 -96.5s42.834 -33.5 75.501 -33.5c40 0 72.333 15.667 97 47s37 72.333 37 123v269h85v-500h-80v94
c-11.333 -30.667 -31.333 -56 -60 -76s-60.334 -30 -95.001 -30z" />
    <glyph glyph-name="yacute" unicode="&#xfd;" horiz-adv-x="487" 
d="M207 580l92 143h104l-118 -143h-78zM92 -201c-16.667 0 -32 1.33398 -46 4.00098v75c17.333 -1.33301 29.333 -2 36 -2c30 0 53.667 7.16699 71 21.5s31.666 38.166 42.999 71.499l13 37l-199 494h95l128 -348c7.33301 -20 13 -39.667 17 -59h2
c2.66699 12 8.33398 31.667 17.001 59l116 348h92l-195 -532c-22 -61.333 -48.167 -104.833 -78.5 -130.5s-67.5 -38.5 -111.5 -38.5z" />
    <glyph glyph-name="thorn" unicode="&#xfe;" horiz-adv-x="585" 
d="M95 -195l0.000976562 920h85v-308c34 63.333 86.667 95 158 95c61.333 0 110.333 -25 147 -75s55 -112.333 55 -187s-18.333 -137 -55 -187s-85.667 -75 -147 -75c-70.667 0 -123.334 28.333 -158.001 85v-268h-85zM315.001 63c41.333 0 74.166 17.833 98.499 53.5
s36.5 80.167 36.5 133.5s-12.167 97.833 -36.5 133.5s-57.166 53.5 -98.499 53.5c-43.333 0 -77 -15.333 -101 -46s-36 -72.667 -36 -126v-28c0 -54 12 -96.5 36 -127.5s57.667 -46.5 101 -46.5z" />
    <glyph glyph-name="ydieresis" unicode="&#xff;" horiz-adv-x="487" 
d="M94 596v103h97v-103h-97zM297 596v103h97v-103h-97zM92 -201c-16.667 0 -32 1.33398 -46 4.00098v75c17.333 -1.33301 29.333 -2 36 -2c30 0 53.667 7.16699 71 21.5s31.666 38.166 42.999 71.499l13 37l-199 494h95l128 -348c7.33301 -20 13 -39.667 17 -59h2
c2.66699 12 8.33398 31.667 17.001 59l116 348h92l-195 -532c-22 -61.333 -48.167 -104.833 -78.5 -130.5s-67.5 -38.5 -111.5 -38.5z" />
    <glyph glyph-name="Amacron" unicode="&#x100;" horiz-adv-x="672" 
d="M486 835v-68h-300v68h300zM554 0l-73 205h-290l-73 -205h-98l269 710h94l269 -710h-98zM219 285h234l-99 277c-7.33301 20 -13 38 -17 54h-2c-4 -16 -9.66699 -34 -17 -54z" />
    <glyph glyph-name="amacron" unicode="&#x101;" horiz-adv-x="539" 
d="M118 613v68h298v-68h-298zM214 -12c-51.333 0 -92.333 13.3311 -123 39.998s-46 62.334 -46 107.001c0 52.667 23.333 92 70 118c36 18 92 31.667 168 41l93 11v8c0 46 -8.66699 79 -26 99s-45.333 30 -84 30c-34 0 -61 -8.66699 -81 -26s-31 -41.666 -33 -72.999h-91
c3.33301 51.333 23.5 92.333 60.5 123s84.833 46 143.5 46c68.667 0 118.667 -16.5 150 -49.5s47 -85.833 47 -158.5v-135c0 -76 5.66699 -132.333 17 -169h-89c-4 28 -6.66699 58.333 -8 91c-11.333 -32 -32 -57.167 -62 -75.5s-65.333 -27.5 -106 -27.5zM233 57.998
c43.333 0 78.167 14.501 104.5 43.501s39.5 67.833 39.5 116.5v25l-136 -20c-36.667 -5.33301 -63.5 -14.833 -80.5 -28.5s-25.5 -32.834 -25.5 -57.501s8.66699 -44 26 -58s41.333 -21 72 -21z" />
    <glyph glyph-name="Abreve" unicode="&#x102;" horiz-adv-x="672" 
d="M336 748c-45.333 0 -80.833 9.83301 -106.5 29.5s-40.167 47.5 -43.5 83.5h72c6 -36.667 32 -55 78 -55s72 18.333 78 55h72c-3.33301 -36 -17.833 -63.833 -43.5 -83.5s-61.167 -29.5 -106.5 -29.5zM554 0l-73 205h-290l-73 -205h-98l269 710h94l269 -710h-98zM219 285
h234l-99 277c-7.33301 20 -13 38 -17 54h-2c-4 -16 -9.66699 -34 -17 -54z" />
    <glyph glyph-name="abreve" unicode="&#x103;" horiz-adv-x="539" 
d="M189 723c1.33301 -29.333 9.00195 -51.166 23.002 -65.499s32.333 -21.5 55 -21.5s41 7.16699 55 21.5s21.667 36.166 23 65.499h72c-2 -50.667 -16.833 -88 -44.5 -112s-62.834 -36 -105.501 -36s-77.834 12 -105.501 36s-42.5 61.333 -44.5 112h72zM214.002 -12
c-51.333 0 -92.333 13.3311 -123 39.998s-46 62.334 -46 107.001c0 52.667 23.333 92 70 118c36 18 92 31.667 168 41l93 11v8c0 46 -8.66699 79 -26 99s-45.333 30 -84 30c-34 0 -61 -8.66699 -81 -26s-31 -41.666 -33 -72.999h-91c3.33301 51.333 23.5 92.333 60.5 123
s84.833 46 143.5 46c68.667 0 118.667 -16.5 150 -49.5s47 -85.833 47 -158.5v-135c0 -76 5.66699 -132.333 17 -169h-89c-4 28 -6.66699 58.333 -8 91c-11.333 -32 -32 -57.167 -62 -75.5s-65.333 -27.5 -106 -27.5zM233.002 57.998c43.333 0 78.167 14.501 104.5 43.501
s39.5 67.833 39.5 116.5v25l-136 -20c-36.667 -5.33301 -63.5 -14.833 -80.5 -28.5s-25.5 -32.834 -25.5 -57.501s8.66699 -44 26 -58s41.333 -21 72 -21z" />
    <glyph glyph-name="Aogonek" unicode="&#x104;" horiz-adv-x="672" 
d="M611 -101l59 -8.00195c-10.667 -62.667 -46 -94 -106 -94c-31.333 0 -56 7.83301 -74 23.5s-27 36.834 -27 63.501c0 49.333 30.333 88 91 116l-73 205h-290l-73 -205h-98l269 710h94l269 -710h-18c-36.667 -12 -63.667 -27.667 -81 -47s-26 -39.666 -26 -60.999
c0 -27.333 13.333 -41 40 -41c23.333 0 38 16 44 48zM219 284.998h234l-99 277c-7.33301 20 -13 38 -17 54h-2c-4 -16 -9.66699 -34 -17 -54z" />
    <glyph glyph-name="aogonek" unicode="&#x105;" horiz-adv-x="539" 
d="M447 -101l59 -8.00391c-10.667 -62.667 -46 -94 -106 -94c-31.333 0 -56 7.83301 -74 23.5s-27 36.834 -27 63.501c0 49.333 30.333 88 91 116c-4 28 -6.66699 58.333 -8 91c-11.333 -32 -32 -57.167 -62 -75.5s-65.333 -27.5 -106 -27.5
c-51.333 0 -92.333 13.333 -123 40s-46 62.334 -46 107.001c0 52.667 23.333 92 70 118c36 18 92 31.667 168 41l93 11v8c0 46 -8.66699 79 -26 99s-45.333 30 -84 30c-34 0 -61 -8.66699 -81 -26s-31 -41.666 -33 -72.999h-91c3.33301 51.333 23.5 92.333 60.5 123
s84.833 46 143.5 46c68.667 0 118.667 -16.5 150 -49.5s47 -85.833 47 -158.5v-135c0 -76 5.66699 -132.333 17 -169h-9c-36.667 -12 -63.667 -27.667 -81 -47s-26 -39.666 -26 -60.999c0 -27.333 13.333 -41 40 -41c23.333 0 38 16 44 48zM377 217.996l0.000976562 25.001
l-136 -20c-36.667 -5.33301 -63.5 -14.833 -80.5 -28.5s-25.5 -32.834 -25.5 -57.501s8.66699 -44 26 -58s41.333 -21 72 -21c43.333 0 78.166 14.5 104.499 43.5s39.5 67.833 39.5 116.5z" />
    <glyph glyph-name="Cacute" unicode="&#x106;" horiz-adv-x="694" 
d="M327 753l90 108h94l-104 -108h-80zM365 -17c-104.667 0 -184.166 35 -238.499 105s-81.5 159.667 -81.5 269c0 112 28 201.667 84 269s135.667 101 239 101c83.333 0 148.666 -22.333 195.999 -67s75.666 -105.334 84.999 -182.001l-97 -10
c-7.33301 54.667 -27.166 98 -59.499 130s-75.5 48 -129.5 48c-68.667 0 -122.167 -26.167 -160.5 -78.5s-57.5 -122.166 -57.5 -209.499c0 -86 19.167 -156.167 57.5 -210.5s92.5 -81.5 162.5 -81.5c50 0 92 15.5 126 46.5s56 73.167 66 126.5l92 -16
c-14.667 -72 -45.5 -130 -92.5 -174s-110.833 -66 -191.5 -66z" />
    <glyph glyph-name="cacute" unicode="&#x107;" horiz-adv-x="526" 
d="M224 580l92 143h104l-118 -143h-78zM275 -12c-70 0 -125.835 23.666 -167.502 70.999s-62.5 111 -62.5 191c0 81.333 20.5 145.333 61.5 192s97.167 70 168.5 70c58.667 0 106 -16 142 -48s57.333 -76.667 64 -134l-87 -10c-4.66699 38 -17.5 67.167 -38.5 87.5
s-48.5 30.5 -82.5 30.5c-43.333 0 -77.166 -16.5 -101.499 -49.5s-36.5 -78.833 -36.5 -137.5c0 -60 12.333 -106.5 37 -139.5s59.334 -49.5 104.001 -49.5c68.667 0 109.667 39.667 123 119l81 -13c-9.33301 -57.333 -31.833 -101.666 -67.5 -132.999s-81.5 -47 -137.5 -47
z" />
    <glyph glyph-name="Ccircumflex" unicode="&#x108;" horiz-adv-x="694" 
d="M517 753h-86l-64 72l-64 -72h-86l97 108h106zM365 -17c-104.667 0 -184.166 35 -238.499 105s-81.5 159.667 -81.5 269c0 112 28 201.667 84 269s135.667 101 239 101c83.333 0 148.666 -22.333 195.999 -67s75.666 -105.334 84.999 -182.001l-97 -10
c-7.33301 54.667 -27.166 98 -59.499 130s-75.5 48 -129.5 48c-68.667 0 -122.167 -26.167 -160.5 -78.5s-57.5 -122.166 -57.5 -209.499c0 -86 19.167 -156.167 57.5 -210.5s92.5 -81.5 162.5 -81.5c50 0 92 15.5 126 46.5s56 73.167 66 126.5l92 -16
c-14.667 -72 -45.5 -130 -92.5 -174s-110.833 -66 -191.5 -66z" />
    <glyph glyph-name="ccircumflex" unicode="&#x109;" horiz-adv-x="526" 
d="M413 580h-79l-73 100l-73 -100h-79l108 143h88zM275 -12c-70 0 -125.835 23.666 -167.502 70.999s-62.5 111 -62.5 191c0 81.333 20.5 145.333 61.5 192s97.167 70 168.5 70c58.667 0 106 -16 142 -48s57.333 -76.667 64 -134l-87 -10
c-4.66699 38 -17.5 67.167 -38.5 87.5s-48.5 30.5 -82.5 30.5c-43.333 0 -77.166 -16.5 -101.499 -49.5s-36.5 -78.833 -36.5 -137.5c0 -60 12.333 -106.5 37 -139.5s59.334 -49.5 104.001 -49.5c68.667 0 109.667 39.667 123 119l81 -13
c-9.33301 -57.333 -31.833 -101.666 -67.5 -132.999s-81.5 -47 -137.5 -47z" />
    <glyph glyph-name="Cdotaccent" unicode="&#x10a;" horiz-adv-x="694" 
d="M314 753v107h106v-107h-106zM365 -17c-104.667 0 -184.166 35 -238.499 105s-81.5 159.667 -81.5 269c0 112 28 201.667 84 269s135.667 101 239 101c83.333 0 148.666 -22.333 195.999 -67s75.666 -105.334 84.999 -182.001l-97 -10
c-7.33301 54.667 -27.166 98 -59.499 130s-75.5 48 -129.5 48c-68.667 0 -122.167 -26.167 -160.5 -78.5s-57.5 -122.166 -57.5 -209.499c0 -86 19.167 -156.167 57.5 -210.5s92.5 -81.5 162.5 -81.5c50 0 92 15.5 126 46.5s56 73.167 66 126.5l92 -16
c-14.667 -72 -45.5 -130 -92.5 -174s-110.833 -66 -191.5 -66z" />
    <glyph glyph-name="cdotaccent" unicode="&#x10b;" horiz-adv-x="526" 
d="M212 593v107h97v-107h-97zM275 -12c-70 0 -125.835 23.666 -167.502 70.999s-62.5 111 -62.5 191c0 81.333 20.5 145.333 61.5 192s97.167 70 168.5 70c58.667 0 106 -16 142 -48s57.333 -76.667 64 -134l-87 -10c-4.66699 38 -17.5 67.167 -38.5 87.5
s-48.5 30.5 -82.5 30.5c-43.333 0 -77.166 -16.5 -101.499 -49.5s-36.5 -78.833 -36.5 -137.5c0 -60 12.333 -106.5 37 -139.5s59.334 -49.5 104.001 -49.5c68.667 0 109.667 39.667 123 119l81 -13c-9.33301 -57.333 -31.833 -101.666 -67.5 -132.999s-81.5 -47 -137.5 -47
z" />
    <glyph glyph-name="Ccaron" unicode="&#x10c;" horiz-adv-x="694" 
d="M517 856l-97 -108h-106l-97 108h86l64 -72l64 72h86zM365 -17c-104.667 0 -184.166 35 -238.499 105s-81.5 159.667 -81.5 269c0 112 28 201.667 84 269s135.667 101 239 101c83.333 0 148.666 -22.333 195.999 -67s75.666 -105.334 84.999 -182.001l-97 -10
c-7.33301 54.667 -27.166 98 -59.499 130s-75.5 48 -129.5 48c-68.667 0 -122.167 -26.167 -160.5 -78.5s-57.5 -122.166 -57.5 -209.499c0 -86 19.167 -156.167 57.5 -210.5s92.5 -81.5 162.5 -81.5c50 0 92 15.5 126 46.5s56 73.167 66 126.5l92 -16
c-14.667 -72 -45.5 -130 -92.5 -174s-110.833 -66 -191.5 -66z" />
    <glyph glyph-name="ccaron" unicode="&#x10d;" horiz-adv-x="526" 
d="M109 718h79l73 -100l73 100h79l-108 -143h-88zM275 -12c-70 0 -125.835 23.666 -167.502 70.999s-62.5 111 -62.5 191c0 81.333 20.5 145.333 61.5 192s97.167 70 168.5 70c58.667 0 106 -16 142 -48s57.333 -76.667 64 -134l-87 -10
c-4.66699 38 -17.5 67.167 -38.5 87.5s-48.5 30.5 -82.5 30.5c-43.333 0 -77.166 -16.5 -101.499 -49.5s-36.5 -78.833 -36.5 -137.5c0 -60 12.333 -106.5 37 -139.5s59.334 -49.5 104.001 -49.5c68.667 0 109.667 39.667 123 119l81 -13
c-9.33301 -57.333 -31.833 -101.666 -67.5 -132.999s-81.5 -47 -137.5 -47z" />
    <glyph glyph-name="Dcaron" unicode="&#x10e;" horiz-adv-x="715" 
d="M488 856l-97 -108h-106l-97 108h86l64 -72l64 72h86zM100 0l0.000976562 710h233c101.333 0 182.833 -32.5 244.5 -97.5s92.5 -150.5 92.5 -256.5c0 -104.667 -30.833 -190.167 -92.5 -256.5s-143.834 -99.5 -246.501 -99.5h-231zM195.001 80l134 -0.000976562
c74 0 132.5 26.333 175.5 79s64.5 118.334 64.5 197.001c0 81.333 -21 147.333 -63 198s-100.333 76 -175 76h-136v-550z" />
    <glyph glyph-name="dcaron" unicode="&#x10f;" horiz-adv-x="596" 
d="M248 -12c-60.667 0 -109.668 24 -147.001 72s-56 111.333 -56 190c0 76.667 19.833 139.5 59.5 188.5s90.834 73.5 153.501 73.5c66.667 0 115.667 -28.667 147 -86v299h85v-725h-80v93c-31.333 -70 -85.333 -105 -162 -105zM562.999 531l-18 34.998
c18 4.66699 30.167 10.834 36.5 18.501s9.5 19.5 9.5 35.5h-51v90h96v-80c0 -28 -5.66699 -49.667 -17 -65s-30 -26.666 -56 -33.999zM270.999 62.998c41.333 0 74.333 15.833 99 47.5s37 74.167 37 127.5v23c0 54.667 -12.167 97.667 -36.5 129s-57.5 47 -99.5 47
c-42.667 0 -76 -16.5 -100 -49.5s-36 -78.833 -36 -137.5s12 -104.5 36 -137.5s57.333 -49.5 100 -49.5z" />
    <glyph glyph-name="Dcroat" unicode="&#x110;" horiz-adv-x="715" 
d="M333 710c101.333 0 182.834 -32.5 244.501 -97.5s92.5 -150.5 92.5 -256.5c0 -104.667 -30.833 -190.167 -92.5 -256.5s-143.834 -99.5 -246.501 -99.5h-231v335h-86v72h86v303h233zM329.001 80c74 0 132.5 26.332 175.5 78.999s64.5 118.334 64.5 197.001
c0 81.333 -21 147.333 -63 198s-100.333 76 -175 76h-136v-223h175v-72h-175v-255h134z" />
    <glyph glyph-name="dcroat" unicode="&#x111;" horiz-adv-x="585" 
d="M591 643l-0.000976562 -51h-101v-592h-80v93c-31.333 -70 -85.333 -105 -162 -105c-60.667 0 -109.667 24 -147 72s-56 111.333 -56 190c0 76.667 19.833 139.5 59.5 188.5s90.834 73.5 153.501 73.5c66.667 0 115.667 -28.667 147 -86v166h-177v51h177v82h85v-82h101z
M406.999 238v23c0 54.667 -12.167 97.667 -36.5 129s-57.5 47 -99.5 47c-42.667 0 -76 -16.5 -100 -49.5s-36 -78.833 -36 -137.5s12 -104.5 36 -137.5s57.333 -49.5 100 -49.5c41.333 0 74.333 15.833 99 47.5s37 74.167 37 127.5z" />
    <glyph glyph-name="Emacron" unicode="&#x112;" horiz-adv-x="612" 
d="M476 835v-68h-300v68h300zM195 80h352v-80h-447v710h440v-80h-345v-226h328v-80h-328v-244z" />
    <glyph glyph-name="emacron" unicode="&#x113;" horiz-adv-x="535" 
d="M414 681v-68h-298v68h298zM485 285v-59.999h-355c0.666992 -48.667 14.5 -87.834 41.5 -117.501s62.833 -44.5 107.5 -44.5c66 0 110.333 31.667 133 95l70 -31c-35.333 -92.667 -105 -139 -209 -139c-72 0 -128 22.167 -168 66.5s-60 107.5 -60 189.5
c0 84 20 149.667 60 197s95.667 71 167 71c68 0 120.5 -19.333 157.5 -58s55.5 -95 55.5 -169zM399 294.001l-0.00292969 11c0 45.333 -11.167 80 -33.5 104s-54.166 36 -95.499 36c-43.333 0 -77.166 -13.333 -101.499 -40s-37.166 -63.667 -38.499 -111h269z" />
    <glyph glyph-name="Ebreve" unicode="&#x114;" horiz-adv-x="612" 
d="M326 748c-45.333 0 -80.833 9.83301 -106.5 29.5s-40.167 47.5 -43.5 83.5h72c6 -36.667 32 -55 78 -55s72 18.333 78 55h72c-3.33301 -36 -17.833 -63.833 -43.5 -83.5s-61.167 -29.5 -106.5 -29.5zM195 80h352v-80h-447v710h440v-80h-345v-226h328v-80h-328v-244z" />
    <glyph glyph-name="ebreve" unicode="&#x115;" horiz-adv-x="535" 
d="M265 575c-42.667 0 -77.832 12 -105.499 36s-42.5 61.333 -44.5 112h72c1.33301 -29.333 9 -51.166 23 -65.499s32.333 -21.5 55 -21.5s41 7.16699 55 21.5s21.667 36.166 23 65.499h72c-2 -50.667 -16.833 -88 -44.5 -112s-62.834 -36 -105.501 -36zM485.002 285
v-59.999h-355c0.666992 -48.667 14.5 -87.834 41.5 -117.501s62.833 -44.5 107.5 -44.5c66 0 110.333 31.667 133 95l70 -31c-35.333 -92.667 -105 -139 -209 -139c-72 0 -128 22.167 -168 66.5s-60 107.5 -60 189.5c0 84 20 149.667 60 197s95.667 71 167 71
c68 0 120.5 -19.333 157.5 -58s55.5 -95 55.5 -169zM399.002 294.001l-0.00292969 11c0 45.333 -11.167 80 -33.5 104s-54.166 36 -95.499 36c-43.333 0 -77.166 -13.333 -101.499 -40s-37.166 -63.667 -38.499 -111h269z" />
    <glyph glyph-name="Edotaccent" unicode="&#x116;" horiz-adv-x="612" 
d="M379 860v-107h-106v107h106zM195 80h352v-80h-447v710h440v-80h-345v-226h328v-80h-328v-244z" />
    <glyph glyph-name="edotaccent" unicode="&#x117;" horiz-adv-x="535" 
d="M313 700v-107h-97v107h97zM485 285v-59.999h-355c0.666992 -48.667 14.5 -87.834 41.5 -117.501s62.833 -44.5 107.5 -44.5c66 0 110.333 31.667 133 95l70 -31c-35.333 -92.667 -105 -139 -209 -139c-72 0 -128 22.167 -168 66.5s-60 107.5 -60 189.5
c0 84 20 149.667 60 197s95.667 71 167 71c68 0 120.5 -19.333 157.5 -58s55.5 -95 55.5 -169zM399 294.001l-0.00292969 11c0 45.333 -11.167 80 -33.5 104s-54.166 36 -95.499 36c-43.333 0 -77.166 -13.333 -101.499 -40s-37.166 -63.667 -38.499 -111h269z" />
    <glyph glyph-name="Eogonek" unicode="&#x118;" horiz-adv-x="612" 
d="M524 -101l59 -8.00195c-10.667 -62.667 -46 -94 -106 -94c-31.333 0 -56 7.83301 -74 23.5s-27 36.834 -27 63.501c0 49.333 30.333 88 91 116h-367v710h440v-80h-345v-226h328v-80h-328v-244h352v-80c-36.667 -12 -63.667 -27.667 -81 -47s-26 -39.666 -26 -60.999
c0 -27.333 13.333 -41 40 -41c23.333 0 38 16 44 48z" />
    <glyph glyph-name="eogonek" unicode="&#x119;" horiz-adv-x="535" 
d="M485 285v-59.999h-355c0.666992 -48.667 14.5 -87.834 41.5 -117.501s62.833 -44.5 107.5 -44.5c66 0 110.333 31.667 133 95l70 -31c-27.333 -69.333 -74.333 -113 -141 -131c-64 -22.667 -96 -57.334 -96 -104.001c0 -27.333 13.333 -41 40 -41c23.333 0 38 16 44 48
l59 -8c-10.667 -62.667 -46 -94 -106 -94c-31.333 0 -56 7.83301 -74 23.5s-27 36.834 -27 63.501c0 42.667 23.333 77.667 70 105c-65.333 4.66699 -116 29 -152 73s-54 104.667 -54 182c0 84 20 149.667 60 197s95.667 71 167 71c68 0 120.5 -19.333 157.5 -58
s55.5 -95 55.5 -169zM399 294.001l-0.00292969 11c0 45.333 -11.167 80 -33.5 104s-54.166 36 -95.499 36c-43.333 0 -77.166 -13.333 -101.499 -40s-37.166 -63.667 -38.499 -111h269z" />
    <glyph glyph-name="Ecaron" unicode="&#x11a;" horiz-adv-x="612" 
d="M379 748h-106l-97 108h86l64 -72l64 72h86zM195 80h352v-80h-447v710h440v-80h-345v-226h328v-80h-328v-244z" />
    <glyph glyph-name="ecaron" unicode="&#x11b;" horiz-adv-x="535" 
d="M309 575h-88l-108 143h79l73 -100l73 100h79zM485 285v-59.999h-355c0.666992 -48.667 14.5 -87.834 41.5 -117.501s62.833 -44.5 107.5 -44.5c66 0 110.333 31.667 133 95l70 -31c-35.333 -92.667 -105 -139 -209 -139c-72 0 -128 22.167 -168 66.5s-60 107.5 -60 189.5
c0 84 20 149.667 60 197s95.667 71 167 71c68 0 120.5 -19.333 157.5 -58s55.5 -95 55.5 -169zM399 294.001l-0.00292969 11c0 45.333 -11.167 80 -33.5 104s-54.166 36 -95.499 36c-43.333 0 -77.166 -13.333 -101.499 -40s-37.166 -63.667 -38.499 -111h269z" />
    <glyph glyph-name="Gcircumflex" unicode="&#x11c;" horiz-adv-x="721" 
d="M516 753h-86l-64 72l-64 -72h-86l97 108h106zM356 -17c-95.333 0 -171.002 34.668 -227.002 104.001s-84 158.666 -84 267.999c0 111.333 28.833 201.166 86.5 269.499s137.834 102.5 240.501 102.5c37.333 0 71.333 -5 102 -15s55.667 -22.5 75 -37.5s36 -32.667 50 -53
s24.167 -39.333 30.5 -57s10.833 -35.167 13.5 -52.5l-94 -13c-6.66699 38.667 -24.167 73 -52.5 103s-70.833 45 -127.5 45c-71.333 0 -127 -26.833 -167 -80.5s-60 -124.5 -60 -212.5c0 -85.333 19.5 -155 58.5 -209s95.5 -81 169.5 -81
c33.333 0 62.666 5.33301 87.999 16s44.833 23.834 58.5 39.501s24.834 34 33.501 55s14.334 39.667 17.001 56s4 32.5 4 48.5v12h-208v80h293v-371h-69l-13 114c-16 -39.333 -43.333 -71 -82 -95s-84 -36 -136 -36z" />
    <glyph glyph-name="gcircumflex" unicode="&#x11d;" horiz-adv-x="530" 
d="M263 680l-73 -87h-79l108 130h88l108 -130h-79zM474 508c-38 0 -63 -15.6689 -75 -47.002c30.667 -30.667 46 -70 46 -118c0 -50 -16.667 -91 -50 -123s-78.333 -48 -135 -48c-34.667 0 -66.667 7 -96 21c-24 -10 -36 -26.333 -36 -49c0 -34 27.667 -51 83 -51h122
c56 0 98.333 -12.167 127 -36.5s43 -59.166 43 -104.499c0 -49.333 -20.333 -88.166 -61 -116.499s-103 -42.5 -187 -42.5c-150 0 -225 45.667 -225 137c0 24 7 45.167 21 63.5s34 31.833 60 40.5c-38.667 17.333 -58 46.333 -58 87c0 48.667 23.667 82 71 100
c-32.667 31.333 -49 72 -49 122c0 49.333 16.667 89.833 50 121.5s78.333 47.5 135 47.5c35.333 0 68 -7 98 -21c18 60.667 57.667 91 119 91c12 0 23 -1.33301 33 -4v-74c-13.333 2.66699 -25.333 4 -36 4zM260 236.998c31.333 0 56.667 9.83105 76 29.498
s29 44.834 29 75.501s-9.66699 55.834 -29 75.501s-44.666 29.5 -75.999 29.5c-32 0 -57.5 -9.66699 -76.5 -29s-28.5 -44.333 -28.5 -75s9.66699 -56 29 -76s44.666 -30 75.999 -30zM314.001 17.9961h-106c-10.667 0 -24.667 0.666992 -42 2c-35.333 -16 -53 -41 -53 -75
c0 -54.667 50.667 -82 152 -82c102 0 153 27.667 153 83c0 48 -34.667 72 -104 72z" />
    <glyph glyph-name="Gbreve" unicode="&#x11e;" horiz-adv-x="721" 
d="M288 861c6 -36.667 32 -55 78 -55s72 18.333 78 55h72c-3.33301 -36 -17.833 -63.833 -43.5 -83.5s-61.167 -29.5 -106.5 -29.5s-80.833 9.83301 -106.5 29.5s-40.167 47.5 -43.5 83.5h72zM356 -17c-95.333 0 -171.002 34.668 -227.002 104.001s-84 158.666 -84 267.999
c0 111.333 28.833 201.166 86.5 269.499s137.834 102.5 240.501 102.5c37.333 0 71.333 -5 102 -15s55.667 -22.5 75 -37.5s36 -32.667 50 -53s24.167 -39.333 30.5 -57s10.833 -35.167 13.5 -52.5l-94 -13c-6.66699 38.667 -24.167 73 -52.5 103s-70.833 45 -127.5 45
c-71.333 0 -127 -26.833 -167 -80.5s-60 -124.5 -60 -212.5c0 -85.333 19.5 -155 58.5 -209s95.5 -81 169.5 -81c33.333 0 62.666 5.33301 87.999 16s44.833 23.834 58.5 39.501s24.834 34 33.501 55s14.334 39.667 17.001 56s4 32.5 4 48.5v12h-208v80h293v-371h-69
l-13 114c-16 -39.333 -43.333 -71 -82 -95s-84 -36 -136 -36z" />
    <glyph glyph-name="gbreve" unicode="&#x11f;" horiz-adv-x="530" 
d="M263 575c-42.667 0 -77.832 12 -105.499 36s-42.5 61.333 -44.5 112h72c1.33301 -29.333 9 -51.166 23 -65.499s32.333 -21.5 55 -21.5s41 7.16699 55 21.5s21.667 36.166 23 65.499h72c-2 -50.667 -16.833 -88 -44.5 -112s-62.834 -36 -105.501 -36zM474.002 508
c-38 0 -63 -15.6689 -75 -47.002c30.667 -30.667 46 -70 46 -118c0 -50 -16.667 -91 -50 -123s-78.333 -48 -135 -48c-34.667 0 -66.667 7 -96 21c-24 -10 -36 -26.333 -36 -49c0 -34 27.667 -51 83 -51h122c56 0 98.333 -12.167 127 -36.5s43 -59.166 43 -104.499
c0 -49.333 -20.333 -88.166 -61 -116.499s-103 -42.5 -187 -42.5c-150 0 -225 45.667 -225 137c0 24 7 45.167 21 63.5s34 31.833 60 40.5c-38.667 17.333 -58 46.333 -58 87c0 48.667 23.667 82 71 100c-32.667 31.333 -49 72 -49 122c0 49.333 16.667 89.833 50 121.5
s78.333 47.5 135 47.5c35.333 0 68 -7 98 -21c18 60.667 57.667 91 119 91c12 0 23 -1.33301 33 -4v-74c-13.333 2.66699 -25.333 4 -36 4zM260.002 236.998c31.333 0 56.667 9.83105 76 29.498s29 44.834 29 75.501s-9.66699 55.834 -29 75.501s-44.666 29.5 -75.999 29.5
c-32 0 -57.5 -9.66699 -76.5 -29s-28.5 -44.333 -28.5 -75s9.66699 -56 29 -76s44.666 -30 75.999 -30zM314.003 17.9961h-106c-10.667 0 -24.667 0.666992 -42 2c-35.333 -16 -53 -41 -53 -75c0 -54.667 50.667 -82 152 -82c102 0 153 27.667 153 83
c0 48 -34.667 72 -104 72z" />
    <glyph glyph-name="Gdotaccent" unicode="&#x120;" horiz-adv-x="721" 
d="M313 753v107h106v-107h-106zM356 -17c-95.333 0 -171.002 34.668 -227.002 104.001s-84 158.666 -84 267.999c0 111.333 28.833 201.166 86.5 269.499s137.834 102.5 240.501 102.5c37.333 0 71.333 -5 102 -15s55.667 -22.5 75 -37.5s36 -32.667 50 -53
s24.167 -39.333 30.5 -57s10.833 -35.167 13.5 -52.5l-94 -13c-6.66699 38.667 -24.167 73 -52.5 103s-70.833 45 -127.5 45c-71.333 0 -127 -26.833 -167 -80.5s-60 -124.5 -60 -212.5c0 -85.333 19.5 -155 58.5 -209s95.5 -81 169.5 -81
c33.333 0 62.666 5.33301 87.999 16s44.833 23.834 58.5 39.501s24.834 34 33.501 55s14.334 39.667 17.001 56s4 32.5 4 48.5v12h-208v80h293v-371h-69l-13 114c-16 -39.333 -43.333 -71 -82 -95s-84 -36 -136 -36z" />
    <glyph glyph-name="gdotaccent" unicode="&#x121;" horiz-adv-x="530" 
d="M311 700v-107h-97v107h97zM474 508c-38 0 -63 -15.6689 -75 -47.002c30.667 -30.667 46 -70 46 -118c0 -50 -16.667 -91 -50 -123s-78.333 -48 -135 -48c-34.667 0 -66.667 7 -96 21c-24 -10 -36 -26.333 -36 -49c0 -34 27.667 -51 83 -51h122
c56 0 98.333 -12.167 127 -36.5s43 -59.166 43 -104.499c0 -49.333 -20.333 -88.166 -61 -116.499s-103 -42.5 -187 -42.5c-150 0 -225 45.667 -225 137c0 24 7 45.167 21 63.5s34 31.833 60 40.5c-38.667 17.333 -58 46.333 -58 87c0 48.667 23.667 82 71 100
c-32.667 31.333 -49 72 -49 122c0 49.333 16.667 89.833 50 121.5s78.333 47.5 135 47.5c35.333 0 68 -7 98 -21c18 60.667 57.667 91 119 91c12 0 23 -1.33301 33 -4v-74c-13.333 2.66699 -25.333 4 -36 4zM260 236.998c31.333 0 56.667 9.83105 76 29.498
s29 44.834 29 75.501s-9.66699 55.834 -29 75.501s-44.666 29.5 -75.999 29.5c-32 0 -57.5 -9.66699 -76.5 -29s-28.5 -44.333 -28.5 -75s9.66699 -56 29 -76s44.666 -30 75.999 -30zM314.001 17.9961h-106c-10.667 0 -24.667 0.666992 -42 2c-35.333 -16 -53 -41 -53 -75
c0 -54.667 50.667 -82 152 -82c102 0 153 27.667 153 83c0 48 -34.667 72 -104 72z" />
    <glyph glyph-name="Gcommaaccent" unicode="&#x122;" horiz-adv-x="721" 
d="M356 -17c-95.333 0 -171.002 34.668 -227.002 104.001s-84 158.666 -84 267.999c0 111.333 28.833 201.166 86.5 269.499s137.834 102.5 240.501 102.5c37.333 0 71.333 -5 102 -15s55.667 -22.5 75 -37.5s36 -32.667 50 -53s24.167 -39.333 30.5 -57
s10.833 -35.167 13.5 -52.5l-94 -13c-6.66699 38.667 -24.167 73 -52.5 103s-70.833 45 -127.5 45c-71.333 0 -127 -26.833 -167 -80.5s-60 -124.5 -60 -212.5c0 -85.333 19.5 -155 58.5 -209s95.5 -81 169.5 -81c33.333 0 62.666 5.33301 87.999 16
s44.833 23.834 58.5 39.501s24.834 34 33.501 55s14.334 39.667 17.001 56s4 32.5 4 48.5v12h-208v80h293v-371h-69l-13 114c-16 -39.333 -43.333 -71 -82 -95s-84 -36 -136 -36zM341.998 -236.999l-20.001 38c20 6.66699 32.833 14.334 38.5 23.001s8.5 22 8.5 40h-51v90
h96v-80c0 -28.667 -5.16699 -51.834 -15.5 -69.501s-29.166 -31.5 -56.499 -41.5z" />
    <glyph glyph-name="gcommaaccent" unicode="&#x123;" horiz-adv-x="530" 
d="M312 670l0.000976562 -90h-96v80c0 28.667 5.16699 51.834 15.5 69.501s29.166 31.5 56.499 41.5l20 -38c-20 -6.66699 -32.833 -14.334 -38.5 -23.001s-8.5 -22 -8.5 -40h51zM474.001 508c-38 0 -63 -15.6689 -75 -47.002c30.667 -30.667 46 -70 46 -118
c0 -50 -16.667 -91 -50 -123s-78.333 -48 -135 -48c-34.667 0 -66.667 7 -96 21c-24 -10 -36 -26.333 -36 -49c0 -34 27.667 -51 83 -51h122c56 0 98.333 -12.167 127 -36.5s43 -59.166 43 -104.499c0 -49.333 -20.333 -88.166 -61 -116.499s-103 -42.5 -187 -42.5
c-150 0 -225 45.667 -225 137c0 24 7 45.167 21 63.5s34 31.833 60 40.5c-38.667 17.333 -58 46.333 -58 87c0 48.667 23.667 82 71 100c-32.667 31.333 -49 72 -49 122c0 49.333 16.667 89.833 50 121.5s78.333 47.5 135 47.5c35.333 0 68 -7 98 -21
c18 60.667 57.667 91 119 91c12 0 23 -1.33301 33 -4v-74c-13.333 2.66699 -25.333 4 -36 4zM260.001 236.998c31.333 0 56.667 9.83105 76 29.498s29 44.834 29 75.501s-9.66699 55.834 -29 75.501s-44.666 29.5 -75.999 29.5c-32 0 -57.5 -9.66699 -76.5 -29
s-28.5 -44.333 -28.5 -75s9.66699 -56 29 -76s44.666 -30 75.999 -30zM314.002 17.9961h-106c-10.667 0 -24.667 0.666992 -42 2c-35.333 -16 -53 -41 -53 -75c0 -54.667 50.667 -82 152 -82c102 0 153 27.667 153 83c0 48 -34.667 72 -104 72z" />
    <glyph glyph-name="Hcircumflex" unicode="&#x124;" horiz-adv-x="748" 
d="M524 753h-86l-64 72l-64 -72h-86l97 108h106zM648 710v-710h-95v323h-358v-323h-95v710h95v-307h358v307h95z" />
    <glyph glyph-name="hcircumflex" unicode="&#x125;" horiz-adv-x="584" 
d="M288 753h-86l-64 72l-64 -72h-86l97 108h106zM95 0v725h85v-319c30.667 72 85.334 108 164.001 108c54 0 95 -17.167 123 -51.5s42 -84.833 42 -151.5v-311h-85v305c0 89.333 -36.333 134 -109 134c-42.667 0 -75.834 -15.5 -99.501 -46.5s-35.5 -74.833 -35.5 -131.5
v-261h-85z" />
    <glyph glyph-name="Hbar" unicode="&#x126;" horiz-adv-x="748" 
d="M722 579v-59h-74v-520h-95v323h-358v-323h-95v520h-74v59h74v131h95v-131h358v131h95v-131h74zM553 403v117h-358v-117h358z" />
    <glyph glyph-name="hbar" unicode="&#x127;" horiz-adv-x="568" 
d="M344 514c54 0 95 -17.167 123 -51.5s42 -84.833 42 -151.5v-311h-85v305c0 89.333 -36.333 134 -109 134c-42.667 0 -75.834 -15.5 -99.501 -46.5s-35.5 -74.833 -35.5 -131.5v-261h-85v579h-95v51h95v95h85v-95h203v-51h-203v-173c30.667 72 85.334 108 164.001 108z
" />
    <glyph glyph-name="Itilde" unicode="&#x128;" horiz-adv-x="295" 
d="M202 748c-20.667 0 -41.167 8.16699 -61.5 24.5s-35.166 24.5 -44.499 24.5c-14.667 0 -23 -12.333 -25 -37l-58 11c1.33301 28 9.66602 50.167 24.999 66.5s34.666 24.5 57.999 24.5c20.667 0 41.167 -8.16699 61.5 -24.5s35.166 -24.5 44.499 -24.5
c14.667 0 23 12.333 25 37l58 -11c-1.33301 -28 -9.66602 -50.167 -24.999 -66.5s-34.666 -24.5 -57.999 -24.5zM195 0h-95v710h95v-710z" />
    <glyph glyph-name="itilde" unicode="&#x129;" horiz-adv-x="265" 
d="M187 587c-14 0 -26.833 5.5 -38.5 16.5s-21.834 22 -30.501 33s-16.667 16.5 -24 16.5c-15.333 0 -24.666 -17.333 -27.999 -52l-58 11c8 72.667 36.333 109 85 109c14 0 26.833 -5.5 38.5 -16.5s21.834 -22 30.501 -33s16.667 -16.5 24 -16.5
c15.333 0 24.666 17.333 27.999 52l58 -11c-8 -72.667 -36.333 -109 -85 -109zM90 0v500h85v-500h-85z" />
    <glyph glyph-name="Imacron" unicode="&#x12a;" horiz-adv-x="295" 
d="M33 767v68h230v-68h-230zM195 0h-95v710h95v-710z" />
    <glyph glyph-name="imacron" unicode="&#x12b;" horiz-adv-x="265" 
d="M19 613v68h228v-68h-228zM90 0v500h85v-500h-85z" />
    <glyph glyph-name="Ibreve" unicode="&#x12c;" horiz-adv-x="295" 
d="M94 861c1.33301 -34.667 19.333 -52 54 -52s52.667 17.333 54 52h72c-0.666992 -36 -12 -63.833 -34 -83.5s-52.667 -29.5 -92 -29.5s-70 9.83301 -92 29.5s-33.333 47.5 -34 83.5h72zM195 0h-95v710h95v-710z" />
    <glyph glyph-name="ibreve" unicode="&#x12d;" horiz-adv-x="265" 
d="M91 723c0 -33.333 3.33105 -56.166 9.99805 -68.499s17.334 -18.5 32.001 -18.5s25.334 6.16699 32.001 18.5s10 35.166 10 68.499h72c-0.666992 -98.667 -38.667 -148 -114 -148s-113.333 49.333 -114 148h72zM89.998 0v500h85v-500h-85z" />
    <glyph glyph-name="Iogonek" unicode="&#x12e;" horiz-adv-x="295" 
d="M157 -101l59 -8.00195c-10.667 -62.667 -46 -94 -106 -94c-31.333 0 -56 7.83301 -74 23.5s-27 36.834 -27 63.501c0 49.333 30.333 88 91 116v710h95v-710h-15c-36.667 -12 -63.667 -27.667 -81 -47s-26 -39.666 -26 -60.999c0 -27.333 13.333 -41 40 -41
c23.333 0 38 16 44 48z" />
    <glyph glyph-name="iogonek" unicode="&#x12f;" horiz-adv-x="265" 
d="M181 700v-107h-97v107h97zM147 -101l59 -8.00195c-10.667 -62.667 -46 -94 -106 -94c-31.333 0 -56 7.83301 -74 23.5s-27 36.834 -27 63.501c0 49.333 30.333 88 91 116v500h85v-500h-5c-36.667 -12 -63.667 -27.667 -81 -47s-26 -39.666 -26 -60.999
c0 -27.333 13.333 -41 40 -41c23.333 0 38 16 44 48z" />
    <glyph glyph-name="Idotaccent" unicode="&#x130;" horiz-adv-x="295" 
d="M95 753v107h106v-107h-106zM195 0h-95v710h95v-710z" />
    <glyph glyph-name="dotlessi" unicode="&#x131;" horiz-adv-x="265" 
d="M90 0v500h85v-500h-85z" />
    <glyph glyph-name="IJ" unicode="&#x132;" horiz-adv-x="689" 
d="M195 0h-95v710h95v-710zM604 186c0 -73.333 -19.166 -125.499 -57.499 -156.499s-87.833 -46.5 -148.5 -46.5c-38.667 0 -66.334 2.33301 -83.001 7v88c18.667 -3.33301 46.667 -5 84 -5c33.333 0 60 8.66699 80 26s30 48.666 30 93.999v517h95v-524z" />
    <glyph glyph-name="ij" unicode="&#x133;" horiz-adv-x="528" 
d="M84 593v107h97v-107h-97zM347 593v107h97v-107h-97zM90 0v500h85v-500h-85zM311 -202c-26 0 -46.3311 1.99902 -60.998 5.99902v73c19.333 -1.33301 35.666 -2 48.999 -2c19.333 0 33.166 5.83301 41.499 17.5s12.5 33.834 12.5 66.501v541h85v-550
c0 -101.333 -42.333 -152 -127 -152z" />
    <glyph glyph-name="Jcircumflex" unicode="&#x134;" horiz-adv-x="394" 
d="M388 753h-82l-44 72l-44 -72h-82l73 108h106zM309 186c0 -73.333 -19.167 -125.499 -57.5 -156.499s-87.833 -46.5 -148.5 -46.5c-39.333 0 -67 2.33301 -83 7v88c18.667 -3.33301 46.667 -5 84 -5c33.333 0 60 8.66699 80 26s30 48.666 30 93.999v517h95v-524z" />
    <glyph glyph-name="jcircumflex" unicode="&#x135;" horiz-adv-x="263" 
d="M253 580h-74l-48 101l-48 -101h-74l78 143h88zM46 -202c-26 0 -46.3311 1.99902 -60.998 5.99902v73c19.333 -1.33301 35.666 -2 48.999 -2c19.333 0 33.166 5.83301 41.499 17.5s12.5 33.834 12.5 66.501v541h85v-550c0 -101.333 -42.333 -152 -127 -152z" />
    <glyph glyph-name="Kcommaaccent" unicode="&#x136;" horiz-adv-x="668" 
d="M365 426l283 -426h-111l-237 358l-105 -116v-242h-95v710h95v-352l312 352h119l-255 -278zM296 -136l-0.000976562 90h96v-80c0 -28.667 -5.16699 -51.834 -15.5 -69.501s-29.166 -31.5 -56.499 -41.5l-20 38c20 6.66699 32.833 14.334 38.5 23.001s8.5 22 8.5 40h-51z
" />
    <glyph glyph-name="kcommaaccent" unicode="&#x137;" horiz-adv-x="542" 
d="M332 307l195 -307h-105l-151 245l-91 -92v-153h-85v725h85v-471l224 246h111zM223 -136l-0.000976562 90h96v-80c0 -28.667 -5.16699 -51.834 -15.5 -69.501s-29.166 -31.5 -56.499 -41.5l-20 38c20 6.66699 32.833 14.334 38.5 23.001s8.5 22 8.5 40h-51z" />
    <glyph glyph-name="kgreenlandic" unicode="&#x138;" horiz-adv-x="537" 
d="M417 0l-151 245l-91 -92v-153h-85v500h85v-246l224 246h111l-183 -193l195 -307h-105z" />
    <glyph glyph-name="Lacute" unicode="&#x139;" horiz-adv-x="543" 
d="M108 753l90 108h94l-104 -108h-80zM100 0v710h95v-630h328v-80h-423z" />
    <glyph glyph-name="lacute" unicode="&#x13a;" horiz-adv-x="275" 
d="M98 753l90 108h94l-104 -108h-80zM180 725v-725h-85v725h85z" />
    <glyph glyph-name="Lcommaaccent" unicode="&#x13b;" horiz-adv-x="543" 
d="M100 0v710h95v-630h328v-80h-423zM278 -237l-20.001 38c20 6.66699 32.833 14.334 38.5 23.001s8.5 22 8.5 40h-51v90h96v-80c0 -28.667 -5.16699 -51.834 -15.5 -69.501s-29.166 -31.5 -56.499 -41.5z" />
    <glyph glyph-name="lcommaaccent" unicode="&#x13c;" horiz-adv-x="275" 
d="M180 725v-725h-85v725h85zM114 -237l-20.001 38c20 6.66699 32.833 14.334 38.5 23.001s8.5 22 8.5 40h-51v90h96v-80c0 -28.667 -5.16699 -51.834 -15.5 -69.501s-29.166 -31.5 -56.499 -41.5z" />
    <glyph glyph-name="Lcaron" unicode="&#x13d;" horiz-adv-x="543" 
d="M100 0v710h95v-630h328v-80h-423zM296 531l-18 34.998c18 4.66699 30.167 10.834 36.5 18.501s9.5 19.5 9.5 35.5h-51v90h96v-80c0 -28 -5.66699 -49.667 -17 -65s-30 -26.666 -56 -33.999z" />
    <glyph glyph-name="lcaron" unicode="&#x13e;" horiz-adv-x="286" 
d="M180 725v-725h-85v725h85zM253 531l-18 34.998c18 4.66699 30.167 10.834 36.5 18.501s9.5 19.5 9.5 35.5h-51v90h96v-80c0 -28 -5.66699 -49.667 -17 -65s-30 -26.666 -56 -33.999z" />
    <glyph glyph-name="Ldot" unicode="&#x13f;" horiz-adv-x="543" 
d="M100 0v710h95v-630h328v-80h-423zM425 500v-118h-117v118h117z" />
    <glyph glyph-name="ldot" unicode="&#x140;" horiz-adv-x="364" 
d="M180 725v-725h-85v725h85zM378 500v-118h-117v118h117z" />
    <glyph glyph-name="Lslash" unicode="&#x141;" horiz-adv-x="543" 
d="M195 80h328v-80h-423v267l-95 -49v75l95 49v368h95v-318l215 112v-75l-215 -112v-237z" />
    <glyph glyph-name="lslash" unicode="&#x142;" horiz-adv-x="275" 
d="M230 516v-62l-50 -47v-407h-85v327l-50 -47v62l50 47v336h85v-256z" />
    <glyph glyph-name="Nacute" unicode="&#x143;" horiz-adv-x="744" 
d="M332 753l90 108h94l-104 -108h-80zM100 0v710h115l301 -517c20 -34.667 34.667 -65 44 -91h2c-2 24.667 -3 56 -3 94v514h85v-710h-115l-301 517c-21.333 37.333 -36 67.666 -44 90.999h-2c2 -25.333 3 -56.666 3 -93.999v-514h-85z" />
    <glyph glyph-name="nacute" unicode="&#x144;" horiz-adv-x="579" 
d="M276 580l92 143h104l-118 -143h-78zM90 0l-0.000976562 500h80v-99c32.667 75.333 88.334 113 167.001 113c111.333 0 167 -67.667 167 -203v-311h-85v306c0 88.667 -36.667 133 -110 133c-41.333 0 -74 -15.833 -98 -47.5s-36 -75.167 -36 -130.5v-261h-85z" />
    <glyph glyph-name="Ncommaaccent" unicode="&#x145;" horiz-adv-x="744" 
d="M100 0v710h115l301 -517c20 -34.667 34.667 -65 44 -91h2c-2 24.667 -3 56 -3 94v514h85v-710h-115l-301 517c-21.333 37.333 -36 67.666 -44 90.999h-2c2 -25.333 3 -56.666 3 -93.999v-514h-85zM348 -237l-20.001 38c20 6.66699 32.833 14.334 38.5 23.001
s8.5 22 8.5 40h-51v90h96v-80c0 -28.667 -5.16699 -51.834 -15.5 -69.501s-29.166 -31.5 -56.499 -41.5z" />
    <glyph glyph-name="ncommaaccent" unicode="&#x146;" horiz-adv-x="579" 
d="M90 0l-0.000976562 500h80v-99c32.667 75.333 88.334 113 167.001 113c111.333 0 167 -67.667 167 -203v-311h-85v306c0 88.667 -36.667 133 -110 133c-41.333 0 -74 -15.833 -98 -47.5s-36 -75.167 -36 -130.5v-261h-85zM265.999 -237l-20.001 38
c20 6.66699 32.833 14.334 38.5 23.001s8.5 22 8.5 40h-51v90h96v-80c0 -28.667 -5.16699 -51.834 -15.5 -69.501s-29.166 -31.5 -56.499 -41.5z" />
    <glyph glyph-name="Ncaron" unicode="&#x147;" horiz-adv-x="744" 
d="M522 856l-97 -108h-106l-97 108h86l64 -72l64 72h86zM100 0v710h115l301 -517c20 -34.667 34.667 -65 44 -91h2c-2 24.667 -3 56 -3 94v514h85v-710h-115l-301 517c-21.333 37.333 -36 67.666 -44 90.999h-2c2 -25.333 3 -56.666 3 -93.999v-514h-85z" />
    <glyph glyph-name="ncaron" unicode="&#x148;" horiz-adv-x="579" 
d="M161 718h79l73 -100l73 100h79l-108 -143h-88zM90 0l-0.000976562 500h80v-99c32.667 75.333 88.334 113 167.001 113c111.333 0 167 -67.667 167 -203v-311h-85v306c0 88.667 -36.667 133 -110 133c-41.333 0 -74 -15.833 -98 -47.5s-36 -75.167 -36 -130.5v-261h-85z
" />
    <glyph glyph-name="napostrophe" unicode="&#x149;" horiz-adv-x="579" 
d="M58 531l-18 34.998c18 4.66699 30.167 10.834 36.5 18.501s9.5 19.5 9.5 35.5h-51v90h96v-80c0 -28 -5.66699 -49.667 -17 -65s-30 -26.666 -56 -33.999zM90 -0.00195312l-0.000976562 500h80v-99c32.667 75.333 88.334 113 167.001 113c111.333 0 167 -67.667 167 -203
v-311h-85v306c0 88.667 -36.667 133 -110 133c-41.333 0 -74 -15.833 -98 -47.5s-36 -75.167 -36 -130.5v-261h-85z" />
    <glyph glyph-name="Eng" unicode="&#x14a;" horiz-adv-x="744" 
d="M559 710h85.001v-724c0 -70 -17.667 -119.833 -53 -149.5s-81 -44.5 -137 -44.5c-30.667 0 -58.334 2.33301 -83.001 7v83c22.667 -4 50.667 -6 84 -6c69.333 0 104 32.333 104 97v27h-30l-301 517c-21.333 37.333 -36 67.666 -44 90.999h-2
c2 -25.333 3 -56.666 3 -93.999v-514h-85v710h115l301 -517c20 -34.667 34.667 -65 44 -91h2c-2 24.667 -3 56 -3 94v514z" />
    <glyph glyph-name="eng" unicode="&#x14b;" horiz-adv-x="579" 
d="M337 514c111.333 0 167.001 -67.667 167.001 -203v-335c0 -56.667 -9.33301 -100.5 -28 -131.5s-51.334 -46.5 -98.001 -46.5c-22.667 0 -43 2 -61 6v73c14.667 -1.33301 28.667 -2 42 -2c23.333 0 39.166 6.66699 47.499 20s12.5 36 12.5 68v343
c0 88.667 -36.667 133 -110 133c-41.333 0 -74 -15.833 -98 -47.5s-36 -75.167 -36 -130.5v-261h-85v500h80v-99c32.667 75.333 88.334 113 167.001 113z" />
    <glyph glyph-name="Omacron" unicode="&#x14c;" horiz-adv-x="739" 
d="M220 767v68h300v-68h-300zM370 -17c-98.667 0 -177.5 33.6689 -236.5 101.002s-88.5 157.666 -88.5 270.999c0 115.333 29.333 206.166 88 272.499s137.667 99.5 237 99.5c98.667 0 177.334 -33.167 236.001 -99.5s88 -157.166 88 -272.499
c0 -114.667 -29.333 -205.334 -88 -272.001s-137.334 -100 -236.001 -100zM370 63.002c70.667 0 125.667 25.833 165 77.5s59 123.167 59 214.5s-19.667 162.833 -59 214.5s-94.333 77.5 -165 77.5s-125.834 -25.833 -165.501 -77.5s-59.5 -123.167 -59.5 -214.5
c0 -90 19.833 -161.167 59.5 -213.5s94.834 -78.5 165.501 -78.5z" />
    <glyph glyph-name="omacron" unicode="&#x14d;" horiz-adv-x="556" 
d="M129 613v68h298v-68h-298zM278 -12c-70.667 0 -127.167 23.5 -169.5 70.5s-63.5 110.833 -63.5 191.5s21.167 144.5 63.5 191.5s98.833 70.5 169.5 70.5s127.167 -23.5 169.5 -70.5s63.5 -110.833 63.5 -191.5s-21.167 -144.5 -63.5 -191.5s-98.833 -70.5 -169.5 -70.5z
M278 62c45.333 0 80.5 16 105.5 48s37.5 78.667 37.5 140s-12.5 108 -37.5 140s-60.167 48 -105.5 48s-80.5 -16 -105.5 -48s-37.5 -78.667 -37.5 -140s12.5 -108 37.5 -140s60.167 -48 105.5 -48z" />
    <glyph glyph-name="Obreve" unicode="&#x14e;" horiz-adv-x="739" 
d="M292 861c6 -36.667 32 -55 78 -55s72 18.333 78 55h72c-3.33301 -36 -17.833 -63.833 -43.5 -83.5s-61.167 -29.5 -106.5 -29.5s-80.833 9.83301 -106.5 29.5s-40.167 47.5 -43.5 83.5h72zM370 -17c-98.667 0 -177.5 33.6689 -236.5 101.002s-88.5 157.666 -88.5 270.999
c0 115.333 29.333 206.166 88 272.499s137.667 99.5 237 99.5c98.667 0 177.334 -33.167 236.001 -99.5s88 -157.166 88 -272.499c0 -114.667 -29.333 -205.334 -88 -272.001s-137.334 -100 -236.001 -100zM370 63.002c70.667 0 125.667 25.833 165 77.5
s59 123.167 59 214.5s-19.667 162.833 -59 214.5s-94.333 77.5 -165 77.5s-125.834 -25.833 -165.501 -77.5s-59.5 -123.167 -59.5 -214.5c0 -90 19.833 -161.167 59.5 -213.5s94.834 -78.5 165.501 -78.5z" />
    <glyph glyph-name="obreve" unicode="&#x14f;" horiz-adv-x="556" 
d="M200 723c1.33301 -29.333 9.00195 -51.166 23.002 -65.499s32.333 -21.5 55 -21.5s41 7.16699 55 21.5s21.667 36.166 23 65.499h72c-2 -50.667 -16.833 -88 -44.5 -112s-62.834 -36 -105.501 -36s-77.834 12 -105.501 36s-42.5 61.333 -44.5 112h72zM278.002 -12
c-70.667 0 -127.167 23.5 -169.5 70.5s-63.5 110.833 -63.5 191.5s21.167 144.5 63.5 191.5s98.833 70.5 169.5 70.5s127.167 -23.5 169.5 -70.5s63.5 -110.833 63.5 -191.5s-21.167 -144.5 -63.5 -191.5s-98.833 -70.5 -169.5 -70.5zM278.002 62c45.333 0 80.5 16 105.5 48
s37.5 78.667 37.5 140s-12.5 108 -37.5 140s-60.167 48 -105.5 48s-80.5 -16 -105.5 -48s-37.5 -78.667 -37.5 -140s12.5 -108 37.5 -140s60.167 -48 105.5 -48z" />
    <glyph glyph-name="Ohungarumlaut" unicode="&#x150;" horiz-adv-x="739" 
d="M252 753l95 108h91l-102 -108h-84zM404 753l95 108h91l-102 -108h-84zM370 -17c-98.667 0 -177.5 33.6689 -236.5 101.002s-88.5 157.666 -88.5 270.999c0 115.333 29.333 206.166 88 272.499s137.667 99.5 237 99.5c98.667 0 177.334 -33.167 236.001 -99.5
s88 -157.166 88 -272.499c0 -114.667 -29.333 -205.334 -88 -272.001s-137.334 -100 -236.001 -100zM370 63.002c70.667 0 125.667 25.833 165 77.5s59 123.167 59 214.5s-19.667 162.833 -59 214.5s-94.333 77.5 -165 77.5s-125.834 -25.833 -165.501 -77.5
s-59.5 -123.167 -59.5 -214.5c0 -90 19.833 -161.167 59.5 -213.5s94.834 -78.5 165.501 -78.5z" />
    <glyph glyph-name="ohungarumlaut" unicode="&#x151;" horiz-adv-x="556" 
d="M164 580l86 143h82l-93 -143h-75zM316 580l86 143h82l-93 -143h-75zM278 -12c-70.667 0 -127.167 23.5 -169.5 70.5s-63.5 110.833 -63.5 191.5s21.167 144.5 63.5 191.5s98.833 70.5 169.5 70.5s127.167 -23.5 169.5 -70.5s63.5 -110.833 63.5 -191.5
s-21.167 -144.5 -63.5 -191.5s-98.833 -70.5 -169.5 -70.5zM278 62c45.333 0 80.5 16 105.5 48s37.5 78.667 37.5 140s-12.5 108 -37.5 140s-60.167 48 -105.5 48s-80.5 -16 -105.5 -48s-37.5 -78.667 -37.5 -140s12.5 -108 37.5 -140s60.167 -48 105.5 -48z" />
    <glyph glyph-name="OE" unicode="&#x152;" horiz-adv-x="985" 
d="M568 80l352 -0.000976562v-80h-521c-110 0 -196.5 32.333 -259.5 97s-94.5 151 -94.5 259c0 108.667 31.5 194.834 94.5 258.501s148.833 95.5 257.5 95.5h516v-80h-345v-226h328v-80h-328v-244zM399 79.999l74 -0.000976562v550h-76c-80 0 -142.167 -25 -186.5 -75
s-66.5 -116.333 -66.5 -199c0 -81.333 23 -147.666 69 -198.999s108 -77 186 -77z" />
    <glyph glyph-name="oe" unicode="&#x153;" horiz-adv-x="911" 
d="M861 285v-59.999h-355c0.666992 -48.667 14.5 -87.834 41.5 -117.501s62.833 -44.5 107.5 -44.5c66 0 110.333 31.667 133 95l70 -31c-35.333 -92.667 -105 -139 -209 -139c-87.333 0 -150.333 31.667 -189 95c-39.333 -63.333 -100 -95 -182 -95
c-70 0 -126.333 24 -169 72s-64 111.333 -64 190c0 79.333 21.167 142.833 63.5 190.5s98.833 71.5 169.5 71.5c84 0 145.333 -32.667 184 -98c39.333 65.333 101.333 98 186 98c68 0 120.5 -19.333 157.5 -58s55.5 -95 55.5 -169zM775 294.001l-0.00292969 11
c0 45.333 -11.167 80 -33.5 104s-54.166 36 -95.499 36c-43.333 0 -77.166 -13.333 -101.499 -40s-37.166 -63.667 -38.499 -111h269zM277.997 62.001c44.667 0 79.667 16.5 105 49.5s38 79.167 38 138.5c0 58.667 -12.667 104.667 -38 138s-60.333 50 -105 50
s-79.667 -16.5 -105 -49.5s-38 -79.167 -38 -138.5s12.667 -105.5 38 -138.5s60.333 -49.5 105 -49.5z" />
    <glyph glyph-name="Racute" unicode="&#x154;" horiz-adv-x="665" 
d="M467 861l-104 -108h-80l90 108h94zM513 0l-174 294.999h-144v-295h-95v710h263c44.667 0 83 -5.83301 115 -17.5s56.333 -27.667 73 -48s28.667 -42.166 36 -65.499s11 -49 11 -77c0 -44.667 -12.833 -85 -38.5 -121s-66.167 -60.333 -121.5 -73l182 -308h-107z
M195 629.999v-255h157c97.333 0 146 42.333 146 127c0 85.333 -48.667 128 -146 128h-157z" />
    <glyph glyph-name="racute" unicode="&#x155;" horiz-adv-x="359" 
d="M148 580l92 143h104l-118 -143h-78zM169 386c12.667 37.333 32.167 67.667 58.5 91s57.5 35 93.5 35c8 0 14 -0.333008 18 -1v-83h-4c-47.333 0 -84 -13 -110 -39c-14.667 -14.667 -26 -33 -34 -55s-12.667 -41 -14 -57s-2 -37 -2 -63v-214h-85v500h79v-114z" />
    <glyph glyph-name="Rcommaaccent" unicode="&#x156;" horiz-adv-x="665" 
d="M438 308l182 -308.001h-107l-174 295h-144v-295h-95v710h263c44.667 0 83 -5.83301 115 -17.5s56.333 -27.667 73 -48s28.667 -42.166 36 -65.499s11 -49 11 -77c0 -44.667 -12.833 -85 -38.5 -121s-66.167 -60.333 -121.5 -73zM195 629.999v-255h157
c97.333 0 146 42.333 146 127c0 85.333 -48.667 128 -146 128h-157zM285 -136.001l-0.000976562 90h96v-80c0 -28.667 -5.16699 -51.834 -15.5 -69.501s-29.166 -31.5 -56.499 -41.5l-20 38c20 6.66699 32.833 14.334 38.5 23.001s8.5 22 8.5 40h-51z" />
    <glyph glyph-name="rcommaaccent" unicode="&#x157;" horiz-adv-x="359" 
d="M169 386c12.667 37.333 32.167 67.667 58.5 91s57.5 35 93.5 35c8 0 14 -0.333008 18 -1v-83h-4c-47.333 0 -84 -13 -110 -39c-14.667 -14.667 -26 -33 -34 -55s-12.667 -41 -14 -57s-2 -37 -2 -63v-214h-85v500h79v-114zM109 -236.999l-20.001 38
c20 6.66699 32.833 14.334 38.5 23.001s8.5 22 8.5 40h-51v90h96v-80c0 -28.667 -5.16699 -51.834 -15.5 -69.501s-29.166 -31.5 -56.499 -41.5z" />
    <glyph glyph-name="Rcaron" unicode="&#x158;" horiz-adv-x="665" 
d="M376 748h-106l-97 108h86l64 -72l64 72h86zM513 0l-174 294.999h-144v-295h-95v710h263c44.667 0 83 -5.83301 115 -17.5s56.333 -27.667 73 -48s28.667 -42.166 36 -65.499s11 -49 11 -77c0 -44.667 -12.833 -85 -38.5 -121s-66.167 -60.333 -121.5 -73l182 -308h-107z
M195 629.999v-255h157c97.333 0 146 42.333 146 127c0 85.333 -48.667 128 -146 128h-157z" />
    <glyph glyph-name="rcaron" unicode="&#x159;" horiz-adv-x="359" 
d="M33 718h79l73 -100l73 100h79l-108 -143h-88zM169 386c12.667 37.333 32.167 67.667 58.5 91s57.5 35 93.5 35c8 0 14 -0.333008 18 -1v-83h-4c-47.333 0 -84 -13 -110 -39c-14.667 -14.667 -26 -33 -34 -55s-12.667 -41 -14 -57s-2 -37 -2 -63v-214h-85v500h79v-114z
" />
    <glyph glyph-name="Sacute" unicode="&#x15a;" horiz-adv-x="614" 
d="M270 753l90 108h94l-104 -108h-80zM315 -17c-86.667 0 -154.332 20.835 -202.999 62.502s-76 96.834 -82 165.501l96 14c7.33301 -48 26.5 -87.333 57.5 -118s75.833 -46 134.5 -46c44 0 81.333 10 112 30s46 50.667 46 92c0 39.333 -11 68.166 -33 86.499
s-56 32.166 -102 41.499l-103 21c-118.667 24.667 -178 90 -178 196c0 60 22.333 108.167 67 144.5s104.667 54.5 180 54.5c74 0 134.667 -17 182 -51s74.333 -84.333 81 -151l-95 -20c-12.667 98 -69.334 147 -170.001 147c-44 0 -79.5 -10.333 -106.5 -31
s-40.5 -48.667 -40.5 -84c0 -34 9.33301 -60.667 28 -80s48 -33.333 88 -42l104 -22c62 -12.667 110.167 -34.334 144.5 -65.001s51.5 -76 51.5 -136c0 -59.333 -22.167 -109 -66.5 -149s-108.5 -60 -192.5 -60z" />
    <glyph glyph-name="sacute" unicode="&#x15b;" horiz-adv-x="494" 
d="M208 580l92 143h104l-118 -143h-78zM256 -12c-59.333 0 -107.834 13.3311 -145.501 39.998s-60.834 64.667 -69.501 114l86 15c6 -31.333 20.333 -55.666 43 -72.999s52.334 -26 89.001 -26c32.667 0 58.167 7.16699 76.5 21.5s27.5 32.5 27.5 54.5
c0 21.333 -6 37.333 -18 48s-30 18 -54 22l-98 18c-88.667 16.667 -133 63.334 -133 140.001c0 44 17.167 80 51.5 108s80.5 42 138.5 42c56 0 101.833 -12 137.5 -36s55.834 -57 60.501 -99l-84 -19c-6 26 -19 46.667 -39 62s-46.333 23 -79 23
c-32 0 -57.167 -6.66699 -75.5 -20s-27.5 -32.333 -27.5 -57c0 -38 25.667 -61.667 77 -71l97 -18c86.667 -16.667 130 -62 130 -136c0 -46 -16.833 -83 -50.5 -111s-80.5 -42 -140.5 -42z" />
    <glyph glyph-name="Scircumflex" unicode="&#x15c;" horiz-adv-x="614" 
d="M460 753h-86l-64 72l-64 -72h-86l97 108h106zM315 -17c-86.667 0 -154.332 20.835 -202.999 62.502s-76 96.834 -82 165.501l96 14c7.33301 -48 26.5 -87.333 57.5 -118s75.833 -46 134.5 -46c44 0 81.333 10 112 30s46 50.667 46 92c0 39.333 -11 68.166 -33 86.499
s-56 32.166 -102 41.499l-103 21c-118.667 24.667 -178 90 -178 196c0 60 22.333 108.167 67 144.5s104.667 54.5 180 54.5c74 0 134.667 -17 182 -51s74.333 -84.333 81 -151l-95 -20c-12.667 98 -69.334 147 -170.001 147c-44 0 -79.5 -10.333 -106.5 -31
s-40.5 -48.667 -40.5 -84c0 -34 9.33301 -60.667 28 -80s48 -33.333 88 -42l104 -22c62 -12.667 110.167 -34.334 144.5 -65.001s51.5 -76 51.5 -136c0 -59.333 -22.167 -109 -66.5 -149s-108.5 -60 -192.5 -60z" />
    <glyph glyph-name="scircumflex" unicode="&#x15d;" horiz-adv-x="494" 
d="M397 580h-79l-73 100l-73 -100h-79l108 143h88zM256 -12c-59.333 0 -107.834 13.3311 -145.501 39.998s-60.834 64.667 -69.501 114l86 15c6 -31.333 20.333 -55.666 43 -72.999s52.334 -26 89.001 -26c32.667 0 58.167 7.16699 76.5 21.5s27.5 32.5 27.5 54.5
c0 21.333 -6 37.333 -18 48s-30 18 -54 22l-98 18c-88.667 16.667 -133 63.334 -133 140.001c0 44 17.167 80 51.5 108s80.5 42 138.5 42c56 0 101.833 -12 137.5 -36s55.834 -57 60.501 -99l-84 -19c-6 26 -19 46.667 -39 62s-46.333 23 -79 23
c-32 0 -57.167 -6.66699 -75.5 -20s-27.5 -32.333 -27.5 -57c0 -38 25.667 -61.667 77 -71l97 -18c86.667 -16.667 130 -62 130 -136c0 -46 -16.833 -83 -50.5 -111s-80.5 -42 -140.5 -42z" />
    <glyph glyph-name="Scedilla" unicode="&#x15e;" horiz-adv-x="614" 
d="M574 192c0 -55.333 -19.665 -102.663 -58.998 -141.996s-96 -61.333 -170 -66l-21 -33c9.33301 8 23.666 12 42.999 12c22.667 0 40.667 -7 54 -21s20 -32.667 20 -56c0 -25.333 -9.66699 -45.833 -29 -61.5s-44.666 -23.5 -75.999 -23.5
c-54.667 0 -88.334 21 -101.001 63l57 10c6.66699 -18.667 20.667 -28 42 -28c12.667 0 23 3.83301 31 11.5s12 17.5 12 29.5c0 12.667 -3.66699 22.667 -11 30s-17.333 11 -30 11c-13.333 0 -24.666 -5 -33.999 -15l-39 12l31 58c-80.667 4 -143.334 26.667 -188.001 68
s-70 94.666 -76 159.999l96 14c7.33301 -48 26.5 -87.333 57.5 -118s75.833 -46 134.5 -46c44 0 81.333 10 112 30s46 50.667 46 92c0 39.333 -11 68.166 -33 86.499s-56 32.166 -102 41.499l-103 21c-118.667 24.667 -178 90 -178 196c0 60 22.333 108.167 67 144.5
s104.667 54.5 180 54.5c74 0 134.667 -17 182 -51s74.333 -84.333 81 -151l-95 -20c-12.667 98 -69.334 147 -170.001 147c-44 0 -79.5 -10.333 -106.5 -31s-40.5 -48.667 -40.5 -84c0 -34 9.33301 -60.667 28 -80s48 -33.333 88 -42l104 -22
c62 -12.667 110.167 -34.334 144.5 -65.001s51.5 -76 51.5 -136z" />
    <glyph glyph-name="scedilla" unicode="&#x15f;" horiz-adv-x="494" 
d="M317 277c86.667 -16.667 129.998 -62.002 129.998 -136.002c0 -42 -14.5 -76.833 -43.5 -104.5s-69.5 -43.5 -121.5 -47.5l-24 -38c9.33301 8 23.666 12 42.999 12c22.667 0 40.667 -7 54 -21s20 -32.667 20 -56c0 -25.333 -9.66699 -45.833 -29 -61.5
s-44.666 -23.5 -75.999 -23.5c-54.667 0 -88.334 21 -101.001 63l57 10c6.66699 -18.667 20.667 -28 42 -28c12.667 0 23 3.83301 31 11.5s12 17.5 12 29.5c0 12.667 -3.66699 22.667 -11 30s-17.333 11 -30 11c-13.333 0 -24.666 -5 -33.999 -15l-39 12l34 64
c-52.667 3.33301 -95.5 18.333 -128.5 45s-53.5 62.667 -61.5 108l86 15c6 -31.333 20.333 -55.666 43 -72.999s52.334 -26 89.001 -26c32.667 0 58.167 7.16699 76.5 21.5s27.5 32.5 27.5 54.5c0 21.333 -6 37.333 -18 48s-30 18 -54 22l-98 18
c-88.667 16.667 -133 63.334 -133 140.001c0 44 17.167 80 51.5 108s80.5 42 138.5 42c56 0 101.833 -12 137.5 -36s55.834 -57 60.501 -99l-84 -19c-6 26 -19 46.667 -39 62s-46.333 23 -79 23c-32 0 -57.167 -6.66699 -75.5 -20s-27.5 -32.333 -27.5 -57
c0 -38 25.667 -61.667 77 -71z" />
    <glyph glyph-name="Scaron" unicode="&#x160;" horiz-adv-x="614" 
d="M460 856l-97 -108h-106l-97 108h86l64 -72l64 72h86zM315 -17c-86.667 0 -154.332 20.835 -202.999 62.502s-76 96.834 -82 165.501l96 14c7.33301 -48 26.5 -87.333 57.5 -118s75.833 -46 134.5 -46c44 0 81.333 10 112 30s46 50.667 46 92
c0 39.333 -11 68.166 -33 86.499s-56 32.166 -102 41.499l-103 21c-118.667 24.667 -178 90 -178 196c0 60 22.333 108.167 67 144.5s104.667 54.5 180 54.5c74 0 134.667 -17 182 -51s74.333 -84.333 81 -151l-95 -20c-12.667 98 -69.334 147 -170.001 147
c-44 0 -79.5 -10.333 -106.5 -31s-40.5 -48.667 -40.5 -84c0 -34 9.33301 -60.667 28 -80s48 -33.333 88 -42l104 -22c62 -12.667 110.167 -34.334 144.5 -65.001s51.5 -76 51.5 -136c0 -59.333 -22.167 -109 -66.5 -149s-108.5 -60 -192.5 -60z" />
    <glyph glyph-name="scaron" unicode="&#x161;" horiz-adv-x="494" 
d="M93 718h79l73 -100l73 100h79l-108 -143h-88zM256 -12c-59.333 0 -107.834 13.3311 -145.501 39.998s-60.834 64.667 -69.501 114l86 15c6 -31.333 20.333 -55.666 43 -72.999s52.334 -26 89.001 -26c32.667 0 58.167 7.16699 76.5 21.5s27.5 32.5 27.5 54.5
c0 21.333 -6 37.333 -18 48s-30 18 -54 22l-98 18c-88.667 16.667 -133 63.334 -133 140.001c0 44 17.167 80 51.5 108s80.5 42 138.5 42c56 0 101.833 -12 137.5 -36s55.834 -57 60.501 -99l-84 -19c-6 26 -19 46.667 -39 62s-46.333 23 -79 23
c-32 0 -57.167 -6.66699 -75.5 -20s-27.5 -32.333 -27.5 -57c0 -38 25.667 -61.667 77 -71l97 -18c86.667 -16.667 130 -62 130 -136c0 -46 -16.833 -83 -50.5 -111s-80.5 -42 -140.5 -42z" />
    <glyph glyph-name="uni0162" unicode="&#x162;" horiz-adv-x="561" 
d="M328 0h-23l-31 -49c9.33301 8 23.666 12 42.999 12c22.667 0 40.667 -7 54 -21s20 -32.667 20 -56c0 -25.333 -9.66699 -45.833 -29 -61.5s-44.666 -23.5 -75.999 -23.5c-54.667 0 -88.334 21 -101.001 63l57 10c6.66699 -18.667 20.667 -28 42 -28
c12.667 0 23 3.83301 31 11.5s12 17.5 12 29.5c0 12.667 -3.66699 22.667 -11 30s-17.333 11 -30 11c-13.333 0 -24.666 -5 -33.999 -15l-39 12l39 75h-19v630h-223v80h541v-80h-223v-630z" />
    <glyph glyph-name="uni0163" unicode="&#x163;" horiz-adv-x="353" 
d="M271 -37c22.667 0 40.668 -7.00098 54.001 -21.001s20 -32.667 20 -56c0 -25.333 -9.66699 -45.833 -29 -61.5s-44.666 -23.5 -75.999 -23.5c-54.667 0 -88.334 21 -101.001 63l57 10c6.66699 -18.667 20.667 -28 42 -28c12.667 0 23 3.83301 31 11.5s12 17.5 12 29.5
c0 12.667 -3.66699 22.667 -11 30s-17.333 11 -30 11c-13.333 0 -24.666 -5 -33.999 -15l-39 12l37 70c-64 12.667 -96 64.334 -96 155.001v280h-93v70h93v131l85 36v-167h125v-70h-125v-277c0 -28.667 5.83301 -49.5 17.5 -62.5s30.167 -19.5 55.5 -19.5
c14.667 0 32 2.33301 52 7v-78c-20.667 -5.33301 -42.334 -8.33301 -65.001 -9l-25 -40c9.33301 8 23.666 12 42.999 12z" />
    <glyph glyph-name="Tcaron" unicode="&#x164;" horiz-adv-x="561" 
d="M334 748h-106l-97 108h86l64 -72l64 72h86zM551 710v-80h-223v-630h-95v630h-223v80h541z" />
    <glyph glyph-name="tcaron" unicode="&#x165;" horiz-adv-x="353" 
d="M258 531l-18 34.998c18 4.66699 30.167 10.834 36.5 18.501s9.5 19.5 9.5 35.5h-51v90h96v-80c0 -28 -5.66699 -49.667 -17 -65s-30 -26.666 -56 -33.999zM15 429.998v70.001h93v131l85 36v-167h125v-70h-125v-277c0 -28.667 5.83301 -49.5 17.5 -62.5
s30.167 -19.5 55.5 -19.5c14.667 0 32 2.33301 52 7v-78c-22 -6 -46.667 -9 -74 -9c-50.667 0 -86 13.667 -106 41s-30 66.666 -30 117.999v280h-93z" />
    <glyph glyph-name="Tbar" unicode="&#x166;" horiz-adv-x="561" 
d="M551 630h-223v-183h158v-59h-158v-388h-95v388h-158v59h158v183h-223v80h541v-80z" />
    <glyph glyph-name="tbar" unicode="&#x167;" horiz-adv-x="358" 
d="M323 240l-130 0.000976562v-87c0 -28.667 5.83301 -49.5 17.5 -62.5s30.167 -19.5 55.5 -19.5c14.667 0 32 2.33301 52 7v-78c-22 -6 -46.667 -9 -74 -9c-50.667 0 -86 13.667 -106 41s-30 66.666 -30 117.999v90h-88v71h88v119h-93v70h93v131l85 36v-167h125v-70h-125
v-119h130v-71z" />
    <glyph glyph-name="Utilde" unicode="&#x168;" horiz-adv-x="716" 
d="M419 748c-23.333 0 -47 8.16699 -71 24.5s-42 24.5 -54 24.5c-22.667 0 -38.334 -15.333 -47.001 -46l-58 11c4.66699 32 16.5 56.667 35.5 74s43.167 26 72.5 26c23.333 0 47 -8.16699 71 -24.5s42 -24.5 54 -24.5c22.667 0 38.334 15.333 47.001 46l58 -11
c-4.66699 -32 -16.5 -56.667 -35.5 -74s-43.167 -26 -72.5 -26zM85 710h95.002v-456c0 -58 15.5 -103.667 46.5 -137s74.833 -50 131.5 -50s100.5 16.667 131.5 50s46.5 79 46.5 137v456h95v-462c0 -80.667 -23.833 -145 -71.5 -193s-114.834 -72 -201.501 -72
s-153.834 24 -201.501 72s-71.5 112.333 -71.5 193v462z" />
    <glyph glyph-name="utilde" unicode="&#x169;" horiz-adv-x="571" 
d="M349 587c-21.333 0 -40.499 5.5 -57.499 16.5s-32.5 22 -46.5 33s-27.667 16.5 -41 16.5c-12.667 0 -22.834 -4.5 -30.501 -13.5s-14.167 -23.5 -19.5 -43.5l-58 11c5.33301 36 17.666 64 36.999 84s44 30 74 30c21.333 0 40.5 -5.5 57.5 -16.5s32.5 -22 46.5 -33
s27.667 -16.5 41 -16.5c24 0 40.667 19 50 57l58 -11c-5.33301 -36 -17.666 -64 -36.999 -84s-44 -30 -74 -30zM246.001 -12c-114 0 -171 64.333 -171 193v319h85v-309c0 -42 8.83301 -74.167 26.5 -96.5s42.834 -33.5 75.501 -33.5c40 0 72.333 15.667 97 47
s37 72.333 37 123v269h85v-500h-80v94c-11.333 -30.667 -31.333 -56 -60 -76s-60.334 -30 -95.001 -30z" />
    <glyph glyph-name="Umacron" unicode="&#x16a;" horiz-adv-x="716" 
d="M208 767v68h300v-68h-300zM85 710h95.002v-456c0 -58 15.5 -103.667 46.5 -137s74.833 -50 131.5 -50s100.5 16.667 131.5 50s46.5 79 46.5 137v456h95v-462c0 -80.667 -23.833 -145 -71.5 -193s-114.834 -72 -201.501 -72s-153.834 24 -201.501 72
s-71.5 112.333 -71.5 193v462z" />
    <glyph glyph-name="umacron" unicode="&#x16b;" horiz-adv-x="571" 
d="M129 613v68h298v-68h-298zM246 -12c-114 0 -171 64.333 -171 193v319h85v-309c0 -42 8.83301 -74.167 26.5 -96.5s42.834 -33.5 75.501 -33.5c40 0 72.333 15.667 97 47s37 72.333 37 123v269h85v-500h-80v94c-11.333 -30.667 -31.333 -56 -60 -76
s-60.334 -30 -95.001 -30z" />
    <glyph glyph-name="Ubreve" unicode="&#x16c;" horiz-adv-x="716" 
d="M280 861c6 -36.667 32 -55 78 -55s72 18.333 78 55h72c-3.33301 -36 -17.833 -63.833 -43.5 -83.5s-61.167 -29.5 -106.5 -29.5s-80.833 9.83301 -106.5 29.5s-40.167 47.5 -43.5 83.5h72zM85 710h95.002v-456c0 -58 15.5 -103.667 46.5 -137s74.833 -50 131.5 -50
s100.5 16.667 131.5 50s46.5 79 46.5 137v456h95v-462c0 -80.667 -23.833 -145 -71.5 -193s-114.834 -72 -201.501 -72s-153.834 24 -201.501 72s-71.5 112.333 -71.5 193v462z" />
    <glyph glyph-name="ubreve" unicode="&#x16d;" horiz-adv-x="571" 
d="M200 723c1.33301 -29.333 9.00195 -51.166 23.002 -65.499s32.333 -21.5 55 -21.5s41 7.16699 55 21.5s21.667 36.166 23 65.499h72c-2 -50.667 -16.833 -88 -44.5 -112s-62.834 -36 -105.501 -36s-77.834 12 -105.501 36s-42.5 61.333 -44.5 112h72zM246.002 -12
c-114 0 -171 64.333 -171 193v319h85v-309c0 -42 8.83301 -74.167 26.5 -96.5s42.834 -33.5 75.501 -33.5c40 0 72.333 15.667 97 47s37 72.333 37 123v269h85v-500h-80v94c-11.333 -30.667 -31.333 -56 -60 -76s-60.334 -30 -95.001 -30z" />
    <glyph glyph-name="Uring" unicode="&#x16e;" horiz-adv-x="716" 
d="M358 738c-32.667 0 -59 9.5 -79 28.5s-30 43.5 -30 73.5s10 54.5 30 73.5s46.333 28.5 79 28.5s59 -9.5 79 -28.5s30 -43.5 30 -73.5s-10 -54.5 -30 -73.5s-46.333 -28.5 -79 -28.5zM358 786c15.333 0 27.833 5 37.5 15s14.5 23 14.5 39s-4.83301 29 -14.5 39
s-22.167 15 -37.5 15s-27.833 -5 -37.5 -15s-14.5 -23 -14.5 -39s4.83301 -29 14.5 -39s22.167 -15 37.5 -15zM85 710h95.002v-456c0 -58 15.5 -103.667 46.5 -137s74.833 -50 131.5 -50s100.5 16.667 131.5 50s46.5 79 46.5 137v456h95v-462
c0 -80.667 -23.833 -145 -71.5 -193s-114.834 -72 -201.501 -72s-153.834 24 -201.501 72s-71.5 112.333 -71.5 193v462z" />
    <glyph glyph-name="uring" unicode="&#x16f;" horiz-adv-x="571" 
d="M278 556c-32.667 0 -59 9.5 -79 28.5s-30 43.5 -30 73.5s10 54.5 30 73.5s46.333 28.5 79 28.5s59 -9.5 79 -28.5s30 -43.5 30 -73.5s-10 -54.5 -30 -73.5s-46.333 -28.5 -79 -28.5zM278 604c15.333 0 27.833 5 37.5 15s14.5 23 14.5 39s-4.83301 29 -14.5 39
s-22.167 15 -37.5 15s-27.833 -5 -37.5 -15s-14.5 -23 -14.5 -39s4.83301 -29 14.5 -39s22.167 -15 37.5 -15zM246 -12c-114 0 -171 64.333 -171 193v319h85v-309c0 -42 8.83301 -74.167 26.5 -96.5s42.834 -33.5 75.501 -33.5c40 0 72.333 15.667 97 47s37 72.333 37 123
v269h85v-500h-80v94c-11.333 -30.667 -31.333 -56 -60 -76s-60.334 -30 -95.001 -30z" />
    <glyph glyph-name="Uhungarumlaut" unicode="&#x170;" horiz-adv-x="716" 
d="M240 753l95 108h91l-102 -108h-84zM392 753l95 108h91l-102 -108h-84zM85 710h95.002v-456c0 -58 15.5 -103.667 46.5 -137s74.833 -50 131.5 -50s100.5 16.667 131.5 50s46.5 79 46.5 137v456h95v-462c0 -80.667 -23.833 -145 -71.5 -193s-114.834 -72 -201.501 -72
s-153.834 24 -201.501 72s-71.5 112.333 -71.5 193v462z" />
    <glyph glyph-name="uhungarumlaut" unicode="&#x171;" horiz-adv-x="571" 
d="M164 580l86 143h82l-93 -143h-75zM316 580l86 143h82l-93 -143h-75zM246 -12c-114 0 -171 64.333 -171 193v319h85v-309c0 -42 8.83301 -74.167 26.5 -96.5s42.834 -33.5 75.501 -33.5c40 0 72.333 15.667 97 47s37 72.333 37 123v269h85v-500h-80v94
c-11.333 -30.667 -31.333 -56 -60 -76s-60.334 -30 -95.001 -30z" />
    <glyph glyph-name="Uogonek" unicode="&#x172;" horiz-adv-x="716" 
d="M536 710l95 -0.000976562v-462c0 -68.667 -17.5 -125.834 -52.5 -171.501s-84.833 -74.834 -149.5 -87.501c-52.667 -22.667 -79 -55 -79 -97c0 -27.333 13.333 -41 40 -41c23.333 0 38 16 44 48l59 -8c-10.667 -62.667 -46 -94 -106 -94c-31.333 0 -56 7.83301 -74 23.5
s-27 36.834 -27 63.501c0 39.333 20.333 72.333 61 99c-83.333 2.66699 -147.833 27.834 -193.5 75.501s-68.5 110.834 -68.5 189.501v462h95v-456c0 -58 15.5 -103.667 46.5 -137s74.833 -50 131.5 -50s100.5 16.667 131.5 50s46.5 79 46.5 137v456z" />
    <glyph glyph-name="uogonek" unicode="&#x173;" horiz-adv-x="571" 
d="M458 -101l59 -8.00195c-10.667 -62.667 -46 -94 -106 -94c-31.333 0 -56 7.83301 -74 23.5s-27 36.834 -27 63.501c0 49.333 30.333 88 91 116v94c-11.333 -30.667 -31.333 -56 -60 -76s-60.334 -30 -95.001 -30c-114 0 -171 64.333 -171 193v319h85v-309
c0 -42 8.83301 -74.167 26.5 -96.5s42.834 -33.5 75.501 -33.5c40 0 72.333 15.667 97 47s37 72.333 37 123v269h85v-500c-36.667 -12 -63.667 -27.667 -81 -47s-26 -39.666 -26 -60.999c0 -27.333 13.333 -41 40 -41c23.333 0 38 16 44 48z" />
    <glyph glyph-name="Wcircumflex" unicode="&#x174;" horiz-adv-x="912" 
d="M606 753h-86l-64 72l-64 -72h-86l97 108h106zM194 0l-169.002 710h97l123 -572c2.66699 -14 4.66699 -27 6 -39h3c0.666992 8 3.33398 21 8.00098 39l146 572h96l146 -572c4.66699 -18 7.33398 -31 8.00098 -39h3c1.33301 12 3.33301 25 6 39l123 572h97l-169 -710h-116
l-138 554c-3.33301 13.333 -5.33301 24.333 -6 33h-4c-0.666992 -8.66699 -2.66699 -19.667 -6 -33l-138 -554h-116z" />
    <glyph glyph-name="wcircumflex" unicode="&#x175;" horiz-adv-x="732" 
d="M518 580h-79l-73 100l-73 -100h-79l108 143h88zM166 0l-141.002 500h88l90 -357c4.66699 -20 8.33398 -39.667 11.001 -59h2c0 1.33301 4.33301 21 13 59l91 357h92l91 -357c8.66699 -38 13 -57.667 13 -59h2c2.66699 19.333 6.33398 39 11.001 59l90 357h88l-141 -500
h-93l-95 360c-5.33301 20 -9 38.667 -11 56h-2c-2 -17.333 -5.66699 -36 -11 -56l-95 -360h-93z" />
    <glyph glyph-name="Ycircumflex" unicode="&#x176;" horiz-adv-x="578" 
d="M439 753h-86l-64 72l-64 -72h-86l97 108h106zM241 0v283l-241 427h106l163 -301c10 -18.667 16.333 -32.334 19 -41.001h2c2.66699 8.66699 9 22.334 19 41.001l163 301h106l-241 -427v-283h-96z" />
    <glyph glyph-name="ycircumflex" unicode="&#x177;" horiz-adv-x="487" 
d="M396 580h-79l-73 100l-73 -100h-79l108 143h88zM92 -201c-16.667 0 -32 1.33398 -46 4.00098v75c17.333 -1.33301 29.333 -2 36 -2c30 0 53.667 7.16699 71 21.5s31.666 38.166 42.999 71.499l13 37l-199 494h95l128 -348c7.33301 -20 13 -39.667 17 -59h2
c2.66699 12 8.33398 31.667 17.001 59l116 348h92l-195 -532c-22 -61.333 -48.167 -104.833 -78.5 -130.5s-67.5 -38.5 -111.5 -38.5z" />
    <glyph glyph-name="Ydieresis" unicode="&#x178;" horiz-adv-x="578" 
d="M129 753v98h97v-98h-97zM352 753v98h97v-98h-97zM241 0v283l-241 427h106l163 -301c10 -18.667 16.333 -32.334 19 -41.001h2c2.66699 8.66699 9 22.334 19 41.001l163 301h106l-241 -427v-283h-96z" />
    <glyph glyph-name="Zacute" unicode="&#x179;" horiz-adv-x="569" 
d="M250 753l90 108h94l-104 -108h-80zM35 88l399 542h-386v80h487v-88l-400 -542h414v-80h-514v88z" />
    <glyph glyph-name="zacute" unicode="&#x17a;" horiz-adv-x="455" 
d="M191 580l92 143h104l-118 -143h-78zM35 65l273 363h-263v72h365v-63l-270 -364h285v-73h-390v65z" />
    <glyph glyph-name="Zdotaccent" unicode="&#x17b;" horiz-adv-x="569" 
d="M237 753v107h106v-107h-106zM35 88l399 542h-386v80h487v-88l-400 -542h414v-80h-514v88z" />
    <glyph glyph-name="zdotaccent" unicode="&#x17c;" horiz-adv-x="455" 
d="M179 593v107h97v-107h-97zM35 65l273 363h-263v72h365v-63l-270 -364h285v-73h-390v65z" />
    <glyph glyph-name="Zcaron" unicode="&#x17d;" horiz-adv-x="569" 
d="M440 856l-97 -108h-106l-97 108h86l64 -72l64 72h86zM35 88l399 542h-386v80h487v-88l-400 -542h414v-80h-514v88z" />
    <glyph glyph-name="zcaron" unicode="&#x17e;" horiz-adv-x="455" 
d="M76 718h79l73 -100l73 100h79l-108 -143h-88zM35 65l273 363h-263v72h365v-63l-270 -364h285v-73h-390v65z" />
    <glyph glyph-name="florin" unicode="&#x192;" horiz-adv-x="418" 
d="M355 629c-18 0 -32.833 -2.33496 -44.5 -7.00195s-20.667 -12.667 -27 -24s-10.833 -22.166 -13.5 -32.499s-5.66699 -25.5 -9 -45.5l-12 -92h126v-66h-135l-68 -512h-86l68 512h-114v66h123l9 70c4 28.667 7.83301 51.334 11.5 68.001s9.5 35.167 17.5 55.5
s18 35.5 30 45.5s28.167 18.667 48.5 26s44.5 11 72.5 11c18.667 0 37.667 -2 57 -6l-1 -74c-17.333 3.33301 -35 5 -53 5z" />
    <glyph glyph-name="AEacute" unicode="&#x1fc;" horiz-adv-x="926" 
d="M779 861l-104 -108h-80l90 108h94zM533 80h328v-80h-423v174h-250l-97 -174h-101l415 710h449v-80h-321v-226h304v-80h-304v-244zM232 254h206v371z" />
    <glyph glyph-name="aeacute" unicode="&#x1fd;" horiz-adv-x="841" 
d="M580 723l-118 -143h-78l92 143h104zM791 271l0.000976562 -45h-335c0.666992 -49.333 13.667 -88.833 39 -118.5s58.666 -44.5 99.999 -44.5c61.333 0 102.333 31.667 123 95l70 -31c-33.333 -92.667 -99.666 -139 -198.999 -139c-90 0 -151.667 39 -185 117
c-16 -38 -41 -67 -75 -87s-73.333 -30 -118 -30c-50.667 0 -91 12.833 -121 38.5s-45 60.5 -45 104.5c0 42 14.833 76 44.5 102s74.167 42.333 133.5 49l147 15v16c0 85.333 -37.667 128 -113 128c-34 0 -60.5 -8.5 -79.5 -25.5s-29.167 -41.167 -30.5 -72.5h-87
c4 53.333 23.167 94.833 57.5 124.5s81.166 44.5 140.499 44.5c78.667 0 133 -27.667 163 -83c36 55.333 91.667 83 167 83c64.667 0 114.667 -21.167 150 -63.5s53 -101.5 53 -177.5zM703.001 295c1.33301 46 -8.33301 82.5 -29 109.5s-49.334 40.5 -86.001 40.5
c-38 0 -69.167 -13.5 -93.5 -40.5s-37.166 -63.5 -38.499 -109.5h247zM371.002 218l-0.000976562 15.999l-123 -14c-40.667 -4.66699 -69.667 -14.167 -87 -28.5s-26 -34.833 -26 -61.5c0 -21.333 8.66699 -38.666 26 -51.999s39.333 -20 66 -20
c38.667 0 72.334 12.833 101.001 38.5s43 66.167 43 121.5z" />
    <glyph glyph-name="Oslashacute" unicode="&#x1fe;" horiz-adv-x="739" 
d="M514 861l-104 -108h-80l90 108h94zM616 616c52 -65.333 78.001 -152.331 78.001 -260.998c0 -114.667 -29.333 -205.334 -88 -272.001s-137.334 -100 -236.001 -100c-77.333 0 -143 21.333 -197 64l-46 -59l-54 39l52 67c-53.333 66.667 -80 153.667 -80 261
c0 115.333 29.333 206.166 88 272.499s137.667 99.5 237 99.5c78 0 144 -21.333 198 -64l45 58l54 -39zM145.001 355.002c0 -72.667 13.334 -134 40.001 -184l329 422c-38 36 -86 54 -144 54c-70.667 0 -125.834 -25.833 -165.501 -77.5s-59.5 -123.167 -59.5 -214.5z
M370.002 63.002c70.667 0 125.667 25.833 165 77.5s59 123.167 59 214.5c0 74.667 -13 135.667 -39 183l-328 -421c38 -36 85.667 -54 143 -54z" />
    <glyph glyph-name="oslashacute" unicode="&#x1ff;" horiz-adv-x="556" 
d="M442 723l-118 -143h-78l92 143h104zM456 432c36.667 -47.333 55 -108 55 -182c0 -80.667 -21.167 -144.5 -63.5 -191.5s-98.833 -70.5 -169.5 -70.5c-55.333 0 -102.333 14.667 -141 44l-36 -46l-43 31l41 52c-36 46.667 -54 107 -54 181
c0 80.667 21.167 144.5 63.5 191.5s98.833 70.5 169.5 70.5c54.667 0 101 -14.333 139 -43l36 45l44 -31zM135 250c0 -44 6.66699 -81 20 -111l213 268c-22.667 20.667 -52.667 31 -90 31c-45.333 0 -80.5 -16 -105.5 -48s-37.5 -78.667 -37.5 -140zM278 62
c45.333 0 80.501 16.001 105.501 48.001s37.5 78.667 37.5 140c0 45.333 -7 82.666 -21 111.999l-213 -268c23.333 -21.333 53.666 -32 90.999 -32z" />
    <glyph glyph-name="Scommaaccent" unicode="&#x218;" horiz-adv-x="614" 
d="M315 -17c-86.667 0 -154.332 20.835 -202.999 62.502s-76 96.834 -82 165.501l96 14c7.33301 -48 26.5 -87.333 57.5 -118s75.833 -46 134.5 -46c44 0 81.333 10 112 30s46 50.667 46 92c0 39.333 -11 68.166 -33 86.499s-56 32.166 -102 41.499l-103 21
c-118.667 24.667 -178 90 -178 196c0 60 22.333 108.167 67 144.5s104.667 54.5 180 54.5c74 0 134.667 -17 182 -51s74.333 -84.333 81 -151l-95 -20c-12.667 98 -69.334 147 -170.001 147c-44 0 -79.5 -10.333 -106.5 -31s-40.5 -48.667 -40.5 -84
c0 -34 9.33301 -60.667 28 -80s48 -33.333 88 -42l104 -22c62 -12.667 110.167 -34.334 144.5 -65.001s51.5 -76 51.5 -136c0 -59.333 -22.167 -109 -66.5 -149s-108.5 -60 -192.5 -60zM307.002 -236.998l-20.001 38c20 6.66699 32.833 14.334 38.5 23.001s8.5 22 8.5 40
h-51v90h96v-80c0 -28.667 -5.16699 -51.834 -15.5 -69.501s-29.166 -31.5 -56.499 -41.5z" />
    <glyph glyph-name="scommaaccent" unicode="&#x219;" horiz-adv-x="494" 
d="M256 -12c-59.333 0 -107.834 13.3311 -145.501 39.998s-60.834 64.667 -69.501 114l86 15c6 -31.333 20.333 -55.666 43 -72.999s52.334 -26 89.001 -26c32.667 0 58.167 7.16699 76.5 21.5s27.5 32.5 27.5 54.5c0 21.333 -6 37.333 -18 48s-30 18 -54 22l-98 18
c-88.667 16.667 -133 63.334 -133 140.001c0 44 17.167 80 51.5 108s80.5 42 138.5 42c56 0 101.833 -12 137.5 -36s55.834 -57 60.501 -99l-84 -19c-6 26 -19 46.667 -39 62s-46.333 23 -79 23c-32 0 -57.167 -6.66699 -75.5 -20s-27.5 -32.333 -27.5 -57
c0 -38 25.667 -61.667 77 -71l97 -18c86.667 -16.667 130 -62 130 -136c0 -46 -16.833 -83 -50.5 -111s-80.5 -42 -140.5 -42zM240.999 -237.002l-20.001 38c20 6.66699 32.833 14.334 38.5 23.001s8.5 22 8.5 40h-51v90h96v-80c0 -28.667 -5.16699 -51.834 -15.5 -69.501
s-29.166 -31.5 -56.499 -41.5z" />
    <glyph glyph-name="uni021A" unicode="&#x21a;" horiz-adv-x="561" 
d="M10 710h541v-80h-223v-630h-95v630h-223v80zM233 -136l-0.000976562 90h96v-80c0 -28.667 -5.16699 -51.834 -15.5 -69.501s-29.166 -31.5 -56.499 -41.5l-20 38c20 6.66699 32.833 14.334 38.5 23.001s8.5 22 8.5 40h-51z" />
    <glyph glyph-name="uni021B" unicode="&#x21b;" horiz-adv-x="353" 
d="M15 430v70.001h93v131l85 36v-167h125v-70h-125v-277c0 -28.667 5.83301 -49.5 17.5 -62.5s30.167 -19.5 55.5 -19.5c14.667 0 32 2.33301 52 7v-78c-22 -6 -46.667 -9 -74 -9c-50.667 0 -86 13.667 -106 41s-30 66.666 -30 117.999v280h-93zM211 -236.999l-20.001 38
c20 6.66699 32.833 14.334 38.5 23.001s8.5 22 8.5 40h-51v90h96v-80c0 -28.667 -5.16699 -51.834 -15.5 -69.501s-29.166 -31.5 -56.499 -41.5z" />
    <glyph glyph-name="uni0237" unicode="&#x237;" horiz-adv-x="263" 
d="M46 -202c-26 0 -46.3311 1.99902 -60.998 5.99902v73c19.333 -1.33301 35.666 -2 48.999 -2c19.333 0 33.166 5.83301 41.499 17.5s12.5 33.834 12.5 66.501v541h85v-550c0 -101.333 -42.333 -152 -127 -152z" />
    <glyph glyph-name="uni0243" unicode="&#x243;" horiz-adv-x="653" 
d="M598 195c0 -49.333 -15 -92.1631 -45 -128.496s-79.667 -57.833 -149 -64.5v-109h-53v107h-71v-107h-53v107h-127v695h127v90h53v-90h62h9v90h53v-94c64 -8.66699 109 -29.334 135 -62.001s39 -70.334 39 -113.001c0 -36.667 -9.5 -68.834 -28.5 -96.501
s-49.167 -46.834 -90.5 -57.501c92.667 -15.333 139 -71 139 -167zM342 618.003h-152v-225h152c94.667 0 142 38.667 142 116c0 72.667 -47.333 109 -142 109zM358 77.0029c51.333 0 88.5 11.832 111.5 35.499s34.5 54.167 34.5 91.5c0 34.667 -11.167 62.834 -33.5 84.501
s-56.5 32.5 -102.5 32.5h-178v-244h168z" />
    <glyph glyph-name="circumflex" unicode="&#x2c6;" horiz-adv-x="600" 
d="M354 580h-79l-73 100l-73 -100h-79l108 143h88z" />
    <glyph glyph-name="caron" unicode="&#x2c7;" horiz-adv-x="600" 
d="M50 718h79l73 -100l73 100h79l-108 -143h-88z" />
    <glyph glyph-name="breve" unicode="&#x2d8;" horiz-adv-x="600" 
d="M124 723c1.33301 -29.333 9.00195 -51.166 23.002 -65.499s32.333 -21.5 55 -21.5s41 7.16699 55 21.5s21.667 36.166 23 65.499h72c-2 -50.667 -16.833 -88 -44.5 -112s-62.834 -36 -105.501 -36s-77.834 12 -105.501 36s-42.5 61.333 -44.5 112h72z" />
    <glyph glyph-name="dotaccent" unicode="&#x2d9;" horiz-adv-x="600" 
d="M49 593v107h97v-107h-97z" />
    <glyph glyph-name="ring" unicode="&#x2da;" horiz-adv-x="600" 
d="M157 556c-32.667 0 -59 9.5 -79 28.5s-30 43.5 -30 73.5s10 54.5 30 73.5s46.333 28.5 79 28.5s59 -9.5 79 -28.5s30 -43.5 30 -73.5s-10 -54.5 -30 -73.5s-46.333 -28.5 -79 -28.5zM157 604c15.333 0 27.833 5 37.5 15s14.5 23 14.5 39s-4.83301 29 -14.5 39
s-22.167 15 -37.5 15s-27.833 -5 -37.5 -15s-14.5 -23 -14.5 -39s4.83301 -29 14.5 -39s22.167 -15 37.5 -15z" />
    <glyph glyph-name="ogonek" unicode="&#x2db;" horiz-adv-x="600" 
d="M257 -109c-10.667 -62.667 -46 -94.002 -106 -94.002c-31.333 0 -56 7.83301 -74 23.5s-27 36.834 -27 63.501c0 49.333 30.333 88 91 116h80c-36.667 -12 -63.667 -27.667 -81 -47s-26 -39.666 -26 -60.999c0 -27.333 13.333 -41 40 -41c23.333 0 38 16 44 48z" />
    <glyph glyph-name="tilde" unicode="&#x2dc;" horiz-adv-x="600" 
d="M306 587c-21.333 0 -40.499 5.5 -57.499 16.5s-32.5 22 -46.5 33s-27.667 16.5 -41 16.5c-12.667 0 -22.834 -4.5 -30.501 -13.5s-14.167 -23.5 -19.5 -43.5l-58 11c5.33301 36 17.666 64 36.999 84s44 30 74 30c21.333 0 40.5 -5.5 57.5 -16.5s32.5 -22 46.5 -33
s27.667 -16.5 41 -16.5c24 0 40.667 19 50 57l58 -11c-5.33301 -36 -17.666 -64 -36.999 -84s-44 -30 -74 -30z" />
    <glyph glyph-name="hungarumlaut" unicode="&#x2dd;" horiz-adv-x="600" 
d="M64 580l86 143h82l-93 -143h-75zM216 580l86 143h82l-93 -143h-75z" />
    <glyph glyph-name="gravecomb" unicode="&#x300;" horiz-adv-x="0" 
d="M-28 580h-78l-118 143h104z" />
    <glyph glyph-name="acutecomb" unicode="&#x301;" horiz-adv-x="0" 
d="M-244 580l92 143h104l-118 -143h-78z" />
    <glyph glyph-name="uni0302" unicode="&#x302;" horiz-adv-x="0" 
d="M-50 580h-79l-73 100l-73 -100h-79l108 143h88z" />
    <glyph glyph-name="tildecomb" unicode="&#x303;" horiz-adv-x="0" 
d="M-163 587c-21.333 0 -40.499 5.5 -57.499 16.5s-32.5 22 -46.5 33s-27.667 16.5 -41 16.5c-12.667 0 -22.834 -4.5 -30.501 -13.5s-14.167 -23.5 -19.5 -43.5l-58 11c5.33301 36 17.666 64 36.999 84s44 30 74 30c21.333 0 40.5 -5.5 57.5 -16.5s32.5 -22 46.5 -33
s27.667 -16.5 41 -16.5c24 0 40.667 19 50 57l58 -11c-5.33301 -36 -17.666 -64 -36.999 -84s-44 -30 -74 -30z" />
    <glyph glyph-name="uni0304" unicode="&#x304;" horiz-adv-x="0" 
d="M-338 613v68h298v-68h-298z" />
    <glyph glyph-name="uni0306" unicode="&#x306;" horiz-adv-x="0" 
d="M-280 723c1.33301 -29.333 9.00195 -51.166 23.002 -65.499s32.333 -21.5 55 -21.5s41 7.16699 55 21.5s21.667 36.166 23 65.499h72c-2 -50.667 -16.833 -88 -44.5 -112s-62.834 -36 -105.501 -36s-77.834 12 -105.501 36s-42.5 61.333 -44.5 112h72z" />
    <glyph glyph-name="uni0307" unicode="&#x307;" horiz-adv-x="0" 
d="M-146 593v107h97v-107h-97z" />
    <glyph glyph-name="uni0308" unicode="&#x308;" horiz-adv-x="0" 
d="M-344 596v103h97v-103h-97zM-141 596v103h97v-103h-97z" />
    <glyph glyph-name="uni030A" unicode="&#x30a;" horiz-adv-x="0" 
d="M-157 556c-32.667 0 -59 9.5 -79 28.5s-30 43.5 -30 73.5s10 54.5 30 73.5s46.333 28.5 79 28.5s59 -9.5 79 -28.5s30 -43.5 30 -73.5s-10 -54.5 -30 -73.5s-46.333 -28.5 -79 -28.5zM-157 604c15.333 0 27.833 5 37.5 15s14.5 23 14.5 39s-4.83301 29 -14.5 39
s-22.167 15 -37.5 15s-27.833 -5 -37.5 -15s-14.5 -23 -14.5 -39s4.83301 -29 14.5 -39s22.167 -15 37.5 -15z" />
    <glyph glyph-name="uni030B" unicode="&#x30b;" horiz-adv-x="0" 
d="M-375 580l86 143h82l-93 -143h-75zM-223 580l86 143h82l-93 -143h-75z" />
    <glyph glyph-name="uni030C" unicode="&#x30c;" horiz-adv-x="0" 
d="M-354 718h79l73 -100l73 100h79l-108 -143h-88z" />
    <glyph glyph-name="uni0312" unicode="&#x312;" horiz-adv-x="0" 
d="M-74 771l20.001 -38c-20 -6.66699 -32.833 -14.334 -38.5 -23.001s-8.5 -22 -8.5 -40h51v-90h-96v80c0 28.667 5.16699 51.834 15.5 69.501s29.166 31.5 56.499 41.5z" />
    <glyph glyph-name="uni0326" unicode="&#x326;" horiz-adv-x="0" 
d="M-122 -237l-20.001 38c20 6.66699 32.833 14.334 38.5 23.001s8.5 22 8.5 40h-51v90h96v-80c0 -28.667 -5.16699 -51.834 -15.5 -69.501s-29.166 -31.5 -56.499 -41.5z" />
    <glyph glyph-name="uni0327" unicode="&#x327;" horiz-adv-x="0" 
d="M-185 7h53.001l-35 -56c9.33301 8 23.666 12 42.999 12c22.667 0 40.667 -7 54 -21s20 -32.667 20 -56c0 -25.333 -9.66699 -45.833 -29 -61.5s-44.666 -23.5 -75.999 -23.5c-54.667 0 -88.334 21 -101.001 63l57 10c6.66699 -18.667 20.667 -28 42 -28
c12.667 0 23 3.83301 31 11.5s12 17.5 12 29.5c0 12.667 -3.66699 22.667 -11 30s-17.333 11 -30 11c-14 0 -25.333 -5 -34 -15l-39 12z" />
    <glyph glyph-name="uni0328" unicode="&#x328;" horiz-adv-x="0" 
d="M-50 -109c-10.667 -62.667 -46 -94.002 -106 -94.002c-31.333 0 -56 7.83301 -74 23.5s-27 36.834 -27 63.501c0 49.333 30.333 88 91 116h80c-36.667 -12 -63.667 -27.667 -81 -47s-26 -39.666 -26 -60.999c0 -27.333 13.333 -41 40 -41c23.333 0 38 16 44 48z" />
    <glyph glyph-name="uni0394" unicode="&#x394;" horiz-adv-x="590" 
d="M8 0l239 710h99l236 -710h-574zM295 610l-177 -535h349z" />
    <glyph glyph-name="uni03A9" unicode="&#x3a9;" horiz-adv-x="636" 
d="M581 0h-214l-15 225c52 9.33301 92.167 32.666 120.5 69.999s42.5 85.333 42.5 144c0 64.667 -17.667 115.667 -53 153s-83.333 56 -144 56s-108.667 -18.667 -144 -56s-53 -88.333 -53 -153c0 -58.667 14.167 -106.667 42.5 -144s68.5 -60.666 120.5 -69.999l-15 -225
h-214v79h144l8 97c-53.333 18 -95.333 50.5 -126 97.5s-46 102.833 -46 167.5c0 84 26 151.833 78 203.5s120.333 77.5 205 77.5s153 -25.833 205 -77.5s78 -119.5 78 -203.5c0 -64.667 -15.333 -120.5 -46 -167.5s-72.667 -79.5 -126 -97.5l8 -97h144v-79z" />
    <glyph glyph-name="uni03BC" unicode="&#x3bc;" horiz-adv-x="586" 
d="M411 500h85v-500h-80v94c-11.333 -30.667 -31.333 -56 -60 -76s-60.334 -30 -95.001 -30c-37.333 0 -69.333 7 -96 21v-204h-75v695h85v-309c0 -42 8.83301 -74.167 26.5 -96.5s42.834 -33.5 75.501 -33.5c40 0 72.333 15.667 97 47s37 72.333 37 123v269z" />
    <glyph glyph-name="pi" unicode="&#x3c0;" horiz-adv-x="590" 
d="M549 -1c-14 -4 -29 -6 -45 -6c-46 0 -77.667 11.833 -95 35.5s-26 55.167 -26 94.5v309h-175v-432h-85v432h-83v68h510v-68h-82v-307c0 -36.667 16 -55 48 -55c8 0 19 1 33 3v-74z" />
    <glyph glyph-name="uni0E3F" unicode="&#xe3f;" horiz-adv-x="653" 
d="M459 362c45.333 -7.33301 79.833 -25.332 103.5 -53.999s35.5 -66.334 35.5 -113.001c0 -61.333 -20.667 -109.166 -62 -143.499s-99 -51.5 -173 -51.5h-13v-107h-53v107h-197v695h197v91h53v-91c72 -0.666992 128 -16.834 168 -48.501s60 -75.167 60 -130.5
c0 -39.333 -10.333 -72.333 -31 -99s-50 -45 -88 -55zM190 618.001v-225h107v225h-107zM484 509.001c0 70.667 -44.667 107 -134 109v-225c43.333 0.666992 76.5 11 99.5 31s34.5 48.333 34.5 85zM190 77.001h107v244h-107v-244zM358 77.001
c47.333 0 83.5 10.999 108.5 32.999s37.5 53.333 37.5 94c0 36.667 -11.833 65.334 -35.5 86.001s-57.167 31 -100.5 31h-18v-244h8z" />
    <glyph glyph-name="Wgrave" unicode="&#x1e80;" horiz-adv-x="912" 
d="M496 753h-80l-104 108h94zM194 0l-169.002 710h97l123 -572c2.66699 -14 4.66699 -27 6 -39h3c0.666992 8 3.33398 21 8.00098 39l146 572h96l146 -572c4.66699 -18 7.33398 -31 8.00098 -39h3c1.33301 12 3.33301 25 6 39l123 572h97l-169 -710h-116l-138 554
c-3.33301 13.333 -5.33301 24.333 -6 33h-4c-0.666992 -8.66699 -2.66699 -19.667 -6 -33l-138 -554h-116z" />
    <glyph glyph-name="wgrave" unicode="&#x1e81;" horiz-adv-x="732" 
d="M403 580h-78l-118 143h104zM166 0l-141.002 500h88l90 -357c4.66699 -20 8.33398 -39.667 11.001 -59h2c0 1.33301 4.33301 21 13 59l91 357h92l91 -357c8.66699 -38 13 -57.667 13 -59h2c2.66699 19.333 6.33398 39 11.001 59l90 357h88l-141 -500h-93l-95 360
c-5.33301 20 -9 38.667 -11 56h-2c-2 -17.333 -5.66699 -36 -11 -56l-95 -360h-93z" />
    <glyph glyph-name="Wacute" unicode="&#x1e82;" horiz-adv-x="912" 
d="M416 753l90 108h94l-104 -108h-80zM194 0l-169.002 710h97l123 -572c2.66699 -14 4.66699 -27 6 -39h3c0.666992 8 3.33398 21 8.00098 39l146 572h96l146 -572c4.66699 -18 7.33398 -31 8.00098 -39h3c1.33301 12 3.33301 25 6 39l123 572h97l-169 -710h-116l-138 554
c-3.33301 13.333 -5.33301 24.333 -6 33h-4c-0.666992 -8.66699 -2.66699 -19.667 -6 -33l-138 -554h-116z" />
    <glyph glyph-name="wacute" unicode="&#x1e83;" horiz-adv-x="732" 
d="M329 580l92 143h104l-118 -143h-78zM166 0l-141.002 500h88l90 -357c4.66699 -20 8.33398 -39.667 11.001 -59h2c0 1.33301 4.33301 21 13 59l91 357h92l91 -357c8.66699 -38 13 -57.667 13 -59h2c2.66699 19.333 6.33398 39 11.001 59l90 357h88l-141 -500h-93l-95 360
c-5.33301 20 -9 38.667 -11 56h-2c-2 -17.333 -5.66699 -36 -11 -56l-95 -360h-93z" />
    <glyph glyph-name="Wdieresis" unicode="&#x1e84;" horiz-adv-x="912" 
d="M296 753v98h97v-98h-97zM519 753v98h97v-98h-97zM194 0l-169.002 710h97l123 -572c2.66699 -14 4.66699 -27 6 -39h3c0.666992 8 3.33398 21 8.00098 39l146 572h96l146 -572c4.66699 -18 7.33398 -31 8.00098 -39h3c1.33301 12 3.33301 25 6 39l123 572h97l-169 -710
h-116l-138 554c-3.33301 13.333 -5.33301 24.333 -6 33h-4c-0.666992 -8.66699 -2.66699 -19.667 -6 -33l-138 -554h-116z" />
    <glyph glyph-name="wdieresis" unicode="&#x1e85;" horiz-adv-x="732" 
d="M216 596v103h97v-103h-97zM419 596v103h97v-103h-97zM166 0l-141.002 500h88l90 -357c4.66699 -20 8.33398 -39.667 11.001 -59h2c0 1.33301 4.33301 21 13 59l91 357h92l91 -357c8.66699 -38 13 -57.667 13 -59h2c2.66699 19.333 6.33398 39 11.001 59l90 357h88
l-141 -500h-93l-95 360c-5.33301 20 -9 38.667 -11 56h-2c-2 -17.333 -5.66699 -36 -11 -56l-95 -360h-93z" />
    <glyph glyph-name="Ygrave" unicode="&#x1ef2;" horiz-adv-x="578" 
d="M329 753h-80l-104 108h94zM241 0v283l-241 427h106l163 -301c10 -18.667 16.333 -32.334 19 -41.001h2c2.66699 8.66699 9 22.334 19 41.001l163 301h106l-241 -427v-283h-96z" />
    <glyph glyph-name="ygrave" unicode="&#x1ef3;" horiz-adv-x="487" 
d="M281 580h-78l-118 143h104zM92 -201c-16.667 0 -32 1.33398 -46 4.00098v75c17.333 -1.33301 29.333 -2 36 -2c30 0 53.667 7.16699 71 21.5s31.666 38.166 42.999 71.499l13 37l-199 494h95l128 -348c7.33301 -20 13 -39.667 17 -59h2
c2.66699 12 8.33398 31.667 17.001 59l116 348h92l-195 -532c-22 -61.333 -48.167 -104.833 -78.5 -130.5s-67.5 -38.5 -111.5 -38.5z" />
    <glyph glyph-name="uni2002" unicode="&#x2002;" horiz-adv-x="500" 
 />
    <glyph glyph-name="uni2003" unicode="&#x2003;" horiz-adv-x="1000" 
 />
    <glyph glyph-name="uni2004" unicode="&#x2004;" horiz-adv-x="0" 
 />
    <glyph glyph-name="uni2005" unicode="&#x2005;" horiz-adv-x="250" 
 />
    <glyph glyph-name="uni2009" unicode="&#x2009;" horiz-adv-x="135" 
 />
    <glyph glyph-name="uni200A" unicode="&#x200a;" horiz-adv-x="75" 
 />
    <glyph glyph-name="endash" unicode="&#x2013;" horiz-adv-x="512" 
d="M50 310h412v-64h-412v64z" />
    <glyph glyph-name="emdash" unicode="&#x2014;" horiz-adv-x="795" 
d="M50 310h695v-64h-695v64z" />
    <glyph glyph-name="quoteleft" unicode="&#x2018;" horiz-adv-x="257" 
d="M160 722l23 -44.001c-24 -10.667 -40 -22.5 -48 -35.5s-12 -32.167 -12 -57.5v-3h64v-118h-117v111c0 40.667 6.5 71.834 19.5 93.501s36.5 39.5 70.5 53.5z" />
    <glyph glyph-name="quoteright" unicode="&#x2019;" horiz-adv-x="257" 
d="M97 452l-23 44.001c24 10.667 40 22.5 48 35.5s12 32.167 12 57.5v3h-64v118h117v-111c0 -40.667 -6.5 -71.834 -19.5 -93.501s-36.5 -39.5 -70.5 -53.5z" />
    <glyph glyph-name="quotesinglbase" unicode="&#x201a;" horiz-adv-x="257" 
d="M97 -140l-23 44.001c24 10.667 40 22.5 48 35.5s12 32.167 12 57.5v3h-64v118h117v-111c0 -40.667 -6.5 -71.834 -19.5 -93.501s-36.5 -39.5 -70.5 -53.5z" />
    <glyph glyph-name="quotedblleft" unicode="&#x201c;" horiz-adv-x="421" 
d="M160 723l23 -44.001c-24 -10.667 -40 -22.5 -48 -35.5s-12 -32.167 -12 -57.5v-3h64v-118h-117v111c0 40.667 6.5 71.834 19.5 93.501s36.5 39.5 70.5 53.5zM324 722.999l23 -44.001c-24 -10.667 -40 -22.5 -48 -35.5s-12 -32.167 -12 -57.5v-3h64v-118h-117v111
c0 40.667 6.5 71.834 19.5 93.501s36.5 39.5 70.5 53.5z" />
    <glyph glyph-name="quotedblright" unicode="&#x201d;" horiz-adv-x="421" 
d="M97 452l-23 44.001c24 10.667 40 22.5 48 35.5s12 32.167 12 57.5v3h-64v118h117v-111c0 -40.667 -6.5 -71.834 -19.5 -93.501s-36.5 -39.5 -70.5 -53.5zM261 452.001l-23 44.001c24 10.667 40 22.5 48 35.5s12 32.167 12 57.5v3h-64v118h117v-111
c0 -40.667 -6.5 -71.834 -19.5 -93.501s-36.5 -39.5 -70.5 -53.5z" />
    <glyph glyph-name="quotedblbase" unicode="&#x201e;" horiz-adv-x="421" 
d="M97 -140l-23 44.001c24 10.667 40 22.5 48 35.5s12 32.167 12 57.5v3h-64v118h117v-111c0 -40.667 -6.5 -71.834 -19.5 -93.501s-36.5 -39.5 -70.5 -53.5zM261 -139.999l-23 44.001c24 10.667 40 22.5 48 35.5s12 32.167 12 57.5v3h-64v118h117v-111
c0 -40.667 -6.5 -71.834 -19.5 -93.501s-36.5 -39.5 -70.5 -53.5z" />
    <glyph glyph-name="dagger" unicode="&#x2020;" horiz-adv-x="488" 
d="M286 430v-530h-85v530h-131v70h131v220h85v-220h132v-70h-132z" />
    <glyph glyph-name="daggerdbl" unicode="&#x2021;" horiz-adv-x="488" 
d="M418 430h-132v-246h131v-70h-131v-214h-85v214h-130v70h130v246h-131v70h131v220h85v-220h132v-70z" />
    <glyph glyph-name="bullet" unicode="&#x2022;" horiz-adv-x="329" 
d="M164 253c-27.333 0 -49.833 8.5 -67.5 25.5s-26.5 39.167 -26.5 66.5c0 28 8.83301 50.833 26.5 68.5s40.167 26.5 67.5 26.5c28 0 50.833 -8.66699 68.5 -26s26.5 -40.333 26.5 -69c0 -27.333 -8.83301 -49.5 -26.5 -66.5s-40.5 -25.5 -68.5 -25.5z" />
    <glyph glyph-name="ellipsis" unicode="&#x2026;" horiz-adv-x="821" 
d="M187 115v-115h-117v115h117zM469 115v-115h-117v115h117zM751 115v-115h-117v115h117z" />
    <glyph glyph-name="perthousand" unicode="&#x2030;" horiz-adv-x="1147" 
d="M191 359c-52 0 -93.5 16.333 -124.5 49s-46.5 77 -46.5 133c0 54 15.5 97.333 46.5 130s72.167 49 123.5 49c50 0 90.833 -16.667 122.5 -50s47.5 -77.333 47.5 -132c0 -54 -15.667 -97.333 -47 -130s-72 -49 -122 -49zM127 -15l437 725h83l-437 -725h-83zM191 423
c28.667 0 51.665 10.333 68.998 31s26 48.667 26 84c0 36 -8.66699 64.667 -26 86s-40.666 32 -69.999 32c-30 0 -53.833 -10.333 -71.5 -31s-26.5 -48.667 -26.5 -84c0 -37.333 8.83301 -66.333 26.5 -87s41.834 -31 72.501 -31zM587.998 -16c-52 0 -93.5 16.333 -124.5 49
s-46.5 77 -46.5 133c0 54 15.5 97.333 46.5 130s72.167 49 123.5 49c50 0 90.833 -16.667 122.5 -50s47.5 -77.333 47.5 -132c0 -54 -15.667 -97.333 -47 -130s-72 -49 -122 -49zM957.998 -16c-52 0 -93.5 16.333 -124.5 49s-46.5 77 -46.5 133c0 54 15.5 97.333 46.5 130
s72.167 49 123.5 49c50 0 90.833 -16.667 122.5 -50s47.5 -77.333 47.5 -132c0 -54 -15.667 -97.333 -47 -130s-72 -49 -122 -49zM587.998 48c28.667 0 51.665 10.333 68.998 31s26 48.667 26 84c0 36 -8.66699 64.667 -26 86s-40.666 32 -69.999 32
c-30 0 -53.833 -10.333 -71.5 -31s-26.5 -48.667 -26.5 -84c0 -37.333 8.83301 -66.333 26.5 -87s41.834 -31 72.501 -31zM957.996 48c28.667 0 51.665 10.333 68.998 31s26 48.667 26 84c0 36 -8.66699 64.667 -26 86s-40.666 32 -69.999 32
c-30 0 -53.833 -10.333 -71.5 -31s-26.5 -48.667 -26.5 -84c0 -37.333 8.83301 -66.333 26.5 -87s41.834 -31 72.501 -31z" />
    <glyph glyph-name="guilsinglleft" unicode="&#x2039;" horiz-adv-x="311" 
d="M201 67l-171 208l171 208h90l-165 -208l165 -208h-90z" />
    <glyph glyph-name="guilsinglright" unicode="&#x203a;" horiz-adv-x="311" 
d="M110 67h-90l165 208l-165 208h90l171 -208z" />
    <glyph glyph-name="fraction" unicode="&#x2044;" horiz-adv-x="185" 
d="M-160 -17l431 744h74l-430 -744h-75z" />
    <glyph glyph-name="uni20A9" unicode="&#x20a9;" horiz-adv-x="882" 
d="M862 695l-58 -238h53v-56h-66l-21 -85h87v-56h-101l-63 -260h-106l-64 260h-164l-64 -260h-106l-63 260h-101v56h87l-21 85h-66v56h53l-58 238h92l51 -238h174l61 238h86l61 -238h174l51 238h92zM415 485l-7 -28h66l-7 28c-9.33301 38.667 -17.333 84.334 -24 137.001h-4
c-6.66699 -52.667 -14.667 -98.334 -24 -137.001zM176 401l18 -85h106l22 85h-146zM373 316h136l-21 85h-94zM688 316l18 85h-146l22 -85h106zM266 182l20.002 77.999h-80l16 -74c9.33301 -41.333 15.666 -78.666 18.999 -111.999h3
c3.33301 29.333 10.666 65.333 21.999 108zM660.002 185.999l16.002 74.001h-80l20 -78c11.333 -42.667 18.666 -78.667 21.999 -108h3c3.33301 33.333 9.66602 70.666 18.999 111.999z" />
    <glyph glyph-name="Euro" unicode="&#x20ac;" horiz-adv-x="647" 
d="M559 171l67.9951 -46.998c-55.333 -92.667 -140.666 -139 -255.999 -139c-83.333 0 -150.166 24.667 -200.499 74s-82.833 115.666 -97.5 198.999h-58v60h51c-0.666992 9.33301 -1 23.333 -1 42c0 14.667 0.333008 25.667 1 33h-51v60h57
c14 81.333 46.5 144.5 97.5 189.5s118.5 67.5 202.5 67.5c58.667 0 107.667 -10.333 147 -31s73.333 -53 102 -97l-72 -51c-43.333 66.667 -104.666 100 -183.999 100c-54 0 -97.833 -15.5 -131.5 -46.5s-56.5 -74.833 -68.5 -131.5h346v-60h-353
c-0.666992 -6.66699 -1 -17.334 -1 -32.001c0 -10 0.666992 -24.333 2 -43h352v-60h-343c12.667 -60 36.834 -107.333 72.501 -142s80.167 -52 133.5 -52c76.667 0 138.334 35.667 185.001 107z" />
    <glyph glyph-name="uni20B9" unicode="&#x20b9;" horiz-adv-x="541" 
d="M531 695l0.000976562 -64.999h-175c40 -25.333 63.333 -62.333 70 -111h105v-60h-105c-6 -55.333 -30.333 -98.333 -73 -129s-100 -46 -172 -46l239 -284h-107l-243 296v57h122c86 0 134 35.333 144 106h-266v60h266c-6 35.333 -21.333 62.666 -46 81.999
s-57.334 29 -98.001 29h-122v65h461z" />
    <glyph glyph-name="uni20BA" unicode="&#x20ba;" horiz-adv-x="560" 
d="M464 242l80.999 -19c-34 -148.667 -125 -223 -273 -223h-171v269l-71 -21v67l71 21v78l-71 -21v67l71 21v214h90v-188l247 73v-67l-247 -73v-78l247 73v-67l-247 -73v-215h67c32.667 0 61.334 4.5 86.001 13.5s44.667 22 60 39s27.5 34 36.5 51s16.833 36.5 23.5 58.5z
" />
    <glyph glyph-name="uni20BD" unicode="&#x20bd;" horiz-adv-x="573" 
d="M312 285h-116v-84h167v-60h-167v-141h-90v141h-71v60h71v84h-70v65h70v345h206c74 0 132.667 -18.5 176 -55.5s65 -86.833 65 -149.5s-21.667 -112.5 -65 -149.5s-102 -55.5 -176 -55.5zM196 615v-264.999h111c46.667 0 83.834 12.167 111.501 36.5
s41.5 57.166 41.5 98.499c0 39.333 -13.833 70.833 -41.5 94.5s-64.834 35.5 -111.501 35.5h-111z" />
    <glyph glyph-name="uni2105" unicode="&#x2105;" horiz-adv-x="875" 
d="M206 -13h-83l538 748h83zM40 543c0 58.667 14.666 105.166 43.999 139.499s73.333 51.5 132 51.5c42 0 76.833 -11.667 104.5 -35s43.167 -55.666 46.5 -96.999l-70 -12c-7.33301 51.333 -35.666 77 -84.999 77c-30.667 0 -54.334 -11 -71.001 -33s-25 -52 -25 -90
c0 -39.333 8.33301 -70.5 25 -93.5s41 -34.5 73 -34.5c50 0 78.333 27 85 81l68 -15c-6.66699 -39.333 -22.667 -71.333 -48 -96s-60.333 -37 -105 -37c-55.333 0 -98.166 18.167 -128.499 54.5s-45.5 82.833 -45.5 139.5zM663.999 -12.001
c-51.333 0 -92.666 17.667 -123.999 53s-47 82 -47 140s15.667 104.5 47 139.5s72.666 52.5 123.999 52.5s92.666 -17.5 123.999 -52.5s47 -81.5 47 -139.5c0 -58.667 -15.667 -105.5 -47 -140.5s-72.666 -52.5 -123.999 -52.5zM760.999 180.999
c0 39.333 -8.5 70.333 -25.5 93s-40.833 34 -71.5 34s-54.5 -11.333 -71.5 -34s-25.5 -53.667 -25.5 -93c0 -40 8.5 -71.167 25.5 -93.5s40.833 -33.5 71.5 -33.5s54.5 11.167 71.5 33.5s25.5 53.5 25.5 93.5z" />
    <glyph glyph-name="uni2113" unicode="&#x2113;" horiz-adv-x="389" 
d="M175 153c0 -28.667 5.83203 -49.499 17.499 -62.499s30.167 -19.5 55.5 -19.5c14.667 0 32 2.33301 52 7v-78c-22 -6 -46.667 -9 -74 -9c-50.667 0 -86 13.667 -106 41s-30 66.666 -30 117.999v70c-25.333 -12.667 -54.666 -26 -87.999 -40l-29 64
c47.333 20 86.333 38.333 117 55v283c0 51.333 12.333 89 37 113s54.667 36 90 36c42 0 73.667 -13.833 95 -41.5s32 -65.167 32 -112.5c0 -124 -56.333 -226 -169 -306v-118zM174.999 598.001v-238c56 54 84 122.333 84 205c0 36.667 -3.66699 62.167 -11 76.5
s-18.333 21.5 -33 21.5c-26.667 0 -40 -21.667 -40 -65z" />
    <glyph glyph-name="uni2116" unicode="&#x2116;" horiz-adv-x="1199" 
d="M100 0v710h115l301 -517c20 -34.667 34.667 -65 44 -91h2c-2 24.667 -3 56 -3 94v514h85v-710h-115l-301 517c-21.333 37.333 -36 67.666 -44 90.999h-2c2 -25.333 3 -56.666 3 -93.999v-514h-85zM934 174c-64.667 0 -116.667 21.167 -156 63.5s-59 98.166 -59 167.499
c0 68.667 19.667 124.167 59 166.5s91.333 63.5 156 63.5s116.667 -21.167 156 -63.5s59 -97.833 59 -166.5c0 -69.333 -19.667 -125.166 -59 -167.499s-91.333 -63.5 -156 -63.5zM934 249c39.333 0 70.333 13.833 93 41.5s34 65.834 34 114.501
c0 48 -11.333 85.833 -34 113.5s-53.667 41.5 -93 41.5s-70.333 -13.833 -93 -41.5s-34 -65.5 -34 -113.5c0 -48.667 11.333 -86.834 34 -114.501s53.667 -41.5 93 -41.5zM719 0v78h430v-78h-430z" />
    <glyph glyph-name="trademark" unicode="&#x2122;" horiz-adv-x="858" 
d="M128 304v350h-123v56h321v-56h-132v-350h-66zM369 304v406h94l107 -299c8 -22 12.333 -39 13 -51h2c0.666992 12 5 29 13 51l105 299h95v-406h-62v289c0 27.333 0.666992 49.666 2 66.999h-1c-2.66699 -11.333 -9.66699 -33 -21 -65l-103 -291h-60l-101 291
c-11.333 32 -18.333 53.667 -21 65h-1c1.33301 -17.333 2 -39.666 2 -66.999v-289h-63z" />
    <glyph glyph-name="uni2126" unicode="&#x2126;" horiz-adv-x="636" 
d="M581 0h-214l-15 225c52 9.33301 92.167 32.666 120.5 69.999s42.5 85.333 42.5 144c0 64.667 -17.667 115.667 -53 153s-83.333 56 -144 56s-108.667 -18.667 -144 -56s-53 -88.333 -53 -153c0 -58.667 14.167 -106.667 42.5 -144s68.5 -60.666 120.5 -69.999l-15 -225
h-214v79h144l8 97c-53.333 18 -95.333 50.5 -126 97.5s-46 102.833 -46 167.5c0 84 26 151.833 78 203.5s120.333 77.5 205 77.5s153 -25.833 205 -77.5s78 -119.5 78 -203.5c0 -64.667 -15.333 -120.5 -46 -167.5s-72.667 -79.5 -126 -97.5l8 -97h144v-79z" />
    <glyph glyph-name="estimated" unicode="&#x212e;" horiz-adv-x="754" 
d="M709 352h-515.998v-231c48 -48 114 -72 198 -72c56.667 0 105 10 145 30s76 53 108 99l45 -35c-66.667 -104.667 -166 -157 -298 -157c-46.667 0 -90.334 7.16699 -131.001 21.5s-77.334 35.666 -110.001 63.999s-58.334 66.333 -77.001 114s-28 102.834 -28 165.501
c0 115.333 32.667 204.833 98 268.5s146 95.5 242 95.5c98.667 0 177.334 -29.5 236.001 -88.5s88 -137.167 88 -234.5v-40zM380.002 660c-76.667 0 -139 -25 -187 -75v-174h378v175c-43.333 49.333 -107 74 -191 74z" />
    <glyph glyph-name="uni2153" unicode="&#x2153;" horiz-adv-x="821" 
d="M106 -17l431 744h74l-430 -744h-75zM119 330l0.000976562 284c-20 -23.333 -47 -35 -81 -35h-11v65h8c49.333 0 81.666 22.333 96.999 67h57v-381h-70zM634.001 -8c-46.667 0 -83.499 10.998 -110.499 32.998s-40.833 52 -41.5 90l72 6
c0.666992 -23.333 8 -41.666 22 -54.999s33.333 -20 58 -20c51.333 0 77 21.667 77 65c0 37.333 -26.667 56 -80 56h-38v51h35c22.667 0 40.667 5.16699 54 15.5s20 24.166 20 41.499c0 41.333 -23.333 62 -70 62c-23.333 0 -42 -6.66699 -56 -20s-21 -31.666 -21 -54.999
l-71 6c0 37.333 13.667 67 41 89s64.333 33 111 33c44 0 78.167 -9.5 102.5 -28.5s36.5 -45.167 36.5 -78.5c0 -22 -7.83301 -41.167 -23.5 -57.5s-35.834 -25.833 -60.501 -28.5c29.333 -3.33301 52.666 -13.166 69.999 -29.499s26 -37.5 26 -63.5
c0 -34.667 -13.667 -62 -41 -82s-64.666 -30 -111.999 -30z" />
    <glyph glyph-name="uni2154" unicode="&#x2154;" horiz-adv-x="920" 
d="M205 -17l431 744h74l-430 -744h-75zM33 330l0.000976562 52.0029c37.333 22 65.833 39.667 85.5 53s41.167 29.5 64.5 48.5s40.166 37.667 50.499 56s15.5 37.166 15.5 56.499c0 45.333 -22.667 68 -68 68c-23.333 0 -41.5 -5.83301 -54.5 -17.5s-19.5 -28.5 -19.5 -50.5
c0 -7.33301 1.66699 -17 5 -29l-74 6c-2 9.33301 -3 19.666 -3 30.999c0 36 13.167 64.333 39.5 85s62.833 31 109.5 31c44 0 78.333 -10.333 103 -31s37 -49.334 37 -86.001c0 -42.667 -18.833 -83 -56.5 -121s-83.5 -70.667 -137.5 -98h202v-54h-299zM733.001 -7.99707
c-46.667 0 -83.499 10.998 -110.499 32.998s-40.833 52 -41.5 90l72 6c0.666992 -23.333 8 -41.666 22 -54.999s33.333 -20 58 -20c51.333 0 77 21.667 77 65c0 37.333 -26.667 56 -80 56h-38v51h35c22.667 0 40.667 5.16699 54 15.5s20 24.166 20 41.499
c0 41.333 -23.333 62 -70 62c-23.333 0 -42 -6.66699 -56 -20s-21 -31.666 -21 -54.999l-71 6c0 37.333 13.667 67 41 89s64.333 33 111 33c44 0 78.167 -9.5 102.5 -28.5s36.5 -45.167 36.5 -78.5c0 -22 -7.83301 -41.167 -23.5 -57.5s-35.834 -25.833 -60.501 -28.5
c29.333 -3.33301 52.666 -13.166 69.999 -29.499s26 -37.5 26 -63.5c0 -34.667 -13.667 -62 -41 -82s-64.666 -30 -111.999 -30z" />
    <glyph glyph-name="oneeighth" unicode="&#x215b;" horiz-adv-x="829" 
d="M537 727h74l-430 -744h-75zM119 614c-20 -23.333 -46.999 -35 -80.999 -35h-11v65h8c49.333 0 81.666 22.333 96.999 67h57v-381h-70v284zM704.001 209c62.667 -17.333 94.001 -53.001 94.001 -107.001c0 -34 -14.333 -60.833 -43 -80.5s-67.667 -29.5 -117 -29.5
c-48.667 0 -86.834 9.33301 -114.501 28s-41.5 44.334 -41.5 77.001c0 46.667 29.667 77.667 89 93c-52.667 18 -79 50 -79 96c0 30.667 13.167 55.667 39.5 75s60.833 29 103.5 29c44 0 79.333 -8.5 106 -25.5s40 -40.167 40 -69.5c0 -22 -6 -39.667 -18 -53
s-31.667 -24.333 -59 -33zM636.002 341.999c-23.333 0 -41.999 -5.00293 -55.999 -15.0029s-21 -23.667 -21 -41c0 -16.667 6.16699 -29.667 18.5 -39s30.833 -16.666 55.5 -21.999l27 -6c20 6.66699 34 14.834 42 24.501s12 22.5 12 38.5
c0 18.667 -6.83301 33.334 -20.5 44.001s-32.834 16 -57.501 16zM640.003 42.9961c26.667 0 47.667 5.50195 63 16.502s23 25.833 23 44.5c0 19.333 -6.66699 34.166 -20 44.499s-33 18.166 -59 23.499l-29 7c-42.667 -14.667 -64 -38.667 -64 -72
c0 -20 7.5 -35.667 22.5 -47s36.167 -17 63.5 -17z" />
    <glyph glyph-name="threeeighths" unicode="&#x215c;" horiz-adv-x="933" 
d="M641 727h74l-430 -744h-75zM336 434c0 -34.667 -13.666 -62.002 -40.999 -82.002s-64.666 -30 -111.999 -30c-46.667 0 -83.5 11 -110.5 33s-40.833 52 -41.5 90l72 6c0.666992 -23.333 8 -41.666 22 -54.999s33.333 -20 58 -20c51.333 0 77 21.667 77 65
c0 37.333 -26.667 56 -80 56h-38v51h35c22.667 0 40.667 5.16699 54 15.5s20 24.166 20 41.499c0 41.333 -23.333 62 -70 62c-23.333 0 -42 -6.66699 -56 -20s-21 -31.666 -21 -54.999l-71 6c0 37.333 13.667 67 41 89s64.333 33 111 33c44 0 78.167 -9.5 102.5 -28.5
s36.5 -45.167 36.5 -78.5c0 -22 -7.83301 -41.167 -23.5 -57.5s-35.834 -25.833 -60.501 -28.5c29.333 -3.33301 52.666 -13.166 69.999 -29.499s26 -37.5 26 -63.5zM808.001 208.998c62.667 -17.333 94.001 -53.001 94.001 -107.001c0 -34 -14.333 -60.833 -43 -80.5
s-67.667 -29.5 -117 -29.5c-48.667 0 -86.834 9.33301 -114.501 28s-41.5 44.334 -41.5 77.001c0 46.667 29.667 77.667 89 93c-52.667 18 -79 50 -79 96c0 30.667 13.167 55.667 39.5 75s60.833 29 103.5 29c44 0 79.333 -8.5 106 -25.5s40 -40.167 40 -69.5
c0 -22 -6 -39.667 -18 -53s-31.667 -24.333 -59 -33zM740.002 341.997c-23.333 0 -41.999 -5.00293 -55.999 -15.0029s-21 -23.667 -21 -41c0 -16.667 6.16699 -29.667 18.5 -39s30.833 -16.666 55.5 -21.999l27 -6c20 6.66699 34 14.834 42 24.501s12 22.5 12 38.5
c0 18.667 -6.83301 33.334 -20.5 44.001s-32.834 16 -57.501 16zM744.003 42.9941c26.667 0 47.667 5.50195 63 16.502s23 25.833 23 44.5c0 19.333 -6.66699 34.166 -20 44.499s-33 18.166 -59 23.499l-29 7c-42.667 -14.667 -64 -38.667 -64 -72
c0 -20 7.5 -35.667 22.5 -47s36.167 -17 63.5 -17z" />
    <glyph glyph-name="fiveeighths" unicode="&#x215d;" horiz-adv-x="929" 
d="M637 727h74l-430 -744h-75zM332 461c0 -43.333 -13.3301 -77.333 -39.9971 -102s-63.334 -37 -110.001 -37c-40.667 0 -74.334 9.16699 -101.001 27.5s-42.667 43.5 -48 75.5l68 11c3.33301 -18.667 12 -33.334 26 -44.001s31.333 -16 52 -16c26 0 46.333 7.5 61 22.5
s22 35.167 22 60.5c0 24.667 -7 44.334 -21 59.001s-33 22 -57 22c-19.333 0 -36.333 -5.16699 -51 -15.5s-24.334 -23.833 -29.001 -40.5l-62 5l25 222h245v-55h-195l-13 -115c19.333 32 53 48 101 48c39.333 0 70.333 -11.5 93 -34.5s34 -54.167 34 -93.5zM804.003 209
c62.667 -17.333 94.001 -53.001 94.001 -107.001c0 -34 -14.333 -60.833 -43 -80.5s-67.667 -29.5 -117 -29.5c-48.667 0 -86.834 9.33301 -114.501 28s-41.5 44.334 -41.5 77.001c0 46.667 29.667 77.667 89 93c-52.667 18 -79 50 -79 96c0 30.667 13.167 55.667 39.5 75
s60.833 29 103.5 29c44 0 79.333 -8.5 106 -25.5s40 -40.167 40 -69.5c0 -22 -6 -39.667 -18 -53s-31.667 -24.333 -59 -33zM736.004 341.999c-23.333 0 -41.999 -5.00293 -55.999 -15.0029s-21 -23.667 -21 -41c0 -16.667 6.16699 -29.667 18.5 -39
s30.833 -16.666 55.5 -21.999l27 -6c20 6.66699 34 14.834 42 24.501s12 22.5 12 38.5c0 18.667 -6.83301 33.334 -20.5 44.001s-32.834 16 -57.501 16zM740.005 42.9961c26.667 0 47.667 5.50195 63 16.502s23 25.833 23 44.5c0 19.333 -6.66699 34.166 -20 44.499
s-33 18.166 -59 23.499l-29 7c-42.667 -14.667 -64 -38.667 -64 -72c0 -20 7.5 -35.667 22.5 -47s36.167 -17 63.5 -17z" />
    <glyph glyph-name="seveneighths" unicode="&#x215e;" horiz-adv-x="851" 
d="M559 727h74l-430 -744h-75zM95 335c2.66699 124 53.333 230.334 152 319.001h-217v57h286v-56c-93.333 -86.667 -141 -191.334 -143 -314.001v-11h-78v5zM725.999 209.001c62.667 -17.333 94.001 -53.001 94.001 -107.001c0 -34 -14.333 -60.833 -43 -80.5
s-67.667 -29.5 -117 -29.5c-48.667 0 -86.834 9.33301 -114.501 28s-41.5 44.334 -41.5 77.001c0 46.667 29.667 77.667 89 93c-52.667 18 -79 50 -79 96c0 30.667 13.167 55.667 39.5 75s60.833 29 103.5 29c44 0 79.333 -8.5 106 -25.5s40 -40.167 40 -69.5
c0 -22 -6 -39.667 -18 -53s-31.667 -24.333 -59 -33zM658 342c-23.333 0 -41.999 -5.00293 -55.999 -15.0029s-21 -23.667 -21 -41c0 -16.667 6.16699 -29.667 18.5 -39s30.833 -16.666 55.5 -21.999l27 -6c20 6.66699 34 14.834 42 24.501s12 22.5 12 38.5
c0 18.667 -6.83301 33.334 -20.5 44.001s-32.834 16 -57.501 16zM662.001 42.9971c26.667 0 47.667 5.50195 63 16.502s23 25.833 23 44.5c0 19.333 -6.66699 34.166 -20 44.499s-33 18.166 -59 23.499l-29 7c-42.667 -14.667 -64 -38.667 -64 -72
c0 -20 7.5 -35.667 22.5 -47s36.167 -17 63.5 -17z" />
    <glyph glyph-name="arrowleft" unicode="&#x2190;" horiz-adv-x="1076" 
d="M976 302h-712v-95l-164 123l164 123v-95h712v-56z" />
    <glyph glyph-name="arrowup" unicode="&#x2191;" horiz-adv-x="446" 
d="M194 -35v621h-94l123 164l123 -164h-94v-621h-58z" />
    <glyph glyph-name="arrowright" unicode="&#x2192;" horiz-adv-x="1076" 
d="M100 358h712v95l164 -123l-164 -123v95h-712v56z" />
    <glyph glyph-name="arrowdown" unicode="&#x2193;" horiz-adv-x="446" 
d="M252 745v-621h94l-123 -164l-123 164h94v621h58z" />
    <glyph glyph-name="arrowboth" unicode="&#x2194;" horiz-adv-x="1076" 
d="M812 302h-548v-95l-164 123l164 123v-95h548v95l164 -123l-164 -123v95z" />
    <glyph glyph-name="arrowupdn" unicode="&#x2195;" horiz-adv-x="446" 
d="M100 124h94v462h-94l123 164l123 -164h-94v-462h94l-123 -164z" />
    <glyph glyph-name="uni2196" unicode="&#x2196;" horiz-adv-x="921" 
d="M179 588l-79 -80v202h201l-79 -80l599 -599l-42 -43z" />
    <glyph glyph-name="uni2197" unicode="&#x2197;" horiz-adv-x="921" 
d="M742 589l-600 -600l-42 43l599 599l-79 80h201v-202z" />
    <glyph glyph-name="uni2198" unicode="&#x2198;" horiz-adv-x="921" 
d="M742 133l79 80v-202h-201l79 80l-599 599l42 43z" />
    <glyph glyph-name="uni2199" unicode="&#x2199;" horiz-adv-x="921" 
d="M179 133l600 600l42 -43l-599 -599l79 -80h-201v202z" />
    <glyph glyph-name="uni21A9" unicode="&#x21a9;" horiz-adv-x="991" 
d="M264 207l-164 123.001l164 123v-95h414c46 0 82.333 11.667 109 35s40 56.666 40 99.999c0 44 -13.167 77.5 -39.5 100.5s-62.833 34.5 -109.5 34.5h-223v56h234c62 0 111.167 -16.667 147.5 -50s54.5 -80.333 54.5 -141s-18.333 -107.667 -55 -141s-85.667 -50 -147 -50
h-425v-95z" />
    <glyph glyph-name="uni21AA" unicode="&#x21aa;" horiz-adv-x="991" 
d="M727 207v94.999h-425c-61.333 0 -110.333 16.667 -147 50s-55 80.333 -55 141s18.167 107.667 54.5 141s85.5 50 147.5 50h234v-56h-223c-46.667 0 -83.167 -11.5 -109.5 -34.5s-39.5 -56.5 -39.5 -100.5c0 -43.333 13.333 -76.666 40 -99.999s63 -35 109 -35h414v95
l164 -123z" />
    <glyph glyph-name="uni21B0" unicode="&#x21b0;" horiz-adv-x="834" 
d="M675 0v572h-411v-95l-164 123l164 123v-95h470v-628h-59z" />
    <glyph glyph-name="uni21B1" unicode="&#x21b1;" horiz-adv-x="834" 
d="M159 0h-59v628h470v95l164 -123l-164 -123v95h-411v-572z" />
    <glyph glyph-name="uni21B2" unicode="&#x21b2;" horiz-adv-x="834" 
d="M675 710h59v-628h-470v-95l-164 123l164 123v-95h411v572z" />
    <glyph glyph-name="uni21B3" unicode="&#x21b3;" horiz-adv-x="834" 
d="M159 710v-572h411v95l164 -123l-164 -123v95h-470v628h59z" />
    <glyph glyph-name="uni21B4" unicode="&#x21b4;" horiz-adv-x="923" 
d="M730 710v-558h93l-123 -164l-123 164h94v502h-571v56h630z" />
    <glyph glyph-name="uni21BB" unicode="&#x21bb;" horiz-adv-x="1018" 
d="M672 352h94v1c0 90.667 -29 164 -87 220s-129.667 84 -215 84s-156.5 -27.667 -213.5 -83s-85.5 -128.333 -85.5 -219c0 -90 28.667 -163.333 86 -220s128.333 -85 213 -85c42 0 82.833 8.33301 122.5 25s73.167 39 100.5 67l39 -49c-68 -69.333 -155.333 -104 -262 -104
c-101.333 0 -187.333 33.833 -258 101.5s-106 155.167 -106 262.5c0 108 35.167 195.833 105.5 263.5s156.5 101.5 258.5 101.5s188.167 -33.833 258.5 -101.5s105.5 -155.5 105.5 -263.5v-1h90l-123 -164z" />
    <glyph glyph-name="uni21C4" unicode="&#x21c4;" horiz-adv-x="1076" 
d="M913 418h-649v-95l-164 123l164 123v-95h649v-56zM812 242v95l164 -123l-164 -123v95h-648v56h648z" />
    <glyph glyph-name="uni21C5" unicode="&#x21c5;" horiz-adv-x="678" 
d="M426 44v542h-94l123 164l123 -164h-94v-542h-58zM223 -40l-123 164h94v542h58v-542h94z" />
    <glyph glyph-name="partialdiff" unicode="&#x2202;" horiz-adv-x="604" 
d="M277 721c174.667 0 262 -127.667 262 -383c0 -113.333 -22.167 -200.833 -66.5 -262.5s-107.166 -92.5 -188.499 -92.5c-70.667 0 -127.334 22 -170.001 66s-64 102.333 -64 175c0 68.667 20.333 124.667 61 168s94.334 65 161.001 65c80.667 0 141 -31.667 181 -95
c0 189.333 -59.333 284 -178 284c-36.667 0 -77.334 -9.66699 -122.001 -29l-32 68c52 24 104 36 156 36zM288 56c50.667 0 90.333 18.333 119 55s44 88.667 46 156c-38 78 -93 117 -165 117c-46.667 0 -83.667 -14.333 -111 -43s-41 -67.667 -41 -117
c0 -52 13.5 -93 40.5 -123s64.167 -45 111.5 -45z" />
    <glyph glyph-name="emptyset" unicode="&#x2205;" horiz-adv-x="548" 
d="M503 513l-56 -60c32.667 -40 49 -89.667 49 -149c0 -66.667 -20.333 -121 -61 -163s-94.334 -63 -161.001 -63c-51.333 0 -96 13.667 -134 41l-55 -60l-40 36l56 61c-32.667 40 -49 89.333 -49 148c0 66.667 20.5 121 61.5 163s94.5 63 160.5 63
c50.667 0 95.334 -13.333 134.001 -40l55 59zM130 304c0 -36 7.99902 -66.333 23.999 -91l204 221c-24 16.667 -52 25 -84 25c-43.333 0 -78.166 -14.333 -104.499 -43s-39.5 -66 -39.5 -112zM417.999 304c0 36 -8 66.333 -24 91l-203 -221
c22.667 -16.667 50.334 -25 83.001 -25c43.333 0 78.166 14.333 104.499 43s39.5 66 39.5 112z" />
    <glyph glyph-name="uni2206" unicode="&#x2206;" horiz-adv-x="590" 
d="M8 0l239 710h99l236 -710h-574zM295 610l-177 -535h349z" />
    <glyph glyph-name="product" unicode="&#x220f;" horiz-adv-x="668" 
d="M487 -88v713h-306v-713h-86v793h478v-793h-86z" />
    <glyph glyph-name="summation" unicode="&#x2211;" horiz-adv-x="590" 
d="M50 -88v62l278 353l-265 317v61h470v-77h-356l258 -301l-276 -338h386v-77h-495z" />
    <glyph glyph-name="minus" unicode="&#x2212;" horiz-adv-x="570" 
d="M50 288v80h470v-80h-470z" />
    <glyph glyph-name="radical" unicode="&#x221a;" 
d="M51 302h135l80 -277l222 709h81l-263 -828h-79l-104 327h-72v69z" />
    <glyph glyph-name="infinity" unicode="&#x221e;" 
d="M433 468c37.333 0 67.5 -13 90.5 -39s34.5 -59.333 34.5 -100c0 -40 -11.833 -73.5 -35.5 -100.5s-53.5 -40.5 -89.5 -40.5c-51.333 0 -92.333 26 -123 78c-17.333 -27.333 -35.5 -47.166 -54.5 -59.499s-41.833 -18.5 -68.5 -18.5c-37.333 0 -67.5 13 -90.5 39
s-34.5 59.333 -34.5 100c0 40 11.833 73.5 35.5 100.5s53.5 40.5 89.5 40.5c51.333 0 92.333 -26 123 -78c17.333 27.333 35.5 47.166 54.5 59.499s41.833 18.5 68.5 18.5zM195 260c18.667 0 33.333 4.99902 44 14.999s22.667 27.333 36 52
c-13.333 24.667 -26 42.334 -38 53.001s-27 16 -45 16c-18.667 0 -33.167 -6.16699 -43.5 -18.5s-15.5 -28.833 -15.5 -49.5c0 -20 5.33301 -36.333 16 -49s26 -19 46 -19zM427.999 259.999c18.667 0 33.168 6.16797 43.501 18.501s15.5 28.833 15.5 49.5
c0 20 -5.33301 36.333 -16 49s-26 19 -46 19c-18.667 0 -33.334 -5 -44.001 -15s-22.667 -27.333 -36 -52c13.333 -24.667 26 -42.334 38 -53.001s27 -16 45 -16z" />
    <glyph glyph-name="integral" unicode="&#x222b;" 
d="M149 -116c-12.667 0 -22.3311 0.332031 -28.998 0.999023v73c7.33301 -0.666992 17.333 -1 30 -1c47.333 0 79.666 9.5 96.999 28.5s26 53.5 26 103.5v425c0 62 14.833 110.833 44.5 146.5s76.5 53.167 140.5 52.5c16 0 32.333 -1 49 -3v-73c-16 2.66699 -32.333 4 -49 4
c-36.667 0 -62.334 -11.167 -77.001 -33.5s-22 -56.166 -22 -101.499v-425c0 -66 -16.5 -115.5 -49.5 -148.5s-86.5 -49.167 -160.5 -48.5z" />
    <glyph glyph-name="approxequal" unicode="&#x2248;" 
d="M421 364c-26 0 -64.166 8.33301 -114.499 25s-85.5 25 -105.5 25c-49.333 0 -91.333 -13.333 -126 -40v80c13.333 11.333 32 20.833 56 28.5s47.333 11.5 70 11.5c30.667 0 70 -8.33301 118 -25s82 -25 102 -25c49.333 0 90.666 13.333 123.999 40v-80
c-12 -11.333 -29.833 -20.833 -53.5 -28.5s-47.167 -11.5 -70.5 -11.5zM421.001 174c-26 0 -64.166 8.33301 -114.499 25s-85.5 25 -105.5 25c-49.333 0 -91.333 -13.333 -126 -40v80c13.333 11.333 32 20.833 56 28.5s47.333 11.5 70 11.5c30.667 0 70 -8.33301 118 -25
s82 -25 102 -25c49.333 0 90.666 13.333 123.999 40v-80c-12 -11.333 -29.833 -20.833 -53.5 -28.5s-47.167 -11.5 -70.5 -11.5z" />
    <glyph glyph-name="notequal" unicode="&#x2260;" 
d="M520 384h-170l-43 -110h213v-80h-244l-51 -131h-56l51 131h-170v80h201l43 110h-244v80h275l50 127h56l-50 -127h139v-80z" />
    <glyph glyph-name="lessequal" unicode="&#x2264;" 
d="M536 131l-465 205v72l465 205v-79l-371 -161l371 -161v-81zM74 75h460v-75h-460v75z" />
    <glyph glyph-name="greaterequal" unicode="&#x2265;" 
d="M84 131v81l371 161l-371 161v79l465 -205v-72zM546 75v-75h-460v75h460z" />
    <glyph glyph-name="uni2460" unicode="&#x2460;" horiz-adv-x="836" 
d="M418 -17c-104 0 -192.167 34.167 -264.5 102.5s-108.5 158.166 -108.5 269.499c0 112 36 202 108 270s160.333 102 265 102s193 -34 265 -102s108 -158 108 -270c0 -111.333 -36.167 -201.166 -108.5 -269.499s-160.5 -102.5 -264.5 -102.5zM418 30
c90 0 166 29.833 228 89.5s93 138.167 93 235.5c0 98 -31 176.667 -93 236s-138 89 -228 89s-166 -29.667 -228 -89s-93 -138 -93 -236c0 -97.333 31 -175.833 93 -235.5s138 -89.5 228 -89.5zM396 164l0.000976562 284c-20 -23.333 -47 -35 -81 -35h-11v65h8
c49.333 0 81.666 22.333 96.999 67h57v-381h-70z" />
    <glyph glyph-name="uni2461" unicode="&#x2461;" horiz-adv-x="836" 
d="M418 -17c-104 0 -192.167 34.167 -264.5 102.5s-108.5 158.166 -108.5 269.499c0 112 36 202 108 270s160.333 102 265 102s193 -34 265 -102s108 -158 108 -270c0 -111.333 -36.167 -201.166 -108.5 -269.499s-160.5 -102.5 -264.5 -102.5zM418 30
c90 0 166 29.833 228 89.5s93 138.167 93 235.5c0 98 -31 176.667 -93 236s-138 89 -228 89s-166 -29.667 -228 -89s-93 -138 -93 -236c0 -97.333 31 -175.833 93 -235.5s138 -89.5 228 -89.5zM268 177l0.000976562 52.0029c37.333 22 65.833 39.667 85.5 53
s41.167 29.5 64.5 48.5s40.166 37.667 50.499 56s15.5 37.166 15.5 56.499c0 45.333 -22.667 68 -68 68c-23.333 0 -41.5 -5.83301 -54.5 -17.5s-19.5 -28.5 -19.5 -50.5c0 -7.33301 1.66699 -17 5 -29l-74 6c-2 9.33301 -3 19.666 -3 30.999c0 36 13.167 64.333 39.5 85
s62.833 31 109.5 31c44 0 78.333 -10.333 103 -31s37 -49.334 37 -86.001c0 -42.667 -18.833 -83 -56.5 -121s-83.5 -70.667 -137.5 -98h202v-54h-299z" />
    <glyph glyph-name="uni2462" unicode="&#x2462;" horiz-adv-x="836" 
d="M418 -17c-104 0 -192.167 34.167 -264.5 102.5s-108.5 158.166 -108.5 269.499c0 112 36 202 108 270s160.333 102 265 102s193 -34 265 -102s108 -158 108 -270c0 -111.333 -36.167 -201.166 -108.5 -269.499s-160.5 -102.5 -264.5 -102.5zM418 30
c90 0 166 29.833 228 89.5s93 138.167 93 235.5c0 98 -31 176.667 -93 236s-138 89 -228 89s-166 -29.667 -228 -89s-93 -138 -93 -236c0 -97.333 31 -175.833 93 -235.5s138 -89.5 228 -89.5zM418 156c-46.667 0 -83.499 10.998 -110.499 32.998s-40.833 52 -41.5 90l72 6
c0.666992 -23.333 8 -41.666 22 -54.999s33.333 -20 58 -20c51.333 0 77 21.667 77 65c0 37.333 -26.667 56 -80 56h-38v51h35c22.667 0 40.667 5.16699 54 15.5s20 24.166 20 41.499c0 41.333 -23.333 62 -70 62c-23.333 0 -42 -6.66699 -56 -20s-21 -31.666 -21 -54.999
l-71 6c0 37.333 13.667 67 41 89s64.333 33 111 33c44 0 78.167 -9.5 102.5 -28.5s36.5 -45.167 36.5 -78.5c0 -22 -7.83301 -41.167 -23.5 -57.5s-35.834 -25.833 -60.501 -28.5c29.333 -3.33301 52.666 -13.166 69.999 -29.499s26 -37.5 26 -63.5
c0 -34.667 -13.667 -62 -41 -82s-64.666 -30 -111.999 -30z" />
    <glyph glyph-name="uni2463" unicode="&#x2463;" horiz-adv-x="836" 
d="M418 -17c-104 0 -192.167 34.167 -264.5 102.5s-108.5 158.166 -108.5 269.499c0 112 36 202 108 270s160.333 102 265 102s193 -34 265 -102s108 -158 108 -270c0 -111.333 -36.167 -201.166 -108.5 -269.499s-160.5 -102.5 -264.5 -102.5zM418 30
c90 0 166 29.833 228 89.5s93 138.167 93 235.5c0 98 -31 176.667 -93 236s-138 89 -228 89s-166 -29.667 -228 -89s-93 -138 -93 -236c0 -97.333 31 -175.833 93 -235.5s138 -89.5 228 -89.5zM561 257h-62v-89h-69v89h-194v51l187 241h76v-240h62v-52zM430 483l-135 -174
h135v174z" />
    <glyph glyph-name="uni2464" unicode="&#x2464;" horiz-adv-x="836" 
d="M418 -17c-104 0 -192.167 34.167 -264.5 102.5s-108.5 158.166 -108.5 269.499c0 112 36 202 108 270s160.333 102 265 102s193 -34 265 -102s108 -158 108 -270c0 -111.333 -36.167 -201.166 -108.5 -269.499s-160.5 -102.5 -264.5 -102.5zM418 30
c90 0 166 29.833 228 89.5s93 138.167 93 235.5c0 98 -31 176.667 -93 236s-138 89 -228 89s-166 -29.667 -228 -89s-93 -138 -93 -236c0 -97.333 31 -175.833 93 -235.5s138 -89.5 228 -89.5zM418 160c-40.667 0 -74.3311 9.16699 -100.998 27.5s-42.667 43.5 -48 75.5
l68 11c3.33301 -18.667 12 -33.334 26 -44.001s31.333 -16 52 -16c26 0 46.333 7.5 61 22.5s22 35.167 22 60.5c0 24.667 -7 44.334 -21 59.001s-33 22 -57 22c-19.333 0 -36.333 -5.16699 -51 -15.5s-24.334 -23.833 -29.001 -40.5l-62 5l25 222h245v-55h-195l-13 -115
c19.333 32 53 48 101 48c39.333 0 70.333 -11.5 93 -34.5s34 -54.167 34 -93.5c0 -43.333 -13.333 -77.333 -40 -102s-63.334 -37 -110.001 -37z" />
    <glyph glyph-name="uni2465" unicode="&#x2465;" horiz-adv-x="836" 
d="M418 727c104.667 0 193 -34 265 -102s108 -158 108 -270c0 -111.333 -36.167 -201.166 -108.5 -269.499s-160.5 -102.5 -264.5 -102.5s-192.167 34.167 -264.5 102.5s-108.5 158.166 -108.5 269.499c0 112 36 202 108 270s160.333 102 265 102zM418 30
c90 0 166 29.833 228 89.5s93 138.167 93 235.5c0 98 -31 176.667 -93 236s-138 89 -228 89s-166 -29.667 -228 -89s-93 -138 -93 -236c0 -97.333 31 -175.833 93 -235.5s138 -89.5 228 -89.5zM447 422c38 0 68.499 -11.667 91.499 -35s34.5 -55 34.5 -95
c0 -39.333 -13.333 -71.833 -40 -97.5s-62 -38.5 -106 -38.5c-50.667 0 -90.5 16.667 -119.5 50s-43.5 81.666 -43.5 144.999c0 61.333 14.167 110.5 42.5 147.5s67.833 55.5 118.5 55.5c81.333 0 128 -34.667 140 -104l-66 -8c-8.66699 39.333 -34 59 -76 59
c-29.333 0 -52 -13.167 -68 -39.5s-24 -63.166 -24 -110.499v-1c18.667 48 57.334 72 116.001 72zM424.999 208c25.333 0 45.333 7.33301 60 22s22 34 22 58c0 25.333 -7.5 45.833 -22.5 61.5s-34.833 23.5 -59.5 23.5c-21.333 0 -40.166 -6.33301 -56.499 -19
s-27.833 -29.667 -34.5 -51c9.33301 -63.333 39.666 -95 90.999 -95z" />
    <glyph glyph-name="uni2466" unicode="&#x2466;" horiz-adv-x="836" 
d="M418 -17c-104 0 -192.167 34.167 -264.5 102.5s-108.5 158.166 -108.5 269.499c0 112 36 202 108 270s160.333 102 265 102s193 -34 265 -102s108 -158 108 -270c0 -111.333 -36.167 -201.166 -108.5 -269.499s-160.5 -102.5 -264.5 -102.5zM418 30
c90 0 166 29.833 228 89.5s93 138.167 93 235.5c0 98 -31 176.667 -93 236s-138 89 -228 89s-166 -29.667 -228 -89s-93 -138 -93 -236c0 -97.333 31 -175.833 93 -235.5s138 -89.5 228 -89.5zM276 488l-0.000976562 57.001h286v-56
c-93.333 -86.667 -141 -191.334 -143 -314.001v-11h-78v5c2.66699 124 53.334 230.333 152.001 319h-217z" />
    <glyph glyph-name="uni2467" unicode="&#x2467;" horiz-adv-x="836" 
d="M418 727c104.667 0 193 -34 265 -102s108 -158 108 -270c0 -111.333 -36.167 -201.166 -108.5 -269.499s-160.5 -102.5 -264.5 -102.5s-192.167 34.167 -264.5 102.5s-108.5 158.166 -108.5 269.499c0 112 36 202 108 270s160.333 102 265 102zM418 30
c90 0 166 29.833 228 89.5s93 138.167 93 235.5c0 98 -31 176.667 -93 236s-138 89 -228 89s-166 -29.667 -228 -89s-93 -138 -93 -236c0 -97.333 31 -175.833 93 -235.5s138 -89.5 228 -89.5zM482 373c62.667 -17.333 94.001 -53.001 94.001 -107.001
c0 -34 -14.333 -60.833 -43 -80.5s-67.667 -29.5 -117 -29.5c-48.667 0 -86.834 9.33301 -114.501 28s-41.5 44.334 -41.5 77.001c0 46.667 29.667 77.667 89 93c-52.667 18 -79 50 -79 96c0 30.667 13.167 55.667 39.5 75s60.833 29 103.5 29c44 0 79.333 -8.5 106 -25.5
s40 -40.167 40 -69.5c0 -22 -6 -39.667 -18 -53s-31.667 -24.333 -59 -33zM414.001 505.999c-23.333 0 -41.999 -5.00293 -55.999 -15.0029s-21 -23.667 -21 -41c0 -16.667 6.16699 -29.667 18.5 -39s30.833 -16.666 55.5 -21.999l27 -6c20 6.66699 34 14.834 42 24.501
s12 22.5 12 38.5c0 18.667 -6.83301 33.334 -20.5 44.001s-32.834 16 -57.501 16zM418.002 206.996c26.667 0 47.667 5.50195 63 16.502s23 25.833 23 44.5c0 19.333 -6.66699 34.166 -20 44.499s-33 18.166 -59 23.499l-29 7c-42.667 -14.667 -64 -38.667 -64 -72
c0 -20 7.5 -35.667 22.5 -47s36.167 -17 63.5 -17z" />
    <glyph glyph-name="uni2468" unicode="&#x2468;" horiz-adv-x="836" 
d="M418 727c104.667 0 193 -34 265 -102s108 -158 108 -270c0 -111.333 -36.167 -201.166 -108.5 -269.499s-160.5 -102.5 -264.5 -102.5s-192.167 34.167 -264.5 102.5s-108.5 158.166 -108.5 269.499c0 112 36 202 108 270s160.333 102 265 102zM418 30
c90 0 166 29.833 228 89.5s93 138.167 93 235.5c0 98 -31 176.667 -93 236s-138 89 -228 89s-166 -29.667 -228 -89s-93 -138 -93 -236c0 -97.333 31 -175.833 93 -235.5s138 -89.5 228 -89.5zM412 554c106.667 0 159.999 -65.001 159.999 -195.001
c0 -135.333 -54 -203 -162 -203c-80.667 0 -126.667 33.667 -138 101l66 11c8.66699 -38.667 34.334 -58 77.001 -58c56.667 0 87 45.333 91 136c-26 -32 -62.333 -48 -109 -48c-40 0 -72.167 11.833 -96.5 35.5s-36.5 53.834 -36.5 90.501c0 38 13.167 69.167 39.5 93.5
s62.5 36.5 108.5 36.5zM411.999 347.999c42 0 72.667 18.332 92 54.999c-6.66699 66.667 -37 100 -91 100c-25.333 0 -45.5 -7.16699 -60.5 -21.5s-22.5 -32.833 -22.5 -55.5c0 -23.333 7.5 -42.166 22.5 -56.499s34.833 -21.5 59.5 -21.5z" />
    <glyph glyph-name="uni24EA" unicode="&#x24ea;" horiz-adv-x="836" 
d="M418 -17c-104 0 -192.167 34.167 -264.5 102.5s-108.5 158.166 -108.5 269.499c0 112 36 202 108 270s160.333 102 265 102s193 -34 265 -102s108 -158 108 -270c0 -111.333 -36.167 -201.166 -108.5 -269.499s-160.5 -102.5 -264.5 -102.5zM418 30
c90 0 166 29.833 228 89.5s93 138.167 93 235.5c0 98 -31 176.667 -93 236s-138 89 -228 89s-166 -29.667 -228 -89s-93 -138 -93 -236c0 -97.333 31 -175.833 93 -235.5s138 -89.5 228 -89.5zM419 156c-53.333 0 -94.668 17.333 -124.001 52s-44 83.667 -44 147
c0 62.667 14.667 111.5 44 146.5s70.333 52.5 123 52.5s93.834 -17.5 123.501 -52.5s44.5 -84.5 44.5 -148.5c0 -62.667 -14.667 -111.167 -44 -145.5s-70.333 -51.5 -123 -51.5zM418.998 211c29.333 0 52.166 12.167 68.499 36.5s24.5 59.5 24.5 105.5
c0 47.333 -8.16699 83.5 -24.5 108.5s-39.5 37.5 -69.5 37.5c-29.333 0 -52.166 -12.5 -68.499 -37.5s-24.5 -60.5 -24.5 -106.5c0 -96 31.333 -144 94 -144z" />
    <glyph glyph-name="uni24FF" unicode="&#x24ff;" horiz-adv-x="836" 
d="M418 -17c-104 0 -192.167 34.167 -264.5 102.5s-108.5 158.166 -108.5 269.499s36.167 201.166 108.5 269.499s160.5 102.5 264.5 102.5s192.167 -34.167 264.5 -102.5s108.5 -158.166 108.5 -269.499s-36.167 -201.166 -108.5 -269.499s-160.5 -102.5 -264.5 -102.5z
M419 156c52.667 0 94.166 17.333 124.499 52s45.5 83.334 45.5 146.001c0 63.333 -15.167 112.666 -45.5 147.999s-72.166 53 -125.499 53s-95 -17.5 -125 -52.5s-45 -83.833 -45 -146.5c0 -63.333 15 -112.5 45 -147.5s72 -52.5 126 -52.5zM418.999 216
c-59.333 0 -89 46.666 -89 139.999c0 45.333 7.83301 79.833 23.5 103.5s37.167 35.5 64.5 35.5c28 0 49.833 -12 65.5 -36s23.5 -59 23.5 -105c0 -45.333 -7.83301 -79.666 -23.5 -102.999s-37.167 -35 -64.5 -35z" />
    <glyph glyph-name="lozenge" unicode="&#x25ca;" horiz-adv-x="532" 
d="M303 -17h-76l-202 372l202 372h76l204 -372zM265 644l-152 -289l152 -289l155 289z" />
    <glyph glyph-name="circle" unicode="&#x25cb;" horiz-adv-x="836" 
d="M418 -17c-104 0 -192.167 34.167 -264.5 102.5s-108.5 158.166 -108.5 269.499c0 112 36 202 108 270s160.333 102 265 102s193 -34 265 -102s108 -158 108 -270c0 -111.333 -36.167 -201.166 -108.5 -269.499s-160.5 -102.5 -264.5 -102.5zM418 30
c90 0 166 29.833 228 89.5s93 138.167 93 235.5c0 98 -31 176.667 -93 236s-138 89 -228 89s-166 -29.667 -228 -89s-93 -138 -93 -236c0 -97.333 31 -175.833 93 -235.5s138 -89.5 228 -89.5z" />
    <glyph glyph-name="uni25CF" unicode="&#x25cf;" horiz-adv-x="836" 
d="M418 -17c-104 0 -192.167 34.167 -264.5 102.5s-108.5 158.166 -108.5 269.499s36.167 201.166 108.5 269.499s160.5 102.5 264.5 102.5s192.167 -34.167 264.5 -102.5s108.5 -158.166 108.5 -269.499s-36.167 -201.166 -108.5 -269.499s-160.5 -102.5 -264.5 -102.5z
" />
    <glyph glyph-name="uni2776" unicode="&#x2776;" horiz-adv-x="836" 
d="M418 -17c-104 0 -192.167 34.167 -264.5 102.5s-108.5 158.166 -108.5 269.499s36.167 201.166 108.5 269.499s160.5 102.5 264.5 102.5s192.167 -34.167 264.5 -102.5s108.5 -158.166 108.5 -269.499s-36.167 -201.166 -108.5 -269.499s-160.5 -102.5 -264.5 -102.5z
M392 164h79v382h-63c-16.667 -44.667 -50 -67 -100 -67h-8v-71h11c34.667 0 61.667 11.333 81 34v-278z" />
    <glyph glyph-name="uni2777" unicode="&#x2777;" horiz-adv-x="836" 
d="M418 -17c-104 0 -192.167 34.167 -264.5 102.5s-108.5 158.166 -108.5 269.499s36.167 201.166 108.5 269.499s160.5 102.5 264.5 102.5s192.167 -34.167 264.5 -102.5s108.5 -158.166 108.5 -269.499s-36.167 -201.166 -108.5 -269.499s-160.5 -102.5 -264.5 -102.5z
M265 177l305.999 -0.000976562v59h-199c54 26.667 99.5 58.5 136.5 95.5s55.5 76.5 55.5 118.5c0 37.333 -12.833 66.333 -38.5 87s-61.167 31 -106.5 31c-47.333 0 -84.666 -10.5 -111.999 -31.5s-41 -49.5 -41 -85.5c0 -12.667 1 -23 3 -31l81 -7
c-2.66699 10 -4 19.667 -4 29c0 20.667 6.16699 36.667 18.5 48s29.5 17 51.5 17c42.667 0 64 -21.667 64 -65c0 -19.333 -4.66699 -37.5 -14 -54.5s-26.333 -35.167 -51 -54.5s-45.667 -34.666 -63 -45.999s-46.333 -29.333 -87 -54v-56z" />
    <glyph glyph-name="uni2778" unicode="&#x2778;" horiz-adv-x="836" 
d="M418 -17c-104 0 -192.167 34.167 -264.5 102.5s-108.5 158.166 -108.5 269.499s36.167 201.166 108.5 269.499s160.5 102.5 264.5 102.5s192.167 -34.167 264.5 -102.5s108.5 -158.166 108.5 -269.499s-36.167 -201.166 -108.5 -269.499s-160.5 -102.5 -264.5 -102.5z
M418 156c48 0 85.998 10 113.998 30s42 47.333 42 82c0 25.333 -8.66699 46.333 -26 63s-40.666 26.334 -69.999 29.001c25.333 3.33301 46 13.166 62 29.499s24 35.5 24 57.5c0 34 -12.5 60.5 -37.5 79.5s-60.5 28.5 -106.5 28.5c-48 0 -85.833 -11 -113.5 -33
s-41.5 -51.667 -41.5 -89l79 -7c0 22 6.5 39.333 19.5 52s30.5 19 52.5 19c20.667 0 36.834 -5.16699 48.501 -15.5s17.5 -24.833 17.5 -43.5c0 -17.333 -6.33301 -31 -19 -41s-29.667 -15 -51 -15h-26v-50h28c50.667 0 76 -18.667 76 -56c0 -40.667 -24 -61 -72 -61
c-22.667 0 -40.667 6.5 -54 19.5s-20.333 30.5 -21 52.5l-80 -6c0.666992 -38.667 14.667 -69.167 42 -91.5s65 -33.5 113 -33.5z" />
    <glyph glyph-name="uni2779" unicode="&#x2779;" horiz-adv-x="836" 
d="M418 -17c-104 0 -192.167 34.167 -264.5 102.5s-108.5 158.166 -108.5 269.499s36.167 201.166 108.5 269.499s160.5 102.5 264.5 102.5s192.167 -34.167 264.5 -102.5s108.5 -158.166 108.5 -269.499s-36.167 -201.166 -108.5 -269.499s-160.5 -102.5 -264.5 -102.5z
M426 174h77v88h61v57h-61v237h-85l-186 -239v-55h194v-88zM297 319l129 165v-165h-129z" />
    <glyph glyph-name="uni277A" unicode="&#x277a;" horiz-adv-x="836" 
d="M418 -17c-104 0 -192.167 34.167 -264.5 102.5s-108.5 158.166 -108.5 269.499s36.167 201.166 108.5 269.499s160.5 102.5 264.5 102.5s192.167 -34.167 264.5 -102.5s108.5 -158.166 108.5 -269.499s-36.167 -201.166 -108.5 -269.499s-160.5 -102.5 -264.5 -102.5z
M418 160c47.333 0 84.665 12.333 111.998 37s41 59 41 103c0 39.333 -11.5 70.5 -34.5 93.5s-54.167 34.5 -93.5 34.5c-47.333 0 -80.666 -15 -99.999 -45l13 107h195v60h-252l-25 -222l69 -6c4.66699 15.333 14 27.833 28 37.5s30 14.5 48 14.5
c22.667 0 40.834 -6.66699 54.501 -20s20.5 -32 20.5 -56s-7.16699 -43.167 -21.5 -57.5s-33.5 -21.5 -57.5 -21.5c-20 0 -36.667 5.16699 -50 15.5s-21.666 24.5 -24.999 42.5l-75 -13c5.33301 -32.667 21.666 -58.167 48.999 -76.5s62 -27.5 104 -27.5z" />
    </font>
</defs>
</svg>
